<svg xmlns="http://www.w3.org/2000/svg" width="600" height="466" viewBox="0 0 600 466">
  <defs>
    <style>
      .cls-1 {
        fill: none;
      }

      .cls-2 {
        fill: #4d4d4d;
      }

      .cls-3 {
        fill: #c2ecf2;
      }

      .cls-4 {
        fill: #c1272d;
      }

      .cls-5 {
        fill: #ff931e;
      }

      .cls-6 {
        fill: #c2f5f9;
      }

      .cls-7 {
        fill: #fff;
      }
    </style>
  </defs>
  <title>Ugle_stor_sprite_2</title>
  <g id="Ugle09">
    <rect class="cls-1" x="198.31" y="310.8" width="99.25" height="155.65"/>
    <g>
      <path class="cls-2" d="M255.64,348.42c1.67-.92,2.52-2.78,3.18-4.55a61.14,61.14,0,0,0,3.81-20.22,6,6,0,0,1,.17-1.65c.46-1.52,2-2.39,3.32-3.34s2.5-2.57,1.83-4a17.22,17.22,0,0,1-4.12,4.88,14.5,14.5,0,0,0-1.2-3.63,8.55,8.55,0,0,1-.68,4.27,10.12,10.12,0,0,0-3.92-3.46c1.75,2.09,2.74,4.43,4.26,6.49"/>
      <path class="cls-2" d="M250.82,348.65c-1.83-.53-3.07-2.17-4.09-3.76a61.14,61.14,0,0,1-8.1-18.92,6,6,0,0,0-.53-1.58c-.78-1.39-2.5-1.89-4-2.55s-3-2-2.66-3.52a17.22,17.22,0,0,0,5.07,3.87,14.5,14.5,0,0,1,.38-3.81,8.55,8.55,0,0,0,1.59,4,10.12,10.12,0,0,1,3.08-4.23c-1.26,2.41-1.72,4.92-2.75,7.26"/>
      <path class="cls-3" d="M289.08,429.1s-57.06,16.1-79.66,2.34,42.94-92.08,42.94-92.08S301.37,416.31,289.08,429.1Z"/>
      <path class="cls-4" d="M246,386.42s-3.42,4.68-1.42,6.71S246,386.42,246,386.42Z"/>
      <path class="cls-5" d="M248,396.68c0-3.67,0-7.41-1.1-10.93a38.59,38.59,0,0,1-2.33,8.19,9.28,9.28,0,0,0-.07-6.71q-1.69,4.89-3.22,9.84a.4.4,0,0,0,0,.35.42.42,0,0,0,.37.11l2.35-.08c1.56-.05,3.26-.16,4.44-1.16"/>
      <path class="cls-6" d="M221.74,433.27c-.16,1.82-1.81,2.35-3.51,4.23-5.31,5.91-3.21,16.45-3.3,15.84A120.9,120.9,0,0,0,212,439.21a21.87,21.87,0,0,0-4.31,13.95A35.23,35.23,0,0,1,205.39,443a15.94,15.94,0,0,1,.55-6.31,17,17,0,0,1,3.8-6c2.07-2.37,3.11-3.55,4.64-3.79C217.83,426.28,222,430.21,221.74,433.27Z"/>
      <path class="cls-6" d="M272.31,428.66c0,1.82,1.65,2.45,3.22,4.44,4.91,6.22,2.12,16.61,2.25,16a121.28,121.28,0,0,1,3.83-13.93A21.8,21.8,0,0,1,285,449.37a35.35,35.35,0,0,0,3-10,15.93,15.93,0,0,0-.14-6.33,16.9,16.9,0,0,0-3.4-6.27c-1.91-2.49-2.87-3.74-4.38-4.07C276.68,421.93,272.24,425.6,272.31,428.66Z"/>
      <ellipse class="cls-7" cx="236.25" cy="407.63" rx="9.22" ry="15.8" transform="translate(-11.87 7.11) rotate(-1.68)"/>
      <polygon points="234.25 406.94 235.77 405.53 237.38 407.24 237.76 406.83 236.15 405.13 237.66 403.72 237.26 403.34 235.75 404.75 234.34 403.43 233.97 403.83 235.37 405.15 233.85 406.56 234.25 406.94"/>
      <ellipse class="cls-7" cx="254.72" cy="405.92" rx="9.22" ry="15.8" transform="translate(-11.81 7.66) rotate(-1.68)"/>
      <polygon points="252.94 406.39 254.46 404.98 256.07 406.69 256.45 406.29 254.84 404.58 256.36 403.17 255.96 402.79 254.44 404.2 253.04 402.88 252.66 403.28 254.06 404.6 252.54 406.01 252.94 406.39"/>
      <path class="cls-6" d="M238.28,385.7c.38-3.19-.93-9-3.56-20.73-1.63-7.24-3-11.09-3.64-13.34-1.27-4.64-2.6-9.42-5.58-13.23a41.14,41.14,0,0,0,2.11,18.27c-5.09-3.79-3.87-12.36-8.8-16.36.08,6.88.16,13.86,2.09,20.47A87.1,87.1,0,0,1,209.53,339c-.71-2-1.7-4.39-3.84-4.79,8.94,24.82,9.17,44,7.44,57.32-1.16,9-3.31,16.17-.15,18.06C218.23,412.73,236.55,400.28,238.28,385.7Z"/>
      <path class="cls-6" d="M256.3,383.61c-.12-3.21,1.66-8.95,5.23-20.43,2.21-7.1,3.92-10.85,4.71-13,1.64-4.54,3.35-9.21,6.63-12.81a41.4,41.4,0,0,1-3.59,18.08c5.38-3.42,4.86-12.06,10.1-15.69-.63,6.86-1.29,13.82-3.75,20.28a88.31,88.31,0,0,0,13.11-20.93c.87-2,2.05-4.26,4.22-4.51-10.92,24.13-12.7,43.21-12.07,56.66.43,9,2,16.36-1.32,18C274.09,412,256.85,398.28,256.3,383.61Z"/>
    </g>
  </g>
  <g id="Ugle08">
    <g>
      <rect class="cls-1" x="98.96" y="310.8" width="99.25" height="155.65"/>
      <path class="cls-2" d="M141.41,422.81c-1.7.87-2.61,2.71-3.31,4.46a61.14,61.14,0,0,0-4.41,20.1,6,6,0,0,1-.22,1.65c-.5,1.51-2.1,2.33-3.42,3.25s-2.57,2.49-2,4a17.22,17.22,0,0,1,4.26-4.75,14.5,14.5,0,0,0,1.09,3.67,8.55,8.55,0,0,1,.8-4.25,10.12,10.12,0,0,0,3.81,3.57c-1.69-2.14-2.61-4.51-4.07-6.62"/>
      <path class="cls-2" d="M146.24,422.73c1.82.59,3,2.26,4,3.87a61.14,61.14,0,0,1,7.54,19.15,6,6,0,0,0,.48,1.59c.74,1.41,2.44,2,3.89,2.66s2.93,2.05,2.55,3.6a17.22,17.22,0,0,0-5-4,14.5,14.5,0,0,1-.49,3.79,8.55,8.55,0,0,0-1.47-4.07,10.12,10.12,0,0,1-3.2,4.13c1.33-2.38,1.86-4.87,3-7.18"/>
      <path class="cls-3" d="M110.35,341.19s57.51-14.42,79.7,0S144.42,432,144.42,432,97.69,353.61,110.35,341.19Z"/>
      <path class="cls-4" d="M152.14,385.11s3.55-4.58,1.62-6.67S152.14,385.11,152.14,385.11Z"/>
      <path class="cls-5" d="M150.47,374.8c-.1,3.67-.19,7.41.78,11a38.59,38.59,0,0,1,2.57-8.12,9.28,9.28,0,0,0-.12,6.71q1.84-4.84,3.51-9.74a.4.4,0,0,0,0-.35.42.42,0,0,0-.36-.12H154.5c-1.56,0-3.26.06-4.47,1"/>
      <path class="cls-6" d="M177.78,339c.22-1.81,1.88-2.29,3.63-4.13,5.48-5.75,3.69-16.35,3.76-15.73a120.9,120.9,0,0,0,2.49,14.21,21.87,21.87,0,0,0,4.71-13.81,35.23,35.23,0,0,1,2,10.26,15.94,15.94,0,0,1-.74,6.29,17,17,0,0,1-4,5.93c-2.14,2.31-3.21,3.46-4.75,3.65C181.5,346.1,177.42,342,177.78,339Z"/>
      <path class="cls-6" d="M127.1,342.12c0-1.82-1.58-2.5-3.09-4.53-4.72-6.36-1.63-16.67-1.78-16.07A121.28,121.28,0,0,1,118,335.33a21.8,21.8,0,0,1-3-14.27,35.35,35.35,0,0,0-3.3,9.94,15.93,15.93,0,0,0,0,6.33,16.9,16.9,0,0,0,3.21,6.37c1.84,2.55,2.76,3.82,4.26,4.19C122.54,348.72,127.08,345.19,127.1,342.12Z"/>
      <ellipse class="cls-7" cx="162.53" cy="364.2" rx="9.22" ry="15.8"/>
      <polygon points="164.51 364.95 162.95 366.32 161.39 364.56 161 364.95 162.56 366.7 161 368.07 161.39 368.46 162.95 367.1 164.31 368.46 164.7 368.07 163.34 366.7 164.9 365.34 164.51 364.95"/>
      <ellipse class="cls-7" cx="144.02" cy="365.37" rx="9.22" ry="15.8"/>
      <polygon points="145.81 364.95 144.25 366.32 142.69 364.56 142.3 364.95 143.86 366.7 142.3 368.07 142.69 368.46 144.25 367.1 145.61 368.46 146 368.07 144.64 366.7 146.2 365.34 145.81 364.95"/>
      <path class="cls-6" d="M159.85,386.07c-.47,3.18.67,9.06,2.95,20.82,1.41,7.28,2.7,11.18,3.25,13.44,1.13,4.68,2.32,9.49,5.18,13.39a41.14,41.14,0,0,0-1.57-18.33c5,3.94,3.51,12.47,8.32,16.61.13-6.88.24-13.86-1.49-20.53a87.1,87.1,0,0,1,10.74,22.11c.65,2,1.58,4.43,3.7,4.91-8.21-25.07-7.88-44.21-5.76-57.51,1.42-8.92,3.78-16.06.68-18C180.69,359.63,162,371.54,159.85,386.07Z"/>
      <path class="cls-6" d="M141.78,387.62c0,3.21-1.93,8.9-5.83,20.26-2.41,7-4.23,10.73-5.09,12.9-1.77,4.49-3.62,9.11-7,12.61a41.4,41.4,0,0,1,4.12-18c-5.48,3.26-5.21,11.91-10.55,15.39.83-6.84,1.69-13.77,4.34-20.16A88.31,88.31,0,0,0,108,431.19c-.93,1.94-2.18,4.19-4.35,4.38,11.63-23.8,14-42.81,13.72-56.28-.16-9-1.5-16.42,1.85-18C124.84,358.71,141.67,372.94,141.78,387.62Z"/>
    </g>
  </g>
  <g id="Ugle07">
    <g>
      <rect class="cls-1" x="-0.39" y="310.8" width="99.25" height="155.65"/>
      <g>
        <path class="cls-2" d="M42.06,422.81c-1.7.87-2.61,2.71-3.31,4.46a61.14,61.14,0,0,0-4.41,20.1,6,6,0,0,1-.22,1.65c-.5,1.51-2.1,2.33-3.42,3.25s-2.57,2.49-2,4A17.22,17.22,0,0,1,33,451.47a14.5,14.5,0,0,0,1.09,3.67,8.55,8.55,0,0,1,.8-4.25,10.12,10.12,0,0,0,3.81,3.57c-1.69-2.14-2.61-4.51-4.07-6.62"/>
        <path class="cls-6" d="M20.35,342.31c0-1.82-1.58-2.5-3.09-4.53-4.72-6.36-1.63-16.67-1.78-16.07a121.28,121.28,0,0,1-4.24,13.81,21.8,21.8,0,0,1-3-14.27A35.35,35.35,0,0,0,5,331.18a15.93,15.93,0,0,0,0,6.33,16.9,16.9,0,0,0,3.21,6.37c1.84,2.55,2.76,3.82,4.26,4.19C15.78,348.91,20.33,345.38,20.35,342.31Z"/>
        <path class="cls-6" d="M50.55,380.72c-.41,3.19-3.1,8.56-8.49,19.3-3.34,6.65-5.64,10.07-6.77,12.1-2.36,4.21-4.81,8.54-8.63,11.55a41.4,41.4,0,0,1,6.49-17.25c-5.87,2.49-6.77,11.1-12.52,13.83,1.74-6.66,3.53-13.42,7-19.39a88.31,88.31,0,0,0-16.35,18.5c-1.18,1.79-2.72,3.86-4.9,3.76,14.72-22,19.59-40.55,21.16-53.93,1.05-9,.71-16.47,4.24-17.57C37.64,349.8,52.41,366.15,50.55,380.72Z"/>
        <path class="cls-3" d="M11,341.19s57.51-14.42,79.7,0S45.07,432,45.07,432-1.66,353.61,11,341.19Z"/>
        <path class="cls-5" d="M33.59,374.8c-.1,3.67-.19,7.41.78,11a38.59,38.59,0,0,1,2.57-8.12,9.28,9.28,0,0,0-.12,6.71q1.84-4.84,3.51-9.74a.4.4,0,0,0,0-.35.42.42,0,0,0-.36-.12H37.62c-1.56,0-3.26.06-4.47,1"/>
        <ellipse class="cls-7" cx="42.72" cy="361.28" rx="9.22" ry="15.8"/>
        <path class="cls-7" d="M21.85,367.43c2.24,7.74,6.55,13.32,9.62,12.46s3.74-7.83,1.5-15.56S26.42,351,23.35,351.87,19.61,359.69,21.85,367.43Z"/>
        <path class="cls-6" d="M52.14,340.75c.22-1.81,1.88-2.29,3.63-4.13,5.48-5.75,3.69-16.35,3.76-15.73A120.9,120.9,0,0,0,62,335.1a21.87,21.87,0,0,0,4.71-13.81,35.23,35.23,0,0,1,2,10.26,15.94,15.94,0,0,1-.74,6.29,17,17,0,0,1-4,5.93c-2.14,2.31-3.21,3.46-4.75,3.65C55.85,347.85,51.77,343.8,52.14,340.75Z"/>
        <ellipse cx="38.5" cy="360.51" rx="1.88" ry="1.84"/>
        <ellipse cx="24.44" cy="366.03" rx="1.88" ry="1.84"/>
        <path class="cls-6" d="M53.3,373.21c-.47,3.18.67,9.06,2.95,20.82,1.41,7.28,2.7,11.18,3.25,13.44,1.13,4.68,2.32,9.49,5.18,13.39a41.14,41.14,0,0,0-1.57-18.33c5,3.94,3.51,12.47,8.32,16.61.13-6.88.24-13.86-1.49-20.53a87.1,87.1,0,0,1,10.74,22.11c.65,2,1.58,4.43,3.7,4.91-8.21-25.07-7.88-44.21-5.76-57.51,1.42-8.92,3.78-16.06.68-18C74.13,346.77,55.46,358.68,53.3,373.21Z"/>
        <path class="cls-2" d="M53.77,420.86c-1.7.87-2.61,2.71-3.31,4.46a61.14,61.14,0,0,0-4.41,20.1,6,6,0,0,1-.22,1.65c-.5,1.51-2.1,2.33-3.42,3.25s-2.57,2.49-2,4a17.22,17.22,0,0,1,4.26-4.75,14.5,14.5,0,0,0,1.09,3.67,8.55,8.55,0,0,1,.8-4.25,10.12,10.12,0,0,0,3.81,3.57c-1.69-2.14-2.61-4.51-4.07-6.62"/>
      </g>
    </g>
  </g>
  <g id="Ugle06">
    <g>
      <rect class="cls-1" x="496.75" y="155.15" width="99.25" height="155.65"/>
      <g>
        <path class="cls-2" d="M541.53,267.76c-1.74.72-2.78,2.48-3.62,4.16a62.13,62.13,0,0,0-6,19.65,6.15,6.15,0,0,1-.36,1.62c-.62,1.46-2.25,2.14-3.62,2.94s-2.73,2.26-2.25,3.78a17.11,17.11,0,0,1,4.57-4.37,14.71,14.71,0,0,0,.75,3.74,8.69,8.69,0,0,1,1.15-4.16,10,10,0,0,0,3.42,3.88c-1.46-2.27-2.16-4.72-3.41-6.94"/>
        <path class="cls-6" d="M520,188.22c.29-1.8-1.15-2.71-2.31-4.94-3.61-7,1-16.72.72-16.14a123,123,0,0,1-6.21,13,22.14,22.14,0,0,1-.7-14.55,35.82,35.82,0,0,0-4.72,9.33,16.23,16.23,0,0,0-1,6.25,17,17,0,0,0,2.14,6.77c1.39,2.79,2.09,4.19,3.49,4.78C514.58,194.06,519.53,191.25,520,188.22Z"/>
        <path class="cls-6" d="M547.15,226.13c-.6,3.16-3.59,8.35-9.56,18.72-3.69,6.42-6.17,9.69-7.41,11.65-2.58,4.06-5.26,8.22-9.19,11a41.88,41.88,0,0,1,7.46-16.81c-5.91,2.12-7.34,10.66-13.15,13,2.14-6.54,4.31-13.17,8.11-18.91a87.81,87.81,0,0,0-17.2,17.44c-1.27,1.72-2.91,3.68-5,3.45C517,244.61,523,226.43,525.34,213.18c1.6-8.89,1.76-16.39,5.28-17.27C536.49,194.45,549.9,211.71,547.15,226.13Z"/>
        <path class="cls-3" d="M509.78,185.54s56.43-14.42,78.21,0-44.78,90.78-44.78,90.78S497.36,198,509.78,185.54Z"/>
        <path class="cls-5" d="M532,219.33c0,3.67,0,7.41,1,10.94a39.12,39.12,0,0,1,2.36-8.17,9.44,9.44,0,0,0,0,6.71q1.71-4.88,3.26-9.81a.31.31,0,0,0-.36-.46l-2.3.06c-1.53,0-3.2.12-4.37,1.12"/>
        <ellipse class="cls-7" cx="540.91" cy="205.63" rx="9.05" ry="15.8"/>
        <ellipse class="cls-7" cx="525.88" cy="210.23" rx="5.67" ry="14.57" transform="translate(-37.45 151.84) rotate(-15.87)"/>
        <path class="cls-6" d="M549.58,186.47c-.13-1.82,1.39-2.59,2.74-4.71,4.23-6.64.55-16.73.73-16.14a123,123,0,0,0,5,13.52,22.14,22.14,0,0,0,2-14.43,35.82,35.82,0,0,1,3.86,9.71,16.23,16.23,0,0,1,.44,6.32,17,17,0,0,1-2.75,6.55c-1.64,2.65-2.46,4-3.91,4.45C554.46,192.78,549.79,189.53,549.58,186.47Z"/>
        <circle cx="535.8" cy="208.37" r="1.84"/>
        <circle cx="527.06" cy="212.53" r="1.84"/>
        <path class="cls-6" d="M552.89,218.75c-.27,3.2,1.2,9,4.14,20.61,1.82,7.18,3.32,11,4,13.22,1.39,4.6,2.85,9.34,5.89,13.06a41.88,41.88,0,0,0-2.65-18.2c5.12,3.64,4.19,12.24,9.15,16.09-.29-6.87-.6-13.85-2.7-20.4a87.81,87.81,0,0,1,11.86,21.43c.76,2,1.81,4.33,3.92,4.68-9.55-24.54-10.38-43.66-9.11-57.07.85-9,2.73-16.26-.43-18.05C571.71,191.13,554.13,204.12,552.89,218.75Z"/>
        <path class="cls-2" d="M549.87,264.81c-1.56,1-2.24,3-2.73,4.79a62.13,62.13,0,0,0-2.06,20.46,6.15,6.15,0,0,1,0,1.66c-.32,1.55-1.79,2.54-3,3.6s-2.23,2.76-1.46,4.15a17.11,17.11,0,0,1,3.62-5.19,14.71,14.71,0,0,0,1.47,3.52,8.69,8.69,0,0,1,.31-4.31,10,10,0,0,0,4.12,3.13c-1.88-1.94-3-4.2-4.71-6.13"/>
      </g>
    </g>
  </g>
  <g id="Ugle05">
    <g>
      <rect class="cls-1" x="397.2" y="155.15" width="99.25" height="155.65"/>
      <g>
        <path class="cls-2" d="M440.79,267.22c-1.68.84-2.59,2.67-3.31,4.41a62.13,62.13,0,0,0-4.6,20,6.15,6.15,0,0,1-.24,1.64c-.52,1.5-2.09,2.3-3.4,3.2s-2.56,2.46-2,3.93a17.11,17.11,0,0,1,4.24-4.69,14.71,14.71,0,0,0,1,3.68,8.69,8.69,0,0,1,.85-4.24,10,10,0,0,0,3.69,3.62c-1.63-2.16-2.5-4.55-3.9-6.67"/>
        <path class="cls-6" d="M420.84,189.14c.62-1.71-.62-2.88-1.33-5.29-2.22-7.55,4.1-16.23,3.76-15.72a123,123,0,0,1-8.56,11.6,22.14,22.14,0,0,1,2.06-14.42,35.82,35.82,0,0,0-6.39,8.27,16.23,16.23,0,0,0-2.17,5.95,17,17,0,0,0,.83,7.05c.84,3,1.26,4.51,2.52,5.35C414.39,193.85,419.79,192,420.84,189.14Z"/>
        <path class="cls-6" d="M449.94,224.5c-.31,3.2-2.81,8.64-7.8,19.52-3.09,6.74-5.25,10.22-6.31,12.28-2.2,4.28-4.49,8.67-8.15,11.78a41.88,41.88,0,0,1,5.89-17.42c-5.69,2.65-6.33,11.28-11.9,14.17,1.53-6.71,3.09-13.51,6.34-19.58a87.81,87.81,0,0,0-15.53,18.94c-1.11,1.83-2.56,3.94-4.7,3.89C421.6,245.68,425.87,227,427,213.61c.78-9,.25-16.48,3.68-17.68C436.42,193.94,451.36,209.89,449.94,224.5Z"/>
        <path class="cls-3" d="M410.23,185.54s56.43-14.42,78.21,0-44.78,90.78-44.78,90.78S397.81,198,410.23,185.54Z"/>
        <path class="cls-5" d="M432.93,218.51c-1.46,3.37-2.94,6.8-3.38,10.45a39.12,39.12,0,0,1,5.37-6.59,9.44,9.44,0,0,0-2.61,6.18q3.48-3.82,6.83-7.75a.41.41,0,0,0,.14-.32c0-.13-.16-.19-.29-.24l-2.14-.85c-1.43-.56-3-1.14-4.46-.68"/>
        <ellipse class="cls-7" cx="441.36" cy="205.63" rx="9.05" ry="15.8"/>
        <ellipse class="cls-7" cx="426.34" cy="210.23" rx="5.67" ry="14.57" transform="translate(-41.24 124.61) rotate(-15.87)"/>
        <path class="cls-6" d="M450.6,185.36c.16-1.82,1.78-2.35,3.44-4.23,5.21-5.9,3.15-16.44,3.24-15.83a123,123,0,0,0,2.85,14.14,22.14,22.14,0,0,0,4.23-13.94,35.82,35.82,0,0,1,2.3,10.2,16.23,16.23,0,0,1-.55,6.31,17,17,0,0,1-3.73,6c-2,2.37-3.05,3.55-4.55,3.78C454.44,192.36,450.33,188.42,450.6,185.36Z"/>
        <circle cx="436.25" cy="208.37" r="1.84"/>
        <circle cx="425.76" cy="214.28" r="1.84"/>
        <path class="cls-6" d="M456,221.27c.2,3.21,2.49,8.73,7.08,19.79,2.84,6.84,4.88,10.4,5.86,12.5,2,4.35,4.17,8.83,7.71,12.07A41.88,41.88,0,0,0,471.43,248c5.59,2.86,5.92,11.51,11.38,14.59-1.28-6.76-2.6-13.61-5.62-19.79A87.81,87.81,0,0,1,492,262.3c1,1.86,2.42,4,4.55,4.06-13-22.9-16.59-41.7-17.27-55.15-.46-9,.35-16.48-3-17.8C470.65,191.22,455.14,206.62,456,221.27Z"/>
        <path class="cls-2" d="M452.49,265.55c-1.68.84-2.6,2.67-3.32,4.4a62.13,62.13,0,0,0-4.64,20,6.15,6.15,0,0,1-.24,1.64c-.52,1.5-2.1,2.29-3.4,3.19s-2.56,2.45-2,3.93a17.11,17.11,0,0,1,4.25-4.69,14.71,14.71,0,0,0,1,3.68,8.69,8.69,0,0,1,.85-4.23,10,10,0,0,0,3.69,3.63c-1.62-2.16-2.49-4.55-3.89-6.68"/>
      </g>
    </g>
  </g>
  <g id="Ugle04">
    <g>
      <rect class="cls-1" x="297.66" y="155.15" width="99.25" height="155.65"/>
      <g>
        <path class="cls-2" d="M341.25,267.22c-1.68.84-2.59,2.67-3.31,4.41a62.13,62.13,0,0,0-4.6,20,6.15,6.15,0,0,1-.24,1.64c-.52,1.5-2.09,2.3-3.4,3.2s-2.56,2.46-2,3.93a17.11,17.11,0,0,1,4.24-4.69,14.71,14.71,0,0,0,1,3.68,8.69,8.69,0,0,1,.85-4.24,10,10,0,0,0,3.69,3.62c-1.63-2.16-2.5-4.55-3.9-6.67"/>
        <path class="cls-6" d="M320.87,188.36c.38-1.78-1-2.76-2.05-5.05-3.25-7.17,1.81-16.64,1.55-16.09a123,123,0,0,1-6.87,12.68,22.14,22.14,0,0,1,0-14.57,35.82,35.82,0,0,0-5.19,9.08A16.23,16.23,0,0,0,307,180.6a17,17,0,0,0,1.8,6.87c1.25,2.86,1.88,4.29,3.24,5C315.14,193.92,320.23,191.36,320.87,188.36Z"/>
        <path class="cls-6" d="M348.14,226c-.59,3.16-3.55,8.36-9.47,18.77-3.66,6.44-6.12,9.72-7.36,11.69-2.56,4.07-5.22,8.24-9.14,11a41.88,41.88,0,0,1,7.39-16.84c-5.9,2.15-7.29,10.69-13.09,13.08,2.11-6.55,4.25-13.19,8-19a87.81,87.81,0,0,0-17.12,17.52c-1.27,1.72-2.9,3.7-5,3.47,15.73-21.12,21.6-39.34,23.93-52.6,1.56-8.9,1.68-16.4,5.2-17.29C337.34,194.42,350.83,211.62,348.14,226Z"/>
        <path class="cls-3" d="M310.69,185.54s56.43-14.42,78.21,0-44.78,90.78-44.78,90.78S298.27,198,310.69,185.54Z"/>
        <path class="cls-5" d="M332.86,219.24c0,3.67,0,7.41,1.08,10.93a39.12,39.12,0,0,1,2.29-8.19,9.44,9.44,0,0,0,.07,6.71q1.66-4.89,3.17-9.84a.31.31,0,0,0-.36-.46l-2.3.08c-1.53.05-3.2.15-4.36,1.16"/>
        <ellipse class="cls-7" cx="341.82" cy="205.63" rx="9.05" ry="15.8"/>
        <ellipse class="cls-7" cx="326.79" cy="210.23" rx="5.67" ry="14.57" transform="translate(-45.04 97.39) rotate(-15.87)"/>
        <path class="cls-6" d="M350.24,186.66c-.19-1.81,1.31-2.64,2.59-4.8,4-6.77,0-16.74.2-16.16A123,123,0,0,0,358.48,179,22.14,22.14,0,0,0,360,164.56a35.82,35.82,0,0,1,4.17,9.58,16.23,16.23,0,0,1,.65,6.3,17,17,0,0,1-2.53,6.64c-1.55,2.71-2.33,4.06-3.76,4.57C355.33,192.8,350.55,189.71,350.24,186.66Z"/>
        <circle cx="340.02" cy="217.14" r="1.84"/>
        <circle cx="327.97" cy="218.96" r="1.84"/>
        <path class="cls-6" d="M354.26,219.56c-.11,3.21,1.64,8.93,5.16,20.38,2.17,7.08,3.86,10.82,4.64,13,1.61,4.53,3.3,9.18,6.52,12.75a41.88,41.88,0,0,0-3.54-18c5.29,3.38,4.79,12,9.93,15.61-.63-6.85-1.28-13.8-3.7-20.24a87.81,87.81,0,0,1,12.9,20.82c.86,2,2,4.24,4.15,4.48-10.75-24-12.52-43.1-11.91-56.55.41-9,1.93-16.37-1.32-18C371.69,191,354.77,204.89,354.26,219.56Z"/>
        <path class="cls-2" d="M352,265c-1.49,1.15-2,3.12-2.4,5a62.13,62.13,0,0,0-.64,20.55,6.15,6.15,0,0,1,.08,1.66c-.22,1.57-1.61,2.66-2.72,3.79s-2,2.9-1.17,4.24a17.11,17.11,0,0,1,3.26-5.43,14.71,14.71,0,0,0,1.71,3.41,8.69,8.69,0,0,1,0-4.32,10,10,0,0,0,4.32,2.84c-2-1.8-3.33-4-5.12-5.79"/>
      </g>
    </g>
  </g>
  <g id="Ugle03">
    <g>
      <rect class="cls-1" x="198.31" y="155.15" width="99.25" height="155.65"/>
      <g>
        <path class="cls-2" d="M241.9,267.22c-1.68.84-2.59,2.67-3.31,4.41a62.13,62.13,0,0,0-4.6,20,6.15,6.15,0,0,1-.24,1.64c-.52,1.5-2.09,2.3-3.4,3.2s-2.56,2.46-2,3.93a17.11,17.11,0,0,1,4.24-4.69,14.71,14.71,0,0,0,1,3.68,8.69,8.69,0,0,1,.85-4.24,10,10,0,0,0,3.69,3.62c-1.63-2.16-2.5-4.55-3.9-6.67"/>
        <path class="cls-6" d="M220.51,186.66c0-1.82-1.55-2.5-3-4.53-4.63-6.36-1.6-16.67-1.74-16.07a123,123,0,0,1-4.16,13.81,22.14,22.14,0,0,1-2.91-14.27,35.82,35.82,0,0,0-3.24,9.94,16.23,16.23,0,0,0,0,6.33,17,17,0,0,0,3.15,6.37c1.8,2.55,2.71,3.82,4.18,4.19C216,193.27,220.5,189.73,220.51,186.66Z"/>
        <path class="cls-6" d="M250.28,225c-.4,3.19-3,8.56-8.33,19.3-3.27,6.65-5.53,10.07-6.65,12.11-2.31,4.21-4.72,8.54-8.47,11.55a41.88,41.88,0,0,1,6.37-17.26c-5.76,2.5-6.64,11.11-12.29,13.84,1.71-6.67,3.46-13.42,6.87-19.4a87.81,87.81,0,0,0-16,18.51c-1.16,1.79-2.67,3.86-4.8,3.76,14.44-22,19.21-40.56,20.75-53.94,1-9,.7-16.47,4.16-17.57C237.6,194.12,252.1,210.47,250.28,225Z"/>
        <path class="cls-3" d="M211.34,185.54s56.43-14.42,78.21,0-44.78,90.78-44.78,90.78S198.92,198,211.34,185.54Z"/>
        <path class="cls-5" d="M233.57,218.79c-.63,3.62-1.25,7.3-.82,11a39.12,39.12,0,0,1,3.66-7.67,9.44,9.44,0,0,0-1.08,6.62q2.48-4.53,4.81-9.15a.41.41,0,0,0,.06-.34c-.06-.12-.21-.15-.34-.17l-2.28-.32c-1.52-.21-3.18-.4-4.49.39"/>
        <ellipse class="cls-7" cx="242.47" cy="205.63" rx="9.05" ry="15.8"/>
        <ellipse class="cls-7" cx="227.44" cy="210.23" rx="5.67" ry="14.57" transform="matrix(0.96, -0.27, 0.27, 0.96, -48.82, 70.22)"/>
        <path class="cls-6" d="M251.71,185.1c.21-1.81,1.84-2.29,3.56-4.13,5.38-5.75,3.62-16.35,3.69-15.73a123,123,0,0,0,2.44,14.21A22.14,22.14,0,0,0,266,165.64a35.82,35.82,0,0,1,2,10.26,16.23,16.23,0,0,1-.73,6.29,17,17,0,0,1-3.9,5.93c-2.1,2.31-3.15,3.46-4.66,3.65C255.35,192.2,251.35,188.15,251.71,185.1Z"/>
        <circle cx="240.67" cy="214.6" r="1.84"/>
        <circle cx="231.35" cy="216.42" r="1.84"/>
        <path class="cls-6" d="M256.33,220.81c.08,3.21,2.18,8.82,6.39,20,2.6,6.94,4.51,10.57,5.42,12.7,1.89,4.42,3.86,9,7.29,12.33a41.88,41.88,0,0,0-4.63-17.8c5.48,3.05,5.51,11.71,10.86,15-1-6.8-2.12-13.7-4.93-20a87.81,87.81,0,0,1,14.14,20c1,1.9,2.28,4.11,4.41,4.22-12.2-23.34-15.12-42.25-15.33-55.72-.14-9,.93-16.46-2.41-17.9C272,191.28,255.95,206.13,256.33,220.81Z"/>
        <path class="cls-2" d="M252.67,265c-1.49,1.15-2,3.12-2.4,5a62.13,62.13,0,0,0-.64,20.55,6.15,6.15,0,0,1,.08,1.66c-.22,1.57-1.61,2.66-2.72,3.79s-2,2.9-1.17,4.24a17.11,17.11,0,0,1,3.26-5.43,14.71,14.71,0,0,0,1.71,3.41,8.69,8.69,0,0,1,0-4.32,10,10,0,0,0,4.32,2.84c-2-1.8-3.33-4-5.12-5.79"/>
      </g>
    </g>
  </g>
  <g id="Ugle02">
    <g>
      <rect class="cls-1" x="98.96" y="155.15" width="99.25" height="155.65"/>
      <g>
        <path class="cls-2" d="M143,267.55c-1.8.53-3,2.17-4,3.76a62.13,62.13,0,0,0-8.07,18.91,6.15,6.15,0,0,1-.53,1.58c-.77,1.39-2.46,1.89-3.91,2.55s-3,2-2.63,3.52a17.11,17.11,0,0,1,5-3.87,14.71,14.71,0,0,0,.35,3.8,8.69,8.69,0,0,1,1.58-4,10,10,0,0,0,3,4.22c-1.22-2.41-1.66-4.92-2.66-7.26"/>
        <path class="cls-6" d="M121.16,186.66c0-1.82-1.55-2.5-3-4.53-4.63-6.36-1.6-16.67-1.74-16.07a123,123,0,0,1-4.16,13.81,22.14,22.14,0,0,1-2.91-14.27,35.82,35.82,0,0,0-3.24,9.94,16.23,16.23,0,0,0,0,6.33,17,17,0,0,0,3.15,6.37c1.8,2.55,2.71,3.82,4.18,4.19C116.68,193.27,121.15,189.73,121.16,186.66Z"/>
        <path class="cls-6" d="M148,226.87c-.74,3.13-4,8.18-10.38,18.28-4,6.25-6.59,9.41-7.92,11.31-2.76,3.94-5.62,8-9.67,10.57a41.88,41.88,0,0,1,8.2-16.46c-6,1.86-7.8,10.32-13.72,12.42,2.42-6.44,4.9-13,8.94-18.53a87.81,87.81,0,0,0-18,16.66c-1.35,1.66-3.07,3.55-5.18,3.22C117.05,244,123.81,226.1,126.79,213c2-8.81,2.48-16.3,6-17C138.76,194.76,151.39,212.59,148,226.87Z"/>
        <path class="cls-3" d="M112,185.54s56.43-14.42,78.21,0-44.78,90.78-44.78,90.78S99.57,198,112,185.54Z"/>
        <path class="cls-5" d="M134.18,219c-.33,3.66-.65,7.38.08,11a39.12,39.12,0,0,1,3-7.95,9.44,9.44,0,0,0-.54,6.69q2.1-4.72,4-9.51a.41.41,0,0,0,0-.35c-.07-.11-.22-.13-.35-.14l-2.3-.13c-1.53-.09-3.2-.14-4.44.76"/>
        <ellipse class="cls-7" cx="143.12" cy="205.63" rx="9.05" ry="15.8"/>
        <ellipse class="cls-7" cx="128.09" cy="210.23" rx="5.67" ry="14.57" transform="matrix(0.96, -0.27, 0.27, 0.96, -52.61, 43.05)"/>
        <path class="cls-6" d="M152.36,185.1c.21-1.81,1.84-2.29,3.56-4.13,5.38-5.75,3.62-16.35,3.69-15.73a123,123,0,0,0,2.44,14.21,22.14,22.14,0,0,0,4.63-13.81,35.82,35.82,0,0,1,2,10.26,16.23,16.23,0,0,1-.73,6.29,17,17,0,0,1-3.9,5.93c-2.1,2.31-3.15,3.46-4.66,3.65C156,192.2,152,188.15,152.36,185.1Z"/>
        <circle cx="140.15" cy="212.66" r="1.84"/>
        <circle cx="128.1" cy="216.42" r="1.84"/>
        <path class="cls-6" d="M155.75,219.78c-.09,3.21,1.71,8.92,5.31,20.34,2.23,7.07,3.94,10.79,4.73,13,1.65,4.52,3.37,9.16,6.62,12.7a41.88,41.88,0,0,0-3.67-18c5.31,3.34,4.88,12,10,15.54-.68-6.85-1.38-13.79-3.85-20.21A87.81,87.81,0,0,1,188,263.83c.87,1.95,2.05,4.22,4.18,4.45-10.93-24-12.84-43-12.33-56.46.34-9,1.81-16.38-1.45-18C173,191.14,156.16,205.1,155.75,219.78Z"/>
        <path class="cls-2" d="M153.63,265.08c-1.56,1-2.25,3-2.75,4.78a62.13,62.13,0,0,0-2.11,20.45,6.15,6.15,0,0,1,0,1.66c-.33,1.55-1.79,2.54-3,3.59s-2.24,2.75-1.47,4.14a17.11,17.11,0,0,1,3.64-5.18,14.71,14.71,0,0,0,1.46,3.53,8.69,8.69,0,0,1,.32-4.31,10,10,0,0,0,4.11,3.15c-1.88-1.94-3-4.21-4.69-6.14"/>
      </g>
    </g>
  </g>
  <g id="Ugle01">
    <g>
      <rect class="cls-1" x="-0.49" y="155.15" width="99.25" height="155.65"/>
      <g>
        <path class="cls-2" d="M43.81,267.16c-1.7.87-2.61,2.71-3.31,4.46a61.14,61.14,0,0,0-4.41,20.1,6,6,0,0,1-.22,1.65c-.5,1.51-2.1,2.33-3.42,3.25s-2.57,2.49-2,4a17.22,17.22,0,0,1,4.26-4.75,14.5,14.5,0,0,0,1.09,3.67,8.55,8.55,0,0,1,.8-4.25,10.12,10.12,0,0,0,3.81,3.57c-1.69-2.14-2.61-4.51-4.07-6.62"/>
        <path class="cls-6" d="M22.1,186.66c0-1.82-1.58-2.5-3.09-4.53-4.72-6.36-1.63-16.67-1.78-16.07A121.28,121.28,0,0,1,13,179.87a21.8,21.8,0,0,1-3-14.27,35.35,35.35,0,0,0-3.3,9.94,15.93,15.93,0,0,0,0,6.33,16.9,16.9,0,0,0,3.21,6.37c1.84,2.55,2.76,3.82,4.26,4.19C17.54,193.27,22.08,189.73,22.1,186.66Z"/>
        <path class="cls-6" d="M52.3,225.07c-.41,3.19-3.1,8.56-8.49,19.3-3.34,6.65-5.64,10.07-6.77,12.1C34.67,260.69,32.22,265,28.4,268a41.4,41.4,0,0,1,6.49-17.25c-5.87,2.49-6.77,11.1-12.52,13.83,1.74-6.66,3.53-13.42,7-19.39A88.31,88.31,0,0,0,13,263.72c-1.18,1.79-2.72,3.86-4.9,3.76,14.72-22,19.59-40.55,21.16-53.93,1.05-9,.71-16.47,4.24-17.57C39.39,194.15,54.16,210.51,52.3,225.07Z"/>
        <path class="cls-3" d="M12.75,185.54s57.51-14.42,79.7,0-45.63,90.78-45.63,90.78S.1,198,12.75,185.54Z"/>
        <path class="cls-5" d="M35.34,219.15c-.1,3.67-.19,7.41.78,11A38.59,38.59,0,0,1,38.69,222a9.28,9.28,0,0,0-.12,6.71q1.84-4.84,3.51-9.74a.4.4,0,0,0,0-.35.42.42,0,0,0-.36-.12H39.37c-1.56,0-3.26.06-4.47,1"/>
        <ellipse class="cls-7" cx="44.48" cy="205.63" rx="9.22" ry="15.8"/>
        <path class="cls-7" d="M23.6,211.78c2.24,7.74,6.55,13.32,9.62,12.46s3.74-7.83,1.5-15.56-6.55-13.32-9.62-12.46S21.36,204,23.6,211.78Z"/>
        <path class="cls-6" d="M53.89,185.1c.22-1.81,1.88-2.29,3.63-4.13,5.48-5.75,3.69-16.35,3.76-15.73a120.9,120.9,0,0,0,2.49,14.21,21.87,21.87,0,0,0,4.71-13.81,35.23,35.23,0,0,1,2,10.26,15.94,15.94,0,0,1-.74,6.29,17,17,0,0,1-4,5.93c-2.14,2.31-3.21,3.46-4.75,3.65C57.6,192.2,53.53,188.15,53.89,185.1Z"/>
        <ellipse cx="40.26" cy="204.86" rx="1.88" ry="1.84"/>
        <ellipse cx="26.19" cy="210.38" rx="1.88" ry="1.84"/>
        <path class="cls-6" d="M55,217.56c-.47,3.18.67,9.06,2.95,20.82,1.41,7.28,2.7,11.18,3.25,13.44,1.13,4.68,2.32,9.49,5.18,13.39a41.14,41.14,0,0,0-1.57-18.33c5,3.94,3.51,12.47,8.32,16.61.13-6.88.24-13.86-1.49-20.53a87.1,87.1,0,0,1,10.74,22.11c.65,2,1.58,4.43,3.7,4.91-8.21-25.07-7.88-44.21-5.76-57.51,1.42-8.92,3.78-16.06.68-18C75.88,191.13,57.21,203,55,217.56Z"/>
        <path class="cls-2" d="M55.52,265.22c-1.7.87-2.61,2.71-3.31,4.46a61.14,61.14,0,0,0-4.41,20.1,6,6,0,0,1-.22,1.65c-.5,1.51-2.1,2.33-3.42,3.25s-2.57,2.49-2,4a17.22,17.22,0,0,1,4.26-4.75,14.5,14.5,0,0,0,1.09,3.67,8.55,8.55,0,0,1,.8-4.25,10.12,10.12,0,0,0,3.81,3.57c-1.69-2.14-2.61-4.51-4.07-6.62"/>
      </g>
    </g>
  </g>
  <g id="Ugle00">
    <g>
      <rect class="cls-1" x="-0.2" y="-0.5" width="99.25" height="155.65"/>
      <g>
        <path class="cls-2" d="M42.25,111.52c-1.7.87-2.61,2.71-3.31,4.46a61.14,61.14,0,0,0-4.41,20.1,6,6,0,0,1-.22,1.65c-.5,1.51-2.1,2.33-3.42,3.25s-2.57,2.49-2,4a17.22,17.22,0,0,1,4.26-4.75,14.5,14.5,0,0,0,1.09,3.67,8.55,8.55,0,0,1,.8-4.25,10.12,10.12,0,0,0,3.81,3.57c-1.69-2.14-2.61-4.51-4.07-6.62"/>
        <path class="cls-6" d="M20.55,31c0-1.82-1.58-2.5-3.09-4.53-4.72-6.36-1.63-16.67-1.78-16.07a121.28,121.28,0,0,1-4.24,13.81,21.8,21.8,0,0,1-3-14.27,35.35,35.35,0,0,0-3.3,9.94,15.93,15.93,0,0,0,0,6.33,16.9,16.9,0,0,0,3.21,6.37c1.84,2.55,2.76,3.82,4.26,4.19C16,37.62,20.53,34.08,20.55,31Z"/>
        <path class="cls-6" d="M50.74,69.42c-.41,3.19-3.1,8.56-8.49,19.3-3.34,6.65-5.64,10.07-6.77,12.1-2.36,4.21-4.81,8.54-8.63,11.55a41.4,41.4,0,0,1,6.49-17.25c-5.87,2.49-6.77,11.1-12.52,13.83,1.74-6.66,3.53-13.42,7-19.39a88.31,88.31,0,0,0-16.35,18.5c-1.18,1.79-2.72,3.86-4.9,3.76,14.72-22,19.59-40.55,21.16-53.93,1.05-9,.71-16.47,4.24-17.57C37.83,38.5,52.6,54.86,50.74,69.42Z"/>
        <path class="cls-3" d="M11.2,29.89s57.51-14.42,79.7,0-45.63,90.78-45.63,90.78S-1.46,42.32,11.2,29.89Z"/>
        <path class="cls-5" d="M33.78,63.5c-.1,3.67-.19,7.41.78,11a38.59,38.59,0,0,1,2.57-8.12A9.28,9.28,0,0,0,37,73q1.84-4.84,3.51-9.74a.4.4,0,0,0,0-.35.42.42,0,0,0-.36-.12H37.82c-1.56,0-3.26.06-4.47,1"/>
        <ellipse class="cls-7" cx="42.92" cy="49.98" rx="9.22" ry="15.8"/>
        <path class="cls-7" d="M22,56.14c2.24,7.74,6.55,13.32,9.62,12.46s3.74-7.83,1.5-15.56-6.55-13.32-9.62-12.46S19.8,48.4,22,56.14Z"/>
        <path class="cls-6" d="M52.33,29.45c.22-1.81,1.88-2.29,3.63-4.13C61.44,19.58,59.65,9,59.72,9.59A120.9,120.9,0,0,0,62.21,23.8,21.87,21.87,0,0,0,66.92,10a35.23,35.23,0,0,1,2,10.26,15.94,15.94,0,0,1-.74,6.29,17,17,0,0,1-4,5.93c-2.14,2.31-3.21,3.46-4.75,3.65C56,36.55,52,32.5,52.33,29.45Z"/>
        <ellipse cx="38.7" cy="49.22" rx="1.88" ry="1.84"/>
        <ellipse cx="24.64" cy="54.74" rx="1.88" ry="1.84"/>
        <path class="cls-6" d="M53.49,61.91c-.47,3.18.67,9.06,2.95,20.82,1.41,7.28,2.7,11.18,3.25,13.44,1.13,4.68,2.32,9.49,5.18,13.39A41.14,41.14,0,0,0,63.3,91.23c5,3.94,3.51,12.47,8.32,16.61.13-6.88.24-13.86-1.49-20.53a87.1,87.1,0,0,1,10.74,22.11c.65,2,1.58,4.43,3.7,4.91-8.21-25.07-7.88-44.21-5.76-57.51,1.42-8.92,3.78-16.06.68-18C74.33,35.48,55.65,47.38,53.49,61.91Z"/>
        <path class="cls-2" d="M54,109.57c-1.7.87-2.61,2.71-3.31,4.46a61.14,61.14,0,0,0-4.41,20.1,6,6,0,0,1-.22,1.65c-.5,1.51-2.1,2.33-3.42,3.25s-2.57,2.49-2,4a17.22,17.22,0,0,1,4.26-4.75A14.5,14.5,0,0,0,46,141.89a8.55,8.55,0,0,1,.8-4.25,10.12,10.12,0,0,0,3.81,3.57c-1.69-2.14-2.61-4.51-4.07-6.62"/>
      </g>
    </g>
  </g>
</svg>
