<svg xmlns="http://www.w3.org/2000/svg" viewBox="0 0 62 90.62"><defs><style>.cls-1,.cls-2{fill:#e6e6e6;}.cls-1{stroke:#666;}.cls-1,.cls-10,.cls-11,.cls-12,.cls-13,.cls-4{stroke-miterlimit:10;}.cls-1,.cls-10,.cls-11,.cls-12,.cls-13{stroke-width:0.25px;}.cls-10,.cls-3{fill:#ccc;}.cls-11,.cls-13,.cls-4{fill:none;}.cls-11,.cls-4{stroke:#000;}.cls-5{fill:#fff;}.cls-12,.cls-6{fill:#1a1a1a;}.cls-7{fill:#202020;}.cls-8{opacity:0.5;}.cls-9{fill:#ff7bac;}.cls-10{stroke:#999;}.cls-12,.cls-13{stroke:#1a1a1a;}</style></defs><title>Mus</title><g id="Layer_2" data-name="Layer 2"><g id="Layer_11" data-name="Layer 11"><path class="cls-1" d="M46.1,49.61a43.7,43.7,0,0,0,10.23,4.26,1.13,1.13,0,0,0,0,1.62,1.34,1.34,0,0,0,1.68.06,1.65,1.65,0,0,0,.57-1.64,2.56,2.56,0,0,0,2.85-.26,1.38,1.38,0,0,0,.43-.57,1.31,1.31,0,0,0-.73-1.49,3.81,3.81,0,0,0-1.77-.29c.33-.66.63-1.51.14-2.05a1.28,1.28,0,0,0-1.78.12,3.71,3.71,0,0,0-.8,1.8q-4.4-1.91-8.6-4.25"/><path class="cls-2" d="M20,74.66s-5.75-16-5.89-17.2-6.34-13.9-6.34-13.9S-1.63,26.14.25,31.65c2,5.77,12.15,19.21,13,29.56a23.72,23.72,0,0,0,7.87,15.88Z"/><path class="cls-2" d="M37.67,78.52c-.09-.2,1.62,8.45,4,8.84s2.44.59,4.36-.51-.15-3.55-.15-3.55-2.7,1-2.45,2.07-5.22-6.67-3.47-7.66S37.67,78.52,37.67,78.52Z"/><path class="cls-3" d="M48.4,45.2S51.15,37.53,54.7,36c2.91-1.22,2.67-8.22.16-11.23S42.47,19,40.64,17.34c-2.8-2.56-14.78-5.92-20.07,1.7-4.87,7-.23,16.52-.23,16.52S17.44,46.2,16,50C14.63,53.46,13,79.92,27.63,81.69S56.16,72.84,48.4,45.2Z"/><circle class="cls-4" cx="38.1" cy="26.12" r="6.61" transform="translate(11.45 63.85) rotate(-89.2)"/><circle class="cls-5" cx="38.1" cy="26.12" r="6.61" transform="translate(11.45 63.85) rotate(-89.2)"/><circle class="cls-6" cx="38.08" cy="27" r="4.4" transform="translate(10.56 64.7) rotate(-89.2)"/><path class="cls-7" d="M42.32,27.06s.07,0,.06,0l-.08,0Z"/><path class="cls-7" d="M42.46,26.79a.17.17,0,0,0-.19-.06c.08,0,0,.05.14.1a0,0,0,0,1-.05.06s0,.06,0,.08a.12.12,0,0,0,0-.18S42.45,26.79,42.46,26.79Z"/><path class="cls-7" d="M40.75,23.36v0Z"/><path class="cls-7" d="M38.45,22.45l0,0Z"/><path class="cls-7" d="M38,22.35h0Z"/><path class="cls-7" d="M40.75,23.36l0-.06S40.73,23.33,40.75,23.36Z"/><path class="cls-7" d="M42.21,26.29l0,0v0Z"/><path class="cls-7" d="M41.6,24.06v0h0Z"/><path class="cls-7" d="M42.1,24.76s-.07,0-.1,0a.07.07,0,0,1,.06,0Z"/><path class="cls-7" d="M42.46,26.06l0,0Z"/><path class="cls-7" d="M41.19,23.61v0Z"/><path class="cls-7" d="M42,27.93h0Z"/><polygon class="cls-7" points="42.51 27.06 42.51 27.07 42.55 27.08 42.51 27.06"/><path class="cls-7" d="M37.2,22.33h0S37.22,22.33,37.2,22.33Z"/><path class="cls-7" d="M33.48,27.93c0-.09.11.11.15,0C33.61,27.93,33.5,27.82,33.48,27.93Z"/><path class="cls-7" d="M42.22,26.27v0A.07.07,0,0,0,42.22,26.27Z"/><path class="cls-7" d="M33.63,27.91h0Z"/><path class="cls-7" d="M35.49,23.07h0Z"/><path class="cls-7" d="M36.78,22.58h0Z"/><path class="cls-7" d="M35,23.59s0,0,0,0h0S35,23.6,35,23.59Z"/><polygon class="cls-7" points="34.49 24.13 34.51 24.13 34.52 24.11 34.49 24.13"/><path class="cls-7" d="M41.18,29.7l.07,0S41.26,29.61,41.18,29.7Z"/><path class="cls-7" d="M42.25,26.28h0v0Z"/><path class="cls-7" d="M35.34,24l-.08.06Z"/><path class="cls-7" d="M36.89,30.94h0Z"/><path class="cls-7" d="M35.06,24.31H35v0Z"/><path class="cls-7" d="M41.25,29.72h0Z"/><path class="cls-7" d="M41.51,29.06c-.05.08.05.09.09.13s-.09,0-.15,0,0,.17,0,.21,0,0,0,0-.14.19-.13.32h0a.33.33,0,0,1,.11.07s0,.1-.07.07,0,0,0-.06v.05c-.09,0,0-.07,0-.11s-.07.22-.13.25.09-.14,0-.13l.1-.06c-.16,0,.05,0-.11-.08s-.07.15-.19.23.06,0,.06.1-.26-.05-.3.13.06.16-.06.18l0-.1c-.12.07,0,.16-.14.19,0,0,.07-.09,0-.09s0,.08-.08.13l-.06-.06c-.12.08-.22.23-.37.31s0-.06,0-.07a1.07,1.07,0,0,1-.61.18l0,.1s0,0,0,0,0,0,0,.08a0,0,0,0,1,0-.05c-.11.09-.35.23-.51.16l0,0c-.11,0-.11.17-.22.11l0,0c-.25,0-.52.06-.7-.07,0,.1-.23-.06-.27.08-.13-.1-.09-.12-.27-.19s-.09.07-.16.07l0-.08L37,31l0-.1h-.06a.06.06,0,0,1,0,.07c-.1,0-.21-.12-.19-.16l-.23,0s.06,0,.09,0c-.14,0,0-.08-.12-.05s0,0,0,.05a.4.4,0,0,0-.23-.14l0,0c-.14-.08-.31-.15-.47-.24a.07.07,0,0,1-.07.1l0-.08c-.06,0,0,.06-.07.07s0-.1.06-.1l-.08,0s0,0,.06,0-.06-.15-.16-.11v0l-.33-.25c-.05,0-.08,0-.16,0a1.49,1.49,0,0,0-.19-.33c-.09-.05-.06,0-.12,0s0-.15,0-.12a3.56,3.56,0,0,0-.28-.3s0,.06,0,.06,0-.09,0-.1h0c-.21-.15-.08-.55-.27-.66h0l-.13-.15c0-.09.06,0,.08,0-.18-.16-.07-.31-.18-.46.16-.16-.09-.45,0-.64h0s0-.06,0-.09,0,0-.06,0A2.19,2.19,0,0,1,34.21,26c0-.13-.2-.14-.05-.28l.07.07c0-.31.21-.54.27-.83,0,0,0,0,0,.06s.12-.18.08-.21,0,0,.08,0,0-.17.08-.16,0,0,0,0,.12-.14,0-.15c.09-.06.1-.18.19-.22s.15-.11.08-.2c.08.08.19-.07.21-.15s.07,0,.08,0,.09-.11,0-.15c.19,0,.16-.26.33-.17a2.14,2.14,0,0,1,.49-.44c0,.1-.2.12-.13.22.14-.14.21-.26.4-.33s0,.06,0,.08c.16-.12.35-.12.5-.23s0,0,0,0S37,23,37,23l0,0c-.08-.06.09-.18.09-.22,0,.16.18,0,.13.2a.07.07,0,0,0,0-.08s0,0,0,.07.06-.1.17-.11,0,0,0,.07a.22.22,0,0,1,.2-.1s0,0,0,0c.16,0,.27-.15.46-.11-.05.11.06,0,.07.13l.1,0,0,0c.08,0,.16-.06.24,0l-.07,0h.16l-.09,0c.09,0,0-.12.11-.08s.09,0,.13.07h0a.15.15,0,0,1,.16,0s0,.1,0,.12.2,0,.27-.06a.1.1,0,0,0,0,.07l0-.05s0,0,0,.08,0-.12.12,0l0,0c.13.06.28,0,.39.11s-.11,0-.1.07a1.68,1.68,0,0,1,.56.14l0,0c.08-.11.09.12.2.11s-.06,0,0,0a1.45,1.45,0,0,0,.42.18h0c0,.07.14.13.2.19s.07,0,.08,0c.06.3.43.24.46.52,0,0-.06,0,0,0l.15.12s0,0,0-.1a.17.17,0,0,1,.13.05c-.09,0-.07.06-.07.11l0,0c0,.14.1-.06.13.09h0s.1,0,.13.1-.06,0-.1,0,.2,0,.17.15-.06-.06-.09-.07a.19.19,0,0,0,0,.16h0l0,.13v0c.2,0,.13.14.28.21-.15-.07-.06,0-.14,0s0,.09,0,.09,0,.11.11.15,0,.06,0,.07,0,0,.06,0,0,.3.17.42.17.14.24.27-.1,0-.1,0a.25.25,0,0,0,0,.2s0,0-.06,0,.09,0,.07.1a.36.36,0,0,1-.1,0c0,.06.09.12.12.19s-.07,0-.1-.05.07.19.13.21l0-.05s-.06,0-.07,0,0-.1,0-.1l0,0c.13-.07-.05-.2-.06-.3l.11,0-.1-.09s.08-.05.1,0-.05-.06,0-.13h0l0-.06s.07,0,.06,0c0-.14-.13-.19-.06-.26h0c-.08-.17-.08,0-.2-.1l.15-.15h-.08s0-.06,0-.06,0,0-.09,0-.12-.22,0-.28c-.07,0,0,.1-.08,0,.11-.08-.07-.09,0-.19s.07.08.09,0,0-.16-.11-.21-.11-.11-.2-.2-.08-.21-.12-.32h0c-.09,0-.13-.07-.21-.12a.1.1,0,0,1,.12,0l-.05-.06a.13.13,0,0,1-.1,0l.07,0c-.07-.08-.2-.11-.26-.23,0,0-.05.2-.18.13,0,0,.06-.07.1-.06s-.05,0-.06,0h.08c0-.06-.06,0-.09,0s0,0,0-.07,0,0,0,0a.23.23,0,0,1-.05-.15s0,0-.08,0,0-.07,0-.13-.07-.06-.12,0,0,0,0-.07-.21-.15-.21,0h0c-.18-.05-.28-.24-.44-.3v0A.86.86,0,0,0,40,23s0-.07,0-.09a.28.28,0,0,1-.19-.08c.09,0,0,0,.09,0-.09-.06-.1-.1-.23-.08.06,0,0-.1-.1-.1l.05.07a.55.55,0,0,1-.14-.06l.05-.07c-.18-.16-.42.06-.54-.14-.07,0,.11.06,0,.12s-.17-.16-.21-.17-.14.1-.28,0c0,0,0,.11-.08.13s-.11-.13,0-.15,0,0,0,0,.08,0,0-.05l0,0s-.18,0-.15-.09,0,0,0,.07a1.28,1.28,0,0,0-.33,0s0,0,0,.05c-.19,0-.08.06-.21.08s0-.11-.11-.07,0-.08,0-.1-.23,0-.3,0l.06,0-.1,0,0,.05s-.07,0-.07,0,0,.09,0,.16-.14.05-.17,0c.16,0,0-.08.1-.11h-.09s0,0,0,0c-.16,0-.05.1-.2.14,0,0-.05-.07-.08-.06s0,.06,0,.11-.1.05-.15.06h.06s-.06.05-.12.09.05,0,0,0-.19,0-.27.06,0-.08-.08-.08-.15,0-.24.09c.06,0,.06,0,0,.11l.17-.13-.09.14c.06,0,.1-.09.14-.09s0,.05,0,.09c-.11,0-.13.12-.24.1l-.06-.13c-.17,0-.2.18-.38.25h.07c0,.06-.1.07-.14.12s-.06,0-.1-.05-.12.08-.07.17h-.11c-.14.07-.06.21-.18.3,0-.07-.07-.05,0-.15s-.08.06-.06.08-.06.14-.12.14,0,.07,0,.11l0,0s0,.08,0,.09c-.21,0-.28.3-.46.33l-.17.29s0,0,0,0,.07.15,0,.25,0-.09,0-.07-.08.17-.21.21v0c-.08,0,0,.2-.1.31h0a1,1,0,0,1,0,.4c0-.06,0-.06-.08-.06s.1,0,.08.13-.1.08-.17.07,0-.07,0-.1,0,.13-.07.18l0,0c0,.16.06.19,0,.35h0c.07.11-.07.07,0,.17h-.1a2.62,2.62,0,0,1,.06.34c-.07-.07-.08-.2-.11-.29s0,.21,0,.25,0-.06,0-.08a.45.45,0,0,1,.09.3c-.19,0-.07.31-.21.4.07.22,0,.44,0,.7.13-.12,0,.07.16,0s0,.08,0,.08l0,.19c0,.05,0,0-.08,0s0,.07-.07.17.09,0,.08.1l0-.12c.12.16-.08.19.06.34l-.07,0c.06.08.12.34.28.37,0,0,0,.06-.07,0,.07.22.34.39.37.58h0s.09,0,.1.09,0,0,0,0,.12.05.14.11h-.06c.09.21.28.21.43.33-.08.07,0,.23.06.3h0a1.71,1.71,0,0,0,.6.34c0,.19.38.33.56.5,0,0,0-.07.09-.06s.17,0,.12.09h0c0,.11.11.14.2.17l.06-.12c.15.28.6.13.68.32a1.49,1.49,0,0,0,.19,0l0,.07a1.36,1.36,0,0,0,.43.07l0,0c.11,0,.16-.19.26-.19l0,.11a.94.94,0,0,0,.57,0s0,0,0,.05.36,0,.31-.1c0,.09.2,0,.29-.08v.07c.07-.11.06-.13.17-.18s0,0,0,0,.06-.08.17-.07l0,.05c.1,0,.08,0,.12-.1a.17.17,0,0,1,.21,0,.11.11,0,0,1,.09-.11,0,0,0,0,1,0,.05c.17,0,.19-.17.32-.15l0,0-.21.08c0,.06.13,0,.08.14.06-.08.15-.24.25-.25h0a.08.08,0,0,0,.05,0l.08,0s.12,0,.17-.06,0-.08-.06-.1l0,0,0,0h0l-.11.07c0-.05,0-.1.11-.1v-.13c.11,0,.26,0,.31.06.11-.13.3-.24.28-.41s.06,0,.09,0,0,0,0,.07.19-.19.15-.27c.11,0,0,.11.11,0v0c.33-.13.16-.52.51-.67h-.05c.29-.27.35-.7.6-1,.06-.09,0-.12,0-.2h.08l-.05-.13c0-.17.26-.22.18-.45l-.05,0c0-.07,0-.23.06-.21s0,0,0-.05h0a1.3,1.3,0,0,0,0-.18c0-.13.15,0,.18-.17s-.1-.22-.13-.19,0,.08-.07.08l0-.07c-.12,0-.23-.06-.32.09l.06.11-.06,0v-.09c-.06,0,0,.08,0,.12a.09.09,0,0,0-.06,0l.1.12s-.08-.06-.12,0,.11,0,.13.05-.1,0-.07.09a0,0,0,0,1-.06,0c0,.06,0,.14,0,.18s0,.18-.13.15a.26.26,0,0,1,.05.16c-.1-.12-.06.18-.18.11.1.1,0,.24,0,.37s0,0,0,0-.07.06-.11.09.06.15.09.23c-.12,0-.08-.09-.17-.11.07,0,0,.16.08.17-.08,0,0,0-.13,0,.1.07,0,.06,0,.14s-.11,0-.13.06S41.51,29.06,41.51,29.06ZM40,30.77h0l0,0Zm-.18.09.08,0s0,0,0,.05S39.82,30.86,39.78,30.86Zm.62.23s0,0-.05,0l0,0h0A.1.1,0,0,1,40.4,31.09Z"/><path class="cls-7" d="M40.41,31h0v0Z"/><path class="cls-7" d="M40.77,23.38h0a0,0,0,0,1,0,0Z"/><polygon class="cls-7" points="37.11 30.96 37.1 30.98 37.13 30.97 37.11 30.96"/><path class="cls-7" d="M41.43,24.35a0,0,0,0,0,0,0Z"/><path class="cls-7" d="M41.69,24.75v.07A.32.32,0,0,0,41.69,24.75Z"/><path class="cls-7" d="M41.84,25.09h0Z"/><path class="cls-7" d="M36.93,23h0Z"/><path class="cls-7" d="M38.64,22.74l-.06,0S38.63,22.78,38.64,22.74Z"/><polygon class="cls-7" points="35.35 24.02 35.35 24.01 35.34 24.02 35.35 24.02"/><path class="cls-7" d="M38.5,22.76a.1.1,0,0,0,.08,0A.15.15,0,0,0,38.5,22.76Z"/><polygon class="cls-7" points="42.25 26.61 42.25 26.63 42.26 26.63 42.25 26.61"/><path class="cls-7" d="M42.26,26.63v0S42.27,26.63,42.26,26.63Z"/><path class="cls-7" d="M42.29,26.69l0,0S42.27,26.68,42.29,26.69Z"/><path class="cls-7" d="M42.21,26.13h0Z"/><path class="cls-7" d="M42.17,26s0,.1,0,.14h0S42.22,26,42.17,26Z"/><path class="cls-7" d="M42.27,25.28l0,.13s0-.07.07,0C42.38,25.21,42.32,25.45,42.27,25.28Z"/><path class="cls-7" d="M42.13,24.89c0,.06,0,0,0,0S42.13,24.83,42.13,24.89Z"/><path class="cls-7" d="M40,22.86l0-.05C40,22.79,40,22.83,40,22.86Z"/><path class="cls-7" d="M39.37,23l0,.05,0,0Z"/><polygon class="cls-7" points="39.17 22.44 39.2 22.44 39.1 22.43 39.17 22.44"/><path class="cls-7" d="M34.52,24l.07,0S34.54,23.92,34.52,24Z"/><path class="cls-7" d="M33.61,26a.08.08,0,0,0,0,.12S33.61,26,33.61,26Z"/><polygon class="cls-7" points="36.39 31.4 36.34 31.4 36.43 31.41 36.39 31.4"/><g class="cls-8"><path class="cls-9" d="M50.65,26.29l4.43-1.48s1.72,3.33-.72,4.17S50.65,26.29,50.65,26.29Z"/></g><path class="cls-10" d="M18.57,26.47S-.32,19.6,14.83,4.87s19,9.52,19,9.52"/><path class="cls-3" d="M33.49,14.67S33.53,2.21,45.91,8c10.39,4.86-.68,12-.7,11.95C40.94,18.24,37.48,16.12,33.49,14.67Z"/><path class="cls-11" d="M39,19.63a8,8,0,0,0-7.27,8.16"/><path class="cls-11" d="M31.51,26.65s-2.31-.6-2.89,0"/><path class="cls-11" d="M31.53,25.55s-2.31-.6-2.89,0"/><path class="cls-11" d="M31.63,24.92s-2-1.34-2.71-1"/><path class="cls-11" d="M37.85,32.84s-.07,1.13.24,1.35"/><path class="cls-11" d="M36.9,32.71s-.07,1.13.24,1.35"/><path class="cls-11" d="M36.38,32.49s-.45,1-.22,1.36"/><path class="cls-2" d="M27.88,79.5c0-.22-2.1,8.34-.14,9.69s2,1.57,4.17,1.38,1.37-3.28,1.37-3.28-2.86-.26-3.1.84-1.91-8.25.09-8.4S27.88,79.5,27.88,79.5Z"/><path class="cls-12" d="M54.24,29.1a8.52,8.52,0,0,1,.62,2.65"/><path class="cls-13" d="M50.64,26.79s-2.76,0-3.66,1.77"/><path class="cls-13" d="M50.79,27.24s-2.66.75-3.09,2.64"/><path class="cls-13" d="M50.72,27.71s-2.29,1.55-2.1,3.48"/><path class="cls-13" d="M56,26.71s2.76-.08,3.64-1.81"/><path class="cls-13" d="M55.89,26.26s2.65-.78,3.06-2.67"/><path class="cls-13" d="M55.73,25.79s2.27-1.58,2.06-3.5"/><path class="cls-1" d="M28.91,50.25a43.7,43.7,0,0,0,10.23,4.26,1.13,1.13,0,0,0,0,1.62,1.34,1.34,0,0,0,1.68.06,1.65,1.65,0,0,0,.57-1.64,2.56,2.56,0,0,0,2.85-.26,1.38,1.38,0,0,0,.43-.57,1.31,1.31,0,0,0-.73-1.49,3.81,3.81,0,0,0-1.77-.29c.33-.66.63-1.51.14-2.05a1.28,1.28,0,0,0-1.78.12,3.71,3.71,0,0,0-.8,1.8q-4.4-1.91-8.6-4.25"/></g></g></svg>
