<svg id="Layer_2" data-name="Layer 2" xmlns="http://www.w3.org/2000/svg" width="1440" height="900" viewBox="0 0 1440 900">
  <defs>
    <style>
      .cls-1 {
        fill: #6d3e17;
      }

      .cls-2 {
        fill: #442610;
      }
    </style>
  </defs>
  <title>Nut</title>
  <path class="cls-1" d="M637.5,199.5s-193,66-197,320,410,130,432,61S705.5,183.5,637.5,199.5Z"/>
  <path class="cls-2" d="M626.14,207.14c-10.72-7.74-7.66-14-1.5-19.37C655,161.47,747.86,111.5,914.11,272c207.65,200.49-37.59,331.71-44,335.52C822.05,636.19,904.74,408.28,626.14,207.14Z"/>
  <path class="cls-2" d="M844.42,233.74s86.2-97.42,117.68-69.8,26.52,73.6,26.52,73.6-88.5-10.86-89.86,24.78S844.42,233.74,844.42,233.74Z"/>
</svg>
