<svg xmlns="http://www.w3.org/2000/svg" viewBox="0 0 83.89 125.99"><defs><style>.cls-1{fill:#4d4d4d;}.cls-2{fill:#c2ecf2;}.cls-3{fill:#57b4f6;}.cls-4{fill:#ff931e;}.cls-5{fill:#fff;}</style></defs><title>Ugle</title><g id="Layer_2" data-name="Layer 2"><g id="Layer_10" data-name="Layer 10"><path class="cls-1" d="M35.66,95.07c-1.54.8-2.37,2.51-3,4.13a57.51,57.51,0,0,0-4,18.61,5.69,5.69,0,0,1-.2,1.52c-.46,1.4-1.91,2.15-3.1,3S23,124.63,23.57,126a15.84,15.84,0,0,1,3.87-4.4,13.62,13.62,0,0,0,1,3.39,8,8,0,0,1,.73-3.93,9.27,9.27,0,0,0,3.47,3.31c-1.53-2-2.37-4.18-3.7-6.13"/><path class="cls-2" d="M6.46,25.31A7,7,0,0,1,1.89,21.8,13.21,13.21,0,0,1,.37,16.11c-.16-2.3.11-4.84,1.75-6.45a40,40,0,0,0,6.31,3.72,8.81,8.81,0,0,1,3.71-10c-.19,5.27-.25,11,2.88,15.22"/><path class="cls-3" d="M14.89,18.74s.06,0,0-.09h-.1Z"/><path class="cls-3" d="M14.72,18.22c-.08-.05-.2-.1-.23,0s.1.07.24.1.05.13,0,.13.05.11.12.12a.4.4,0,0,0-.19-.31S14.7,18.22,14.72,18.22Z"/><path class="cls-3" d="M12.41,11.11v0A.16.16,0,0,0,12.41,11.11Z"/><path class="cls-3" d="M12.23,6.45s0,.05,0,.05S12.23,6.44,12.23,6.45Z"/><path class="cls-3" d="M12.33,5.65v0A.06.06,0,0,0,12.33,5.65Z"/><path class="cls-3" d="M12.41,11.11V11S12.41,11,12.41,11.11Z"/><path class="cls-3" d="M14,17.43l.05,0,0-.05Z"/><polygon class="cls-3" points="12.82 13.12 12.83 13.16 12.87 13.18 12.82 13.12"/><path class="cls-3" d="M13.24,14.63s-.08,0-.11,0a.11.11,0,0,1,.07.06Z"/><path class="cls-3" d="M14.07,17l0,0Z"/><path class="cls-3" d="M12.63,12l0,0Z"/><path class="cls-3" d="M4.9,24.39h0S4.91,24.39,4.9,24.39Z"/><path class="cls-3" d="M6.45,25.33h0v0Z"/><path class="cls-3" d="M12.46,4h0C12.46,4.12,12.46,4.08,12.46,4Z"/><path class="cls-3" d="M7.44,12.57c.11.12-.26,0-.08.13C7.35,12.66,7.59,12.69,7.44,12.57Z"/><path class="cls-3" d="M14,17.39l0-.06Z"/><polygon class="cls-3" points="7.35 12.69 7.35 12.69 7.37 12.71 7.35 12.69"/><path class="cls-3" d="M9.94,4.92h0Z"/><path class="cls-3" d="M12.23,3.11l-.07,0Z"/><path class="cls-3" d="M9.24,6.06a.19.19,0,0,0-.05.08h0A.1.1,0,0,1,9.24,6.06Z"/><polygon class="cls-3" points="8.6 7.29 8.62 7.27 8.63 7.23 8.6 7.29"/><path class="cls-3" d="M2.13,21.63a.23.23,0,0,1,0,.08S2.25,21.83,2.13,21.63Z"/><path class="cls-3" d="M14,17.41a0,0,0,0,1,0,0l0,0S14,17.42,14,17.41Z"/><path class="cls-3" d="M9.68,6.4l-.12.17Z"/><path class="cls-3" d="M.93,12.38v0A.08.08,0,0,0,.93,12.38Z"/><path class="cls-3" d="M9.28,7.12a.35.35,0,0,0-.1.08.08.08,0,0,0,0,0Z"/><path class="cls-3" d="M2.11,21.71h0Z"/><path class="cls-3" d="M3,22.73c-.12-.15-.13,0-.2,0-.17-.17,0-.13,0-.22s-.24-.14-.3-.24,0,0,0,0c-.15-.09-.26-.38-.43-.5a.06.06,0,0,1,0,0A.18.18,0,0,1,2,21.8c0-.08-.13-.12-.1-.18s0,0,.08.06l-.07-.07c0-.12.09.1.14.07a1.76,1.76,0,0,1-.32-.44c.06-.06.17.28.16.08l.07.21c0-.21.06.12.11-.08-.11-.26-.19-.26-.29-.53-.07,0-.05,0-.12,0-.25-.34.07-.38-.15-.61-.08-.05-.19,0-.21-.26l.12,0c-.08-.26-.18-.11-.21-.4.05,0,.1.2.1.15,0-.2-.09-.11-.14-.25l.07-.05c-.1-.28-.24-.58-.33-.9,0,0,.07.06.08,0a4.31,4.31,0,0,1-.16-1.28l-.09-.14s0-.07,0,0c0-.16,0,0-.08-.07s0-.12.06-.07a2.43,2.43,0,0,1-.15-1.07l0,.06c0-.23-.17-.25-.11-.46v0a4.87,4.87,0,0,1,.09-1.41c-.11-.08.09-.48-.05-.52a3.24,3.24,0,0,0,.23-.56c0-.1-.06-.17-.05-.3H.84l0-.19.11-.07v-.12s-.06.09-.08.08a.59.59,0,0,1,.22-.42c0-.15.05-.29.09-.44,0,0,0,.09,0,.15,0-.25.09,0,.1-.24,0,0,0,0,0,0a1.65,1.65,0,0,0,.25-.47l0,.05A6.07,6.07,0,0,1,2,10.24c-.1.09-.15,0-.09-.09l.09,0c0-.09-.09.07-.05-.08s.09,0,.09.07l0-.07s0,0,0,.07.06,0,.08,0v0l.55.34c0-.05.14,0,.25,0a5.15,5.15,0,0,0,.6.48c.18.08.08,0,.18,0s.21.21.07.17a6,6,0,0,0,.75.39s-.06-.08,0-.09.13.11.11.13h0c.45.16.85.72,1.24.78h0l.38.13c.15.1-.12,0,0,.09.42.11.58.33.92.42,0,.21,1.23.63,1.82,1l-.06,0c-.11-.23,0-.15,0-.26s0,.12-.07,0c-.11-.35-.19-.67-.28-1a3.22,3.22,0,0,1-.06-.38l0-.29a9.42,9.42,0,0,1,0-1.18c0-.28-.24-.17-.1-.52l.07.11a7.65,7.65,0,0,1,.2-1.73s0,0,0,.1a.64.64,0,0,0,.07-.44c0-.08,0,0,.09-.05s0-.31.1-.35,0,0,0,.06S9,7.68,9,7.73c.11-.18.12-.39.23-.53s.2-.31.12-.39c.09.06.25-.29.28-.42,0,.06.09-.08.1,0,.08-.13.13-.26.07-.27.26-.16.25-.53.47-.55a5.93,5.93,0,0,1,.78-1c.07.09-.32.32-.22.39a2.84,2.84,0,0,1,.66-.75c.09-.05,0,.07,0,.11l.2-.19L11.71,4a2.19,2.19,0,0,0,.17-.14l0,0s0,.09,0,0h0c.08-.23.16-.09.2-.1-.15.1,0,.3-.23.36,0,0,0,0,.07,0s0,.07-.07.06.08,0,.08.18c0,0,0,0-.06,0a.59.59,0,0,1,.07.4s0,0,0,0a5.56,5.56,0,0,1,.06.93c-.11-.11,0,.12-.13.14l0,.2,0-.08a2.75,2.75,0,0,1,0,.47l0-.13,0,.32,0-.18c0,.17.12,0,.09.21,0,0,0,.17-.06.26h0a.53.53,0,0,1,0,.3s-.1,0-.12,0,0,.4.11.51a.06.06,0,0,0-.08,0l.07.07c0,.08,0,.09-.07.08,0,.24.12-.08.07.21,0,0,0,0,0-.06,0,.29.05.55,0,.81-.09.08,0-.23-.11-.14,0,.38.14.78.16,1.14V9.69c.14,0,0,.28,0,.46,0,0-.08-.05-.06,0a3.91,3.91,0,0,0,.16.88l0,0a5.27,5.27,0,0,0,0,.55s0,.13.09.07c-.12.52.24.91.18,1.37,0-.05-.05-.12,0-.08l.11.36c.05,0,0-.06.05-.14a.48.48,0,0,1,.11.23c-.07-.16-.09,0-.11.1s0,0,.06,0c-.05.21.12,0,.12.28h0a1.21,1.21,0,0,1,.12.28c-.05.06-.06-.09-.11-.09s.2.25.17.4c0-.06-.06-.15-.09-.2a.5.5,0,0,0,0,.29h0l0,.25v-.07c.22.13.15.36.33.56-.18-.2-.07,0-.15,0s0,.17,0,.15,0,.21.17.33c0,0,0,.12,0,.12s0-.05.06,0c.17.19.1.57.37.84s.27.26.42.49-.11,0-.11,0a.74.74,0,0,0,.19.36s0,0,0,.07.12,0,.16.17a.39.39,0,0,1-.14-.05l.28.31c0,.05-.1,0-.15-.07.09.13.24.33.33.33l0-.1s0,.06-.07,0-.08-.18-.07-.2l.06.08c.07-.16-.22-.33-.31-.51l.13,0-.18-.13c0-.05,0-.1.1,0,0-.15-.09-.09-.1-.22s0,0,0,0L14,16.87s.06-.05.08,0c-.05-.25-.24-.33-.21-.44v0c-.18-.3-.08,0-.28-.19l.1-.23H13.6s0-.1,0-.1,0,0-.1,0-.2-.43-.1-.51c-.08,0,0,.17-.09,0,.11-.09-.1-.19-.09-.36.08,0,.09.18.1,0s-.07-.3-.13-.41-.13-.26-.22-.46a4.62,4.62,0,0,0-.08-.62h0c-.1,0-.14-.22-.19-.37s.08,0,.12.09l0-.14a.29.29,0,0,1-.09-.16l.07,0a2.57,2.57,0,0,1-.16-.62c-.07,0-.14.23-.23,0,0,0,.09,0,.12,0a.23.23,0,0,1,0-.12l.07.09c0-.12-.06,0-.07-.14s0-.07.06-.07,0,.08,0,.11a.58.58,0,0,1,0-.27s-.07,0-.08-.06,0-.07.06-.19,0-.17-.1-.16,0-.07,0-.1-.07-.46-.13-.34v0h0a6.14,6.14,0,0,1-.1-1h0a3.51,3.51,0,0,0-.11-.56c0-.06,0-.14.07-.12a.75.75,0,0,1,0-.38c.05.15,0-.05,0,.15a.76.76,0,0,0,0-.44c.07.07.07-.15,0-.24l0,.14a1.84,1.84,0,0,1,0-.28l.09,0c.09-.4-.19-.71,0-1-.06-.1,0,.21-.11.12a2.14,2.14,0,0,1,.13-.43c0-.25-.12-.23-.09-.49,0,0-.11.06-.14-.13s.13-.22.15-.11,0,.06,0,.06,0,.14.06.06l0,0c0-.09,0-.34.08-.28,0-.14,0-.06-.06,0,0-.23,0-.36,0-.6,0,0-.05.07-.05,0,0-.35-.05-.16-.06-.4s.11.05.08-.19.08,0,.1,0a1.26,1.26,0,0,1,.06-.53l0,.12a.83.83,0,0,1,0-.18l-.06.06c0-.07,0-.12,0-.12s-.1.05-.15-.09,0-.36.06-.44c0,.43.08-.09.08.29a1.31,1.31,0,0,1,0-.28s0,0,0,0c.08-.5-.08-.16-.07-.57,0,0,.09-.21.08-.27,0,.19-.08.18-.11.08a.72.72,0,0,0,0-.26s-.09.08-.14.09.1-.07.1,0a3.82,3.82,0,0,1-.32.25s.15-.13.1-.12c-.19.22-.35.14-.61.37-.12,0,0-.07-.16,0-.2.23-.25.12-.41.32.09,0,.09,0,0,.13l.28-.28L11.07,4c.09-.07.17-.18.23-.22s-.06.09,0,.1c-.18,0-.21.24-.39.31l-.09-.11c-.25.15-.31.39-.59.63l.1-.07c0,.08-.14.17-.2.28s-.09,0-.15,0-.18.2-.12.29l-.15.09c-.19.22-.09.35-.26.57,0-.1-.1,0,0-.19-.06.07-.11.14-.08.16s-.08.26-.16.3,0,.08,0,.17,0,0,0,0-.06.16,0,.11c-.27.18-.37.7-.57.88s-.15.42-.2.6c0,0,0,0,0,0-.12.23.09.19-.05.45s0-.16-.05-.08-.09.34-.22.51v0c-.08.13,0,.37-.08.6,0,0,0,0,0,0A3.26,3.26,0,0,1,8,10C8,9.9,8,9.87,7.93,9.91s.11,0,.11.19-.08.21-.15.23v-.2c-.1.09,0,.26,0,.36l0,0c0,.31.11.31.1.64l0,0c.1.17-.06.15,0,.32l-.09.06c0,.12.13.4.17.6a2,2,0,0,1-.2-.5,1.24,1.24,0,0,0,.1.45.32.32,0,0,1,0-.15,1.46,1.46,0,0,1,.2.54c-.19.05.05.5-.12.39,0,0,.07.12,0,.12l-.11-.07-.11-.08a.71.71,0,0,0-.15-.09c.08.21-.12-.06-.17.09-.1,0-.14-.06-.14-.07l-.25-.23c0-.08.11,0,.11,0-.2-.12-.06-.1-.18-.21,0,.06-.11,0-.22-.05l.13.15c-.33-.09-.19-.25-.52-.34h.12c-.16-.06-.55-.31-.76-.28,0,0,0-.09,0-.06a7.67,7.67,0,0,1-1.09-.58l0,0c-.07,0-.15,0-.21-.09s0,0,0,0a.72.72,0,0,1-.28-.12h.1c-.31-.25-.57-.24-.87-.41.06-.09-.18-.29-.3-.4h0a3.59,3.59,0,0,0-.54-.32l-.37-.2c-.12,0-.25-.24-.35,0a4.26,4.26,0,0,0-1,1.17c.05-.05.07.05,0,.13s-.07.29-.15.23l0,0c-.12,0-.2.24-.26.4l.11.08c-.36.35-.29,1.12-.49,1.31,0,.11,0,.24,0,.35l-.07,0a3.92,3.92,0,0,0-.11.8l0-.08c0,.21.18.27.17.46l-.11.05a3.16,3.16,0,0,0,0,1.06s0,0-.05-.07c0,.17,0,.65.1.58-.1,0,0,.36.07.55l-.07,0a.73.73,0,0,1,.17.37c0,.05-.05.05,0,0,0,.18.08.13.07.35L.25,17a.33.33,0,0,0,.1.26c0,.11,0,.34,0,.38a.26.26,0,0,1,.11.22s0,0-.05,0c0,.31.16.43.13.65a.05.05,0,0,0,0,0,3.3,3.3,0,0,1-.07-.41c-.06,0,0,.21-.15.07a1.78,1.78,0,0,1,.24.58l0,0v0a.28.28,0,0,0,0,.12.92.92,0,0,0,0,.16s0,.23.05.32.09.1.11,0,0,0,0-.08l0,0h0L.58,19a.33.33,0,0,1,.09.25l.14.1c-.06.15,0,.42-.08.47.13.27.25.66.45.79s0,.1,0,.14-.05-.1-.08-.11c.09.15.21.46.31.46.05.21-.13-.07,0,.19l0,0c.13.59.63.72.84,1.34,0,0,0-.06,0-.08a10.55,10.55,0,0,0,1.48,1.66c.15.15.2.11.33.15v.09l.23,0c.28.11.35.44.76.51l0-.07c.12.07.41.15.37.2s.06,0,.1,0v0l.34.05c.24.1-.09.14.29.26.15,0,.43,0,.38-.06s-.14-.06-.13-.1h.13c0-.11.16-.21-.12-.35l-.22,0,0-.07.17,0a.23.23,0,0,0-.23,0,.13.13,0,0,0-.06-.08l-.23,0c0-.05.12-.05,0-.12s.05.13-.11.1,0-.11-.16-.12,0,0,.07,0c-.11,0-.26-.1-.33-.06s-.32-.15-.26-.24a.69.69,0,0,1-.29-.06c.22,0-.3-.2-.18-.3-.18,0-.41-.23-.63-.33,0,0,0,0,.06,0a.75.75,0,0,1-.15-.21c-.08.06-.24-.06-.37-.09s.15,0,.18-.11c-.05.06-.25-.14-.26-.06,0-.13-.05-.09,0-.2-.1.07-.09-.07-.21-.1s.05-.11-.1-.23S3,22.73,3,22.73ZM.9,18.64h0l0,.09Zm-.08-.39s0,.11,0,.17,0,0-.06,0S.81,18.31.82,18.25Zm-.29.94c0-.06,0-.09,0-.1l0,.11h0Z"/><path class="cls-3" d="M.65,19.28v0l0,0Z"/><path class="cls-3" d="M12.41,11.17h0v0Z"/><polygon class="cls-3" points="0.86 12.81 0.84 12.8 0.85 12.84 0.86 12.81"/><path class="cls-3" d="M12.55,13.4a.05.05,0,0,0,0,0Z"/><path class="cls-3" d="M12.78,14.34l0,.14A1.13,1.13,0,0,0,12.78,14.34Z"/><path class="cls-3" d="M13,15.06h0Z"/><path class="cls-3" d="M11.84,3.95h0Z"/><path class="cls-3" d="M12,6.87a.9.9,0,0,1,0-.11C11.92,6.82,11.92,6.87,12,6.87Z"/><polygon class="cls-3" points="9.69 6.38 9.69 6.38 9.68 6.4 9.69 6.38"/><path class="cls-3" d="M11.93,6.59a.38.38,0,0,0,0,.16A.58.58,0,0,0,11.93,6.59Z"/><polygon class="cls-3" points="14.33 18.01 14.34 18.04 14.36 18.04 14.33 18.01"/><path class="cls-3" d="M14.36,18l0,0Z"/><path class="cls-3" d="M14.45,18.13l-.06-.06S14.42,18.12,14.45,18.13Z"/><path class="cls-3" d="M13.86,17.13h0Z"/><path class="cls-3" d="M13.72,16.87a.88.88,0,0,0,.09.27h0C13.77,17.11,13.79,16.91,13.72,16.87Z"/><path class="cls-3" d="M13.5,15.6l.07.24c0-.05,0-.12.07,0C13.61,15.51,13.61,15.91,13.5,15.6Z"/><path class="cls-3" d="M13.28,14.87c.05.12,0,0,.05,0S13.27,14.77,13.28,14.87Z"/><path class="cls-3" d="M12.3,9.44h.06C12.35,9.35,12.34,9.45,12.3,9.44Z"/><polygon class="cls-3" points="11.92 8.39 11.88 8.49 11.95 8.54 11.92 8.39"/><polygon class="cls-3" points="12.36 7.75 12.37 7.79 12.34 7.62 12.36 7.75"/><path class="cls-3" d="M8.64,7h.08C8.74,7,8.66,6.92,8.64,7Z"/><path class="cls-3" d="M7.87,11.07a.24.24,0,0,0,0,.23A2.22,2.22,0,0,0,7.87,11.07Z"/><polygon class="cls-3" points="0.55 11.61 0.55 11.52 0.51 11.67 0.55 11.61"/><path class="cls-2" d="M7.44,19.51s52.24-13.34,72.4,0-41.45,84-41.45,84S-4.06,31,7.44,19.51Z"/><path class="cls-4" d="M28,50.62a35.27,35.27,0,0,0,.71,10.14A36.22,36.22,0,0,1,31,53.24a8.74,8.74,0,0,0-.11,6.21q1.67-4.48,3.19-9a.28.28,0,0,0-.32-.43H31.62a6.33,6.33,0,0,0-4.06,1"/><ellipse class="cls-5" cx="36.26" cy="38.1" rx="8.38" ry="14.62"/><ellipse class="cls-5" cx="22.35" cy="42.36" rx="5.25" ry="13.49" transform="translate(-10.73 7.73) rotate(-15.87)"/><path class="cls-2" d="M44.81,19.1c1.68-.45,2.59-2.23,3.3-3.82,2-4.63,4.13-9.56,3.42-14.56a113.85,113.85,0,0,0,2.26,13.16A20.5,20.5,0,0,0,58.07,1.08a33.16,33.16,0,0,1,1.86,9.5,15,15,0,0,1-.67,5.82,18.45,18.45,0,0,1-3.61,5.49c-1.25,1.47-4.06,3.63-4.31,3.38"/><path class="cls-3" d="M51.36,25.24l.08-.08h0a0,0,0,0,0,0,0h0l0,0h0l0,0h0a.49.49,0,0,0,0-.1l0,0S51.44,25.19,51.36,25.24Z"/><path class="cls-3" d="M52,25c.09-.1.17-.24.06-.26-.06.13-.1.12-.17.27s-.18.07-.17,0-.15.05-.18.12A.59.59,0,0,0,52,25S52,25,52,25Z"/><path class="cls-3" d="M59.07,17.15l0,.06Z"/><path class="cls-3" d="M60.08,10.62c0,.05,0,.07,0,.07S60.09,10.6,60.08,10.62Z"/><path class="cls-3" d="M60.1,9.48v.07A.12.12,0,0,0,60.1,9.48Z"/><path class="cls-3" d="M59.07,17.15l.09-.15S59.11,17.07,59.07,17.15Z"/><path class="cls-3" d="M53.06,24l-.06.08.06-.06Z"/><path class="cls-3" d="M57.63,19.71l0,0a.27.27,0,0,0,0,.06Z"/><path class="cls-3" d="M56.24,21.48s0-.1,0-.13a.18.18,0,0,1,0,.12Z"/><path class="cls-3" d="M53.62,23.91l0,0Z"/><path class="cls-3" d="M58.53,18.37h0Z"/><path class="cls-3" d="M47.12,17.78h0S47.11,17.8,47.12,17.78Z"/><path class="cls-3" d="M44.8,19.08h0a.15.15,0,0,0,0,0Z"/><path class="cls-3" d="M60,7.39h0C60,7.46,60,7.43,60,7.39Z"/><path class="cls-3" d="M54.32,12.63c.17-.14-.13.33.11.11C54.39,12.74,54.5,12.43,54.32,12.63Z"/><path class="cls-3" d="M53.11,24l.07-.06Z"/><path class="cls-3" d="M54.43,12.73h0l0,0Z"/><path class="cls-3" d="M58.91,2.71a.14.14,0,0,0,0,.06S58.9,2.75,58.91,2.71Z"/><path class="cls-3" d="M59.63,6.21V6.12A.58.58,0,0,0,59.63,6.21Z"/><path class="cls-3" d="M57.86,1.13a.35.35,0,0,0,0,.13v0A.18.18,0,0,1,57.86,1.13Z"/><polygon class="cls-3" points="57.8 3.03 57.81 2.99 57.81 2.93 57.8 3.03"/><path class="cls-3" d="M49.64,12.46l-.09.06C49.6,12.5,49.51,12.77,49.64,12.46Z"/><path class="cls-3" d="M53.08,24a.07.07,0,0,1,0-.06l0,0S53.07,24,53.08,24Z"/><path class="cls-3" d="M58.42,1.2v.31C58.41,1.43,58.42,1.31,58.42,1.2Z"/><path class="cls-3" d="M51.45,2.52l0-.07A.16.16,0,0,0,51.45,2.52Z"/><path class="cls-3" d="M58.39,2.43a.68.68,0,0,0-.06.17l0,0Z"/><path class="cls-3" d="M49.55,12.51h0Z"/><path class="cls-3" d="M48.91,14.43c.12-.27,0-.16-.05-.24.11-.33.13-.12.22-.21s.05-.39.12-.54,0,0,0,0c0-.24.26-.63.28-.91l0,0a.13.13,0,0,1-.13,0c0-.12,0-.25.11-.27a.17.17,0,0,0,0,.13l0-.14c.13-.08,0,.18,0,.21a4.8,4.8,0,0,1,.22-.75c.1,0-.15.45,0,.23l-.15.28c.22-.17-.08.17.14,0,.18-.38.13-.45.31-.83,0-.1-.08,0-.09-.1.13-.58.36-.36.41-.81a.49.49,0,0,1,.06-.47l.06.13c.14-.38-.06-.26.14-.64,0,.08-.07.31,0,.26.16-.24,0-.2.08-.4l.09,0c.12-.41.2-.89.31-1.35,0,0,0,.12.08,0,.12-.59.33-1.25.49-1.81l0-.23c0-.05,0-.09.05,0,.07-.22,0,0-.05-.13s.07-.16.08-.08a8.84,8.84,0,0,1,.14-1.56l0,.08c.05-.33-.12-.38,0-.68v.06c.07-.71,0-1.5,0-2.05-.12-.09,0-.71-.18-.74a1,1,0,0,1,0-.13l-.42.05a3.63,3.63,0,0,0,0,.74c0,.15.12.21.16.4h-.08l.11.24-.07.15,0,.17c0-.07,0-.15,0-.14a1.34,1.34,0,0,1,0,.68l.15.64s-.06-.12-.09-.2c.13.33-.07.07,0,.38,0,0,0,0,.07,0a2.84,2.84,0,0,0,.08.78l-.06,0c.06.48.18,1,.26,1.54,0-.2.09-.17.13,0L52,6.17c.07.09,0-.17.1,0s-.07.15-.11,0l.07.24s0,0-.08,0,0,.43.1.56l0,0c.09.53.16.77.24,1.21.07,0,.09.17.17.29a10.38,10.38,0,0,0,.13,1.07c.09.26.07.07.14.18s0,.41-.06.22c.1.46.13.59.3,1.16,0-.07,0-.14,0-.11s0,.24,0,.24v0a4.58,4.58,0,0,1,.19,1.07c0,.18,0,.36.07.53a2.27,2.27,0,0,0,.05.23,3.37,3.37,0,0,0,.11.34l0,0,.25.8c.09.42-.08-.15,0,.23l.05.15v0l0,0,.05-.08.2-.29.35-.47c.1-.13.25-.32.31-.41a2.44,2.44,0,0,0,.18-.3c.38-.21.73-1.15,1.07-1.54h-.05c0-.14.1-.13.16-.21s-.11.11-.09,0c.49-1,1.08-2.07,1.5-3.16.15-.4-.14-.3.12-.78l0,.17A22.59,22.59,0,0,0,58,5c0,.05,0,.06,0,.14a1.11,1.11,0,0,0,.07-.66c0-.13,0,0,.08-.1s0-.45.06-.54,0,.05,0,.08c0-.12.07-.54,0-.43.06-.31,0-.6.08-.85s.06-.54,0-.59c.12,0,.1-.55,0-.75,0,.07,0-.17.08-.1V1.08l-.68.12c.07.17.13.3.17.26,0,.43.36.75.26,1a17.53,17.53,0,0,1,.62,1.76c-.11,0-.17-.63-.28-.58A7.3,7.3,0,0,1,59,5c0,.14-.07-.07-.1-.11.17.54.21,1.06.36,1.54,0,0,0-.05,0-.1s0,.23.07.21l0-.09c0-.17.22.36.26.37-.17-.14,0,.5-.18.26,0,.06.06.14.09.12s0,.13-.06,0c.08.34.12.21.16.53,0,0,0-.06-.08-.09a1.4,1.4,0,0,1,.15.58s0,0,0-.06a7.72,7.72,0,0,1,.21,1.29c-.12-.14,0,.18-.11.21l0,.27,0-.11a4.86,4.86,0,0,1,.07.66l0-.18,0,.45,0-.26c.06.24.12,0,.1.29a2.17,2.17,0,0,1,0,.37h0a1,1,0,0,1,0,.42s-.1,0-.12,0,0,.56.1.71c0-.05-.07-.05-.08,0l.06.1c0,.11,0,.13-.07.11,0,.33.12-.1.06.29,0,0,0,0,0-.08,0,.4,0,.77-.08,1.13-.11.1,0-.32-.08-.21a8.1,8.1,0,0,1-.18,1.58l0-.09c.11.1-.15.35-.16.61,0-.06,0-.1,0-.08-.12.33-.18.68-.34,1.19v-.07c-.11.18-.23.49-.35.68s-.06.18,0,.14c-.48.51-.56,1.19-1,1.61,0-.06.07-.16,0-.11l-.27.44c.07,0,.07,0,.17-.1a.83.83,0,0,1-.15.31c.11-.21-.08-.05-.16,0s0,0,0,0c-.24.16.07.11-.22.36v0a2.09,2.09,0,0,1-.22.36c-.09,0,.07-.14,0-.18-.13.17-.16.4-.33.51l.17-.26a.93.93,0,0,0-.3.25h0l-.25.25.07-.06c0,.31-.32.43-.46.78.14-.33,0-.08-.05-.15s-.18.15-.17.1c-.07.16-.21.17-.31.4,0,0-.12.13-.14.06-.14.17.07,0,.08,0-.17.3-.62.48-.9.89s-.28.42-.56.7c-.13.05,0-.14,0-.14a1.84,1.84,0,0,0-.44.36s0,0-.09,0,0,.14-.22.24a.55.55,0,0,1,.07-.17c-.13.13-.25.28-.4.41s.06-.12.09-.18c-.16.15-.43.36-.45.45l.13-.06c-.06,0-.07,0,0-.07s.23-.14.25-.12l-.1.09c.2,0,.44-.35.66-.51l0,.15L53.3,24c.06,0,.13,0,0,.1.19-.08.12-.14.28-.21s0,0,0,0l.13-.15s.07,0,0,.1c.31-.18.38-.43.53-.46l0,0c.34-.35,0-.09.2-.4l.31,0,0-.09s.12-.1.12-.06c.1-.17,0,0,0-.11.22-.12.45-.5.57-.45s-.19.14,0-.08c.15,0,.19-.24.37-.37,0,.1-.16.23,0,.1,0-.18.3-.31.4-.47-.06-.07.23-.34.41-.6a7,7,0,0,0,.61-.64v0c0-.1.16-.33.27-.52,0,0,0,.08,0,.19l.12-.17a.57.57,0,0,1,.1-.23l0,.08a7.87,7.87,0,0,1,.48-.78c0-.05-.3.14-.14-.2,0,0,.09,0,.05.12a.53.53,0,0,1,.08-.16l0,.16c.11-.12,0-.1.08-.2s.08-.06.1,0-.08.09-.09.14a1.11,1.11,0,0,1,.26-.29s-.06,0,0-.13.1-.05.2-.18.12-.22.05-.25.08-.07.11-.09.28-.61.14-.5l0,0v0h0c.13-.45.41-.88.52-1.34h0a4.26,4.26,0,0,0,.14-.81c0-.08.08-.18.11-.14a1.88,1.88,0,0,1,.09-.54c0,.22,0-.07,0,.22A1.39,1.39,0,0,0,60,14c.05.11.11-.2.1-.33l-.07.19c0-.15,0-.28,0-.41l.08.08c.15-.56-.1-1,.07-1.45-.05-.15,0,.31-.11.17a6.06,6.06,0,0,1,.14-.61c0-.36-.13-.33-.1-.7,0,0-.1.1-.14-.18s.11-.32.14-.16,0,.09,0,.09,0,.19.06.09l0,0c0-.13,0-.49.06-.4,0-.19-.05-.08-.06.06,0-.33,0-.52,0-.86,0,.06,0,.11,0,.05,0-.5-.07-.22-.12-.55s.11.06,0-.28.07-.05.11,0a2.69,2.69,0,0,1,0-.76l0,.16a2,2,0,0,1,0-.26L60,8c0-.1,0-.18,0-.18s-.09.09-.17-.1-.08-.38,0-.44c0,.4.07-.06.13.28a1.12,1.12,0,0,1,0-.24s0,0,0,0c0-.39-.11-.16-.17-.56.05,0,.07-.11,0-.17,0,.16-.06.09-.12-.05a1.36,1.36,0,0,0-.09-.4v.15c-.05,0-.07-.17-.12-.34,0,0,.05.16.06.09s0-.46-.11-.72.08,0,.08-.14c-.12-.29,0-.34-.13-.65,0,.11,0,.12-.13-.09l.16.52-.16-.32c0,.16.11.33.12.42-.08-.15-.07-.14-.1-.05,0-.24-.14-.42-.15-.68l.15,0c0-.39-.24-.65-.33-1.14l0,.16c-.07,0-.09-.3-.16-.44.05,0,0-.1.05-.18s-.1-.35-.21-.37V2.16c-.1-.39-.27-.4-.38-.77.09.09.06-.09.19.15,0-.12-.07-.24-.1-.23a1.31,1.31,0,0,0-.13-.3l-.46-1,.1,1.09a.35.35,0,0,1,0,.15.31.31,0,0,1,.07.21s0,0,0,0,0,.23.09.1c-.15.39,0,1.11-.19,1.44s0,.62-.05.87c0,0,0,0,0-.05-.09.34.11.23,0,.62-.11.19,0-.22-.06-.09s-.06.48-.2.72V5c-.09.19,0,.5-.12.82,0,0,0,0,0,0a3.63,3.63,0,0,1-.11,1c0-.11,0-.15-.07-.11s.11,0,.05.27c-.06.08-.15.27-.22.28L57.08,7c-.13.11-.1.34-.16.47l0,0a5.88,5.88,0,0,1-.18.85l0,0c0,.26-.12.17-.14.43l-.12,0a8.19,8.19,0,0,1-.22.83,6,6,0,0,1,.13-.72,2.47,2.47,0,0,0-.18.6.68.68,0,0,1,.06-.2,1.88,1.88,0,0,1-.21.75c-.14-.13-.41.73-.65.86a10,10,0,0,1-.91,1.51c.25-.11-.1.16,0,.21-.08.13-.11.18-.13.18s-.24.24-.32.31,0,0,0,0,0-.09,0-.09S54.05,13,54,13l0-.05c0,.05,0,.11,0,.1a.06.06,0,0,0,0,.05c-.11.25-.06-.08-.1,0L54,13s0,0,0,0,0,0,0,0l-.05-.15a.83.83,0,0,0-.12-.22s0-.11.07,0a16.21,16.21,0,0,1-.42-1.7l0,0c0-.1-.11-.17-.1-.31s0,0,0,0a1.43,1.43,0,0,1-.13-.41l.07.11A7.81,7.81,0,0,0,52.94,9c.11,0,.06-.46,0-.69h0c-.1-.65-.29-1.09-.43-1.68.06-.39-.16-1.28-.18-1.89,0,.1-.09,0-.11-.11s-.13-.38,0-.37v.05c.08-.12,0-.41,0-.64l-.14,0c.11-.62-.28-1.55-.14-1.9-.05-.14-.07-.32-.12-.46h.07l0-.57-.67.09.06.51-.06-.09c0,.27.25.32.27.58l-.1.08c0,.48-.05,1,0,1.44,0,0,0,0,0-.1,0,.23-.12.87,0,.8-.1,0,0,.49,0,.76l-.06,0a1.21,1.21,0,0,1,.07.55c0,.07-.06.06,0,0-.07.24,0,.2,0,.48l0-.12a.6.6,0,0,0,0,.38c0,.16-.1.47-.18.49a.44.44,0,0,1,0,.33s0,0,0-.07c-.13.4-.06.63-.2.89a.06.06,0,0,0-.05,0c.09-.32.16-.58.15-.56s-.13.24-.17,0a2.77,2.77,0,0,1-.09.85l0,0v0a.56.56,0,0,0,0,.16,1.72,1.72,0,0,0-.08.2c-.06,0-.12.29-.16.42s0,.18.11,0c0,0,0,0,0-.11a.38.38,0,0,0,0-.06h0l.09-.32a.59.59,0,0,1-.08.36c0,.08,0,.17.05.21-.14.15-.31.47-.38.5a5.33,5.33,0,0,0-.25,1.21c0,.12-.08.11-.12.15a1.09,1.09,0,0,0,0-.18c0,.23-.23.65-.17.74-.15.26,0-.19-.15.2v-.06c-.43.69-.26,1.3-.78,2,0-.05.05-.08.07-.08-.48.89-.75,2-1.3,2.79a1,1,0,0,0-.16.46l-.1,0-.07.3c-.17.39-.53.5-.77,1l.08,0c-.12.14-.39.45-.41.38a.13.13,0,0,1-.09.1l0,0a3.8,3.8,0,0,1-.32.33c-.32.15,0-.15-.47.07-.15.1-.46.28-.38.29S45,19,45,19l-.16.07c0,.12-.12.29.37.21l.28-.2h.12a2.34,2.34,0,0,1-.25.13.45.45,0,0,0,.32-.19.24.24,0,0,0,.15,0l.21-.28c.06,0-.06.16.13,0s-.17,0,0-.17.15,0,.25-.16c0,0,0,0,0,.11.1-.14.3-.32.31-.42.16-.07.33-.43.41-.35a1.91,1.91,0,0,1,.17-.41c0,.3.3-.46.38-.33,0-.23.3-.65.38-1a.16.16,0,0,1,0,.09,2.22,2.22,0,0,1,.22-.31c-.08-.06,0-.35,0-.52.18-.18,0,.18.16.15-.08,0,.09-.41,0-.36.13-.14.09-.13.2-.18-.1-.08,0-.16,0-.33.16-.21.13,0,.21-.29C49,14.18,48.91,14.43,48.91,14.43ZM51.09,8h0l0,.14Zm.14-.56-.07.24s0,0,0-.07S51.19,7.5,51.23,7.42Zm-.79,1c0-.09,0-.11.06-.12l0,.15h0A.09.09,0,0,1,50.44,8.45Z"/><path class="cls-3" d="M50.48,8.63v0l0,0v0Z"/><path class="cls-3" d="M59,17.22h0l0,0Z"/><polygon class="cls-3" points="51.34 1.89 51.36 1.89 51.33 1.84 51.34 1.89"/><path class="cls-3" d="M57.19,19.77l0,0Z"/><path class="cls-3" d="M56.35,20.82l-.14.13Z"/><path class="cls-3" d="M55.65,21.59a.07.07,0,0,0,0,0h0Z"/><path class="cls-3" d="M59.18,6.36v0C59.14,6.23,59.15,6.3,59.18,6.36Z"/><path class="cls-3" d="M59.84,11.22l0-.16C59.8,11.15,59.8,11.21,59.84,11.22Z"/><polygon class="cls-3" points="58.42 1.17 58.42 1.17 58.42 1.2 58.42 1.17"/><path class="cls-3" d="M59.79,10.83a.79.79,0,0,0,0,.23A1,1,0,0,0,59.79,10.83Z"/><polygon class="cls-3" points="52.32 24.54 52.28 24.57 52.28 24.58 52.32 24.54"/><path class="cls-3" d="M52.28,24.58l0,0Z"/><path class="cls-3" d="M52.15,24.7l.09-.08S52.16,24.67,52.15,24.7Z"/><path class="cls-3" d="M53.42,23.74v0A0,0,0,0,0,53.42,23.74Z"/><path class="cls-3" d="M53.73,23.47a2.22,2.22,0,0,0-.32.22v0C53.44,23.64,53.69,23.56,53.73,23.47Z"/><path class="cls-3" d="M55.23,22.51l-.27.23c.06,0,.15-.06,0,.06C55.38,22.55,54.89,22.83,55.23,22.51Z"/><path class="cls-3" d="M56,21.72c-.11.15,0,0,0,0S56.1,21.63,56,21.72Z"/><path class="cls-3" d="M59.84,14.87l.06,0C59.92,14.76,59.87,14.9,59.84,14.87Z"/><polygon class="cls-3" points="59.72 13.34 59.67 13.47 59.72 13.54 59.72 13.34"/><polygon class="cls-3" points="60.23 12.47 60.23 12.54 60.22 12.29 60.23 12.47"/><path class="cls-3" d="M57.76,2.69l.08,0C57.83,2.55,57.74,2.52,57.76,2.69Z"/><path class="cls-3" d="M56.68,8.21a.43.43,0,0,0-.13.29A3.19,3.19,0,0,0,56.68,8.21Z"/><polygon class="cls-3" points="52.16 3.31 52.2 3.42 52.15 3.21 52.16 3.31"/><circle cx="32.43" cy="37.39" r="1.7"/><circle cx="19.65" cy="42.51" r="1.7"/><path class="cls-2" d="M45.86,49.15c-.33,6.5,1.18,12.94,2.68,19.27l2.95,12.44c1,4.33,2.11,8.78,4.71,12.4a38.77,38.77,0,0,0-1.43-17C59.3,79.94,58,87.83,62.33,91.66c.12-6.37.22-12.83-1.36-19a81.29,81.29,0,0,1,9.76,20.47c.59,1.89,1.43,4.11,3.36,4.54q-2-26.67-5.23-53.24c-.67-5.59-1.36-11.43.61-16.7"/><path class="cls-3" d="M69.63,27.79c0-.11-.05-.07-.13.21v.22Z"/><path class="cls-3" d="M68.91,29.58c-.05.34-.05.73.06.54s0-.41.05-.78.16-.48.18-.42c0-.11.15-.42.15-.58a4,4,0,0,0-.4,1.28C68.91,29.71,68.92,29.61,68.91,29.58Z"/><path class="cls-3" d="M70.25,57.55v0Z"/><path class="cls-3" d="M72,74.89a.58.58,0,0,0,0-.19C72,74.82,72,74.92,72,74.89Z"/><path class="cls-3" d="M72.16,77.86v-.18A.78.78,0,0,0,72.16,77.86Z"/><path class="cls-3" d="M70.25,57.55l0,.47S70.27,57.77,70.25,57.55Z"/><path class="cls-3" d="M68.49,33.42c0-.1,0-.18,0-.25v.25Z"/><path class="cls-3" d="M69.32,49.92l0-.14,0-.11Z"/><path class="cls-3" d="M68.62,44.06a.33.33,0,0,0,.12.22,1,1,0,0,1-.08-.28S68.63,44,68.62,44.06Z"/><path class="cls-3" d="M68.13,34.72v0Z"/><path class="cls-3" d="M69.79,54.11a.12.12,0,0,0,0,.06S69.78,54.15,69.79,54.11Z"/><path class="cls-3" d="M45.79,56h0S45.79,56,45.79,56Z"/><path class="cls-3" d="M45.88,49.15v.09l0,0Z"/><path class="cls-3" d="M72.56,83.3v0C72.54,83.13,72.55,83.21,72.56,83.3Z"/><path class="cls-3" d="M61.81,79.47c0-.57.17.91.16.05C61.95,79.61,61.78,78.77,61.81,79.47Z"/><path class="cls-3" d="M68.47,33.57l0,.24Z"/><path class="cls-3" d="M62,79.53h0v0Z"/><path class="cls-3" d="M73.64,95.8a.6.6,0,0,0,0-.13S73.65,95.7,73.64,95.8Z"/><path class="cls-3" d="M73,86.47v0Z"/><path class="cls-3" d="M72,95.76a3.09,3.09,0,0,0-.16-.29l0,0A1.17,1.17,0,0,1,72,95.76Z"/><path class="cls-3" d="M70.27,91.09l0,.09.06.15Z"/><path class="cls-3" d="M48.87,71.08a1.14,1.14,0,0,1,0-.24C48.85,70.93,48.66,70.21,48.87,71.08Z"/><path class="cls-3" d="M68.45,33.42a.32.32,0,0,1,0,.15V33.4S68.46,33.38,68.45,33.42Z"/><path class="cls-3" d="M71.45,95.86c-.13-.25-.25-.5-.36-.75A7.1,7.1,0,0,0,71.45,95.86Z"/><path class="cls-3" d="M56.13,80.48l0,.18A1.07,1.07,0,0,0,56.13,80.48Z"/><path class="cls-3" d="M70.26,92.84a4.08,4.08,0,0,0-.09-.44l0-.08Z"/><path class="cls-3" d="M48.88,70.84h0Z"/><path class="cls-3" d="M47.5,65.73c.17.75.17.33.26.48.23.88,0,.43.05.74.15.55.34,1,.43,1.37,0,0,0,.12,0,0,.21.57.42,1.74.67,2.4a.33.33,0,0,1,0,.09c0-.12.06-.15.1-.13a3,3,0,0,1,.17.75,1,1,0,0,0-.12-.31l.11.34c0,.33-.14-.47-.2-.46.19.68.45,1.45.55,2-.06.13-.32-1.22-.23-.5l-.16-.82c0,.65-.11-.49-.11.11.23,1.07.32,1.18.55,2.25.1.23,0-.1.15.13.44,1.49.07,1.24.45,2.32a2.9,2.9,0,0,1,.39,1.16l-.16-.25c.23,1,.27.56.47,1.65-.08-.18-.22-.8-.2-.64.09.72.17.48.3,1l-.06.13.93,3.5c0-.06-.12-.26-.07,0,.42,1.52.85,3.27,1.33,4.73l.27.52c0,.13.06.25,0,.12.19.57.05,0,.19.27s.13.43,0,.24c.23.48.55,1.16.92,1.82.17.34.36.67.54,1l.53.93-.19-.26a7.27,7.27,0,0,0,.8,1.1c.26.49.2-.19.31-.65l0,.24.14-1,.07-.71c0-.48.07-1,.1-1.42l.11-2.52c-.1-.27,0-1.86-.17-2a16.83,16.83,0,0,0-.06-2.27c0-.4-.16-.58-.25-1.07l.07,0-.18-.65,0-.37-.1-.46c0,.18,0,.39,0,.37a11.18,11.18,0,0,1-.26-1.78l-.23-.83L55.56,78l-.06-.21,0-.09s0,0,.06.08l.12.33c-.17-.48-.12-.37-.1-.39s0,0,0-.08-.07-.07-.09-.1a.27.27,0,0,0,0-.14,1.71,1.71,0,0,0,.19.16.22.22,0,0,0,0,.07l.25.31c.19.25.35.54.54.82a12.41,12.41,0,0,1,.88,1.85c-.16-.47,0-.4.13,0l0,.18c.14.23-.12-.41.12.08s0,.37-.1.09l.23.6s-.07-.1-.11-.12c.14.23.25,1.08.44,1.42v0L58.83,86c.07,0,.19.44.35.76a13.37,13.37,0,0,0,1,2.68c.41.62.16.16.37.42-.06.1.58.94.22.53l.5.65c.19.22.49.5.73.74l.39.38.1.1s.09.11.07,0v-1.8c0,.25,0,.5-.07.35a1.62,1.62,0,0,1,.07-.69v.07c-.07-1.75.23-4,.07-5.44v.08l-.1-1.45c0-.67.06.4.09-.1-.16-1.56-.1-2.47-.28-3.75a11.64,11.64,0,0,0-.18-2.31L62,75.86l-.1-.63,0-.29a.1.1,0,0,1,0-.06h0c-.07-.12,0-.1,0-.12s0,0-.08-.05l-.13-.52a4,4,0,0,1,.27.44l.75,1.28c.62,1.08,1.21,2.18,1.78,3.26s.51.44,1,1.72l-.25-.31c1.1,1.93,2,4.07,2.88,6a1.44,1.44,0,0,1-.17-.3,8.12,8.12,0,0,0,.68,1.56c.12.32,0,.09,0,.29.13.44.49,1,.51,1.3,0,0-.06-.11-.1-.19.13.27.47,1.31.44,1,.24.78.54,1.46.7,2.09.2.38.39,1.34.54,1.44a4.72,4.72,0,0,0,.73,1.85c-.12-.14.2.43.05.26.31.54.72,1,.69.84a2.5,2.5,0,0,0,.61.62,2.68,2.68,0,0,0,.86.43c.33.08.87.39.7-.13a4.53,4.53,0,0,1,0-.81L73.85,92c.12,0,.15,1.73.26,1.66-.17-1.49-.33-2.34-.43-3.81,0-.38.07.21.1.34-.17-1.48-.23-2.88-.4-4.19a1.48,1.48,0,0,1,.05.28c0-.26,0-.61-.08-.57l0,.25c0,.42-.24-1-.29-1.07.19.43-.08-1.31.17-.62,0-.17-.07-.38-.1-.34,0-.26,0-.34.06-.08-.11-.93-.14-.59-.21-1.44,0,0,0,.17.09.26a9.87,9.87,0,0,1-.21-1.57s0,0,0,.17c-.12-1.23-.32-2.08-.4-3.43.14.39,0-.46.08-.54l-.1-.72,0,.29c-.06-.63-.18-1.19-.2-1.74l.08.47-.13-1.19,0,.68c-.11-.64-.11.08-.16-.77,0,.17-.06-.63,0-1h0a7,7,0,0,1-.14-1.1c0-.12.11.09.12,0-.11-.3-.17-1.48-.29-1.87,0,.13.08.13.09.09l-.09-.25c0-.3,0-.34,0-.3-.08-.88-.09.29-.14-.76,0,.08,0,0,0,.21-.08-1.06-.24-2-.31-3,.06-.29.11.84.15.51-.16-1.39-.41-2.88-.53-4.23l0,.25c-.15-.17,0-1-.17-1.69,0,.17.1.21.08.17-.08-.93-.24-1.88-.43-3.28l.05.17c0-.55-.14-1.43-.19-2-.05-.17-.08-.51-.11-.3,0-1.83-.49-3.44-.51-5.07,0,.19.08.45.06.3l-.19-1.37c0,.11,0,.18,0,.48a5.94,5.94,0,0,1-.16-.89c.11.61.09,0,.09-.29,0,0,0,0-.06,0,0-.73-.13-.11-.17-1.09l0,0c-.06-.36-.14-.7-.18-1.09,0-.17.08.39.13.4a12.54,12.54,0,0,1-.25-1.58l.13.8a6.16,6.16,0,0,0-.05-1v0l-.08-.94v.24a23.52,23.52,0,0,1-.42-2.32c.21.89.08.14.16.2,0-.24,0-.6,0-.5-.11-.43,0-.74-.18-1.35,0,0,0-.47,0-.38-.07-.57,0,.14-.06.09-.17-.88-.09-2.08-.24-3.35-.08-1.1-.16-1.3-.19-2.32,0-.34.09.28.09.28,0-.56.06-1,.06-1.5,0,.11,0,0,.08-.16a4.14,4.14,0,0,1,0-.84,3.28,3.28,0,0,1,.06.43c0-.49,0-1,.09-1.49.06-.13,0,.31,0,.5,0-.57.19-1.47.17-1.66,0,.12-.07.24-.1.36,0-.21.08-.1.06.06a1.37,1.37,0,0,1-.17.72l0-.36a7.86,7.86,0,0,0-.25,2.19l-.08-.31,0,.76c0,.16-.1.27-.09-.1-.08.53,0,.47-.06.92,0,0,0,0,0,0l0,.52c0-.1-.07.08-.06-.23-.08.93.08,1.5,0,1.85v-.08c.08,1.29.08.12.21,1.08l-.15.66.08.12c0,.13,0,.4,0,.35.09.49,0-.09.1.2a18.88,18.88,0,0,1,.08,1.91c.08.22,0-.61.09.06-.11.21.1.78.11,1.37-.09-.17-.11-.72-.11-.14A9.9,9.9,0,0,1,68.66,44,12.05,12.05,0,0,1,69,45.87s.14,1.55.19,2.32l0,0a7.47,7.47,0,0,1,.27,1.5c-.06,0-.09-.12-.15-.42l.06.54a3.5,3.5,0,0,1,.13.64l-.08-.13c.09.72.25,1.43.31,2.36.07,0,.09-.75.25.22,0,0-.09.08-.13-.17a3.31,3.31,0,0,1,.07.47l-.1-.38c0,.42.07.21.11.55,0,0,0,.25-.05.21a4.06,4.06,0,0,0,0-.42,7,7,0,0,1,0,1s.07,0,.1.27c.08.72,0,.25,0,.67.05.17.07.63.14.64A.87.87,0,0,1,70,56c.07.37.2,1.73.23,1.31v0h0c.21,1.21.23,2.53.39,3.74h0c.1.72.19,1.6.29,2.11,0,.21,0,.51,0,.42A10.59,10.59,0,0,1,71,65c-.1-.55,0,.2-.09-.56a10.34,10.34,0,0,0,.18,1.65c-.09-.26,0,.55,0,.89v-.51c0,.38.08.72.11,1.06l-.1-.18c0,1.48.44,2.63.38,3.76.1.38,0-.8.06-.46.06.68,0,1.39,0,1.6,0,.93.2.85.27,1.82,0-.13.09-.25.18.47s0,.84-.11.42c0-.16,0-.24,0-.23,0-.22-.07-.5-.08-.23l0,.08c0,.34.09,1.27,0,1.05.08.51.07.21,0-.17,0,.87.13,1.35.18,2.25,0-.14,0-.28,0-.14A10,10,0,0,0,72.4,79c0,.51-.12-.17,0,.72,0,.55-.07.12-.11-.09a16.59,16.59,0,0,1,.13,2l-.06-.43c0,.25.06.46.07.68l0-.25a1.75,1.75,0,0,1,0,.46c.06.26.08-.21.18.3a7.43,7.43,0,0,1,.05,1.14c-.07-1.06-.07.12-.16-.77,0,.17,0,.38.05.63,0,0,0,0,0-.1,0,1,.13.46.22,1.5-.06-.13-.06.25,0,.42,0-.42.06-.21.12.18A10.1,10.1,0,0,0,73,86.47l0-.4a5.67,5.67,0,0,1,.13.93s-.06-.42-.06-.25c.12.51,0,1.18.13,1.9,0,.34-.08,0-.08.34.12.81,0,.88.13,1.73,0-.25,0-.29.13.3l-.16-1.4.16.89c0-.42-.11-.89-.12-1.14.08.42.07.38.1.18,0,.59.15,1.14.14,1.82h-.15c0,1,.22,1.78.29,3.09V94a11.66,11.66,0,0,1,.13,1.23c-.05,0,0,.23-.07.41a7.86,7.86,0,0,0,.18,1.07V97a.64.64,0,0,1,0,.15,1.31,1.31,0,0,0,0,.14h-.1a1.4,1.4,0,0,1-.25-.06,2.15,2.15,0,0,1-.86-.59c.25.17,0-.15.45.24-.25-.2-.43-.42-.46-.4a4.67,4.67,0,0,1-.7-1,1.52,1.52,0,0,1-.31-.47s0,0,0,0-.27-.53-.19-.2c-.28-1-.94-2.76-1.13-3.66L69.47,89s0,0,.06.11c-.29-.89-.33-.48-.67-1.49-.13-.53.25.51.15.18.1-.2-.49-1.18-.68-1.87l.08.16c-.16-.52-.57-1.2-.93-2,0,0,0,0,0,0-.32-.52-.83-1.55-1.23-2.31.17.21.2.33.19.16-.18-.34,0,.15-.4-.53a4.53,4.53,0,0,1-.27-.84l.33.64A7.83,7.83,0,0,0,65.53,80l.06,0c-.53-1-.61-.95-1.19-2l0,.12c-.4-.52-.21-.51-.6-1v-.22L62.57,75c.28.34.79,1.08,1.1,1.55a13.73,13.73,0,0,0-.9-1.41,4.2,4.2,0,0,1,.3.47,18.43,18.43,0,0,1-1.25-1.8c0-.06-.11-.34-.38-.77L61,72.36,60.75,72l-.13-.2-.07-.1,0,0a10.76,10.76,0,0,1,.29,1.54L61.23,75l.19,1.13.29,2.42c.08-.63.06.5.2.38a4.35,4.35,0,0,1,.06.59v1.23c0,.29-.06-.38-.09-.34.06.88,0,.37,0,1,0-.12.1.3.1.81l0-.71c.15,1.23-.07,1.07.05,2.32L62,83.4c0,.64.05,2.36.17,3,0,.11-.06.26-.07,0,0,.77,0,1.62,0,2.43v1.68a2,2,0,0,1,0,.22l0-.08,0,.21c0,.06,0,.21,0,.17a.18.18,0,0,0,0-.09s-.13,0-.32-.29l.1.1,0,0-.51-.68a8.25,8.25,0,0,1-.48-.68A8.5,8.5,0,0,1,60,87.93a9,9,0,0,0-.43-1.7h0c-.5-1.65-.86-2.82-1.37-4.37a12,12,0,0,0-.7-2.2,11.62,11.62,0,0,0-1.41-2.46c.1.14.06.12,0,.08s-.26-.27-.4-.41a8,8,0,0,0-.68-.63,1.55,1.55,0,0,1-.41-.44l.16.15c-.11-.13-.25-.29-.42-.46l-.13-.13s-.11-.12-.08,0l.08.32c.12.48.25,1,.41,1.53l.21.25.31,1.46.33,1.4a10.36,10.36,0,0,1,.34,2.2c.08.37.14.84.22,1.21H56c.08,1,.13,1.57.2,2.87l-.06-.26c0,.73.23.92.25,1.6l-.11.2c0,1.28-.16,2.57-.2,3.84,0,0,0-.06,0-.27L56,92l0,.16v0a1,1,0,0,0,0,.11s-.07-.06-.07.1a.23.23,0,0,0,0-.12l0-.06L55.7,92c-.24-.34-.5-.76-.68-1.06l.11.06a5.84,5.84,0,0,1-.75-1.21c-.07-.18,0-.18.07.06-.23-.6-.27-.43-.53-1.17l.15.25a4.21,4.21,0,0,0-.42-.88,4.78,4.78,0,0,1-.37-1.31A2.5,2.5,0,0,1,53,86c0-.06.06.07.09.14-.28-1.08-.54-1.57-.67-2.33a.2.2,0,0,0,0-.14l.39,1.48c.06,0-.12-.71.12-.18a15.62,15.62,0,0,1-.69-2.14.54.54,0,0,1,0-.09l0,.07a3.86,3.86,0,0,0-.12-.43L52,81.76a8,8,0,0,0-.24-1.15c-.06,0-.16-.41-.11,0,0-.06,0,.06.08.29l0,.15v0l.21.86a4,4,0,0,1-.25-.94l-.23-.46c0-.5-.18-1.43-.15-1.57a31.35,31.35,0,0,0-.9-3.13,1.14,1.14,0,0,1-.05-.47c.05.17.1.38.14.47A15.35,15.35,0,0,0,50,73.91c-.14-.77.18.41-.08-.63l.06.13c-.34-2.09-1-3.29-1.38-5.61a1.21,1.21,0,0,1,0,.28c-.54-2.62-1.33-5.34-1.67-8a6.21,6.21,0,0,0-.29-1.25l0-.17-.2-.76c-.22-1.09-.08-1.92-.33-3.3l0,.18A9,9,0,0,1,46,53.31.87.87,0,0,1,46,53l0,0-.11-1.23c0-1,.15.15.16-1.25a5.37,5.37,0,0,0-.1-1.28,1.62,1.62,0,0,1-.08.55v-.48c-.11-.09-.22-.47-.34.71q0,.41.06.82l-.06.26v-.69a3.14,3.14,0,0,0,0,.92,1.08,1.08,0,0,0-.06.34l.14.8c0,.1-.1-.36-.11.18.06.37.09-.37.15.26a1.78,1.78,0,0,0,0,.74c0,.07-.05,0-.07-.21a10.09,10.09,0,0,0,.17,1.29c0,.41.15,1.37,0,1.34,0,.13.17.71.22,1.08-.23-.66.18,1.39,0,1.23.19.49.35,1.8.58,2.67a1,1,0,0,1-.06-.22c.08.5.08.65.12,1A6.51,6.51,0,0,1,47.13,63c0,.63-.19-.34-.24-.14.07,0,.3,1,.32.82a2.29,2.29,0,0,1,0,.66c.14.05.11.43.28.79.09.68-.07.2.13.92C47.69,66.37,47.5,65.73,47.5,65.73Zm4.33,17.34h0l-.09-.36Zm.38,1.46L52,83.89c0-.06,0,0,.09.14C52.1,84,52.17,84.3,52.21,84.52Zm-.3-3.2a1,1,0,0,1,.06.34l-.1-.4v0A.28.28,0,0,1,51.91,81.33Z"/><path class="cls-3" d="M51.72,80.93l0-.09,0,.14,0,.08Z"/><path class="cls-3" d="M70.24,57.33v0Z"/><polygon class="cls-3" points="56.45 82.14 56.43 82.14 56.47 82.27 56.45 82.14"/><path class="cls-3" d="M69.55,49.09a.44.44,0,0,0,0-.11A.57.57,0,0,0,69.55,49.09Z"/><path class="cls-3" d="M69.15,45.54l0-.5Z"/><path class="cls-3" d="M68.86,42.81a.13.13,0,0,0,0,0h0Z"/><path class="cls-3" d="M73.44,86.24v.11C73.48,86.59,73.46,86.43,73.44,86.24Z"/><path class="cls-3" d="M72.09,73.31l.07.41C72.15,73.5,72.13,73.32,72.09,73.31Z"/><polygon class="cls-3" points="71.5 95.94 71.5 95.94 71.45 95.86 71.5 95.94"/><path class="cls-3" d="M72.22,74.33a5.12,5.12,0,0,0-.06-.6C72.18,73.92,72.2,74.14,72.22,74.33Z"/><path class="cls-3" d="M68.81,31l0-.13s0,0,0,0Z"/><path class="cls-3" d="M68.82,30.87l0-.14A.49.49,0,0,0,68.82,30.87Z"/><path class="cls-3" d="M68.89,30.42l0,.3A1.4,1.4,0,0,0,68.89,30.42Z"/><path class="cls-3" d="M68.39,34.59l0,0S68.4,34.6,68.39,34.59Z"/><path class="cls-3" d="M68.37,35.69c0-.26.05-.66.06-1l0,0C68.44,34.81,68.34,35.44,68.37,35.69Z"/><path class="cls-3" d="M68.28,40.3l-.06-.93c0,.16,0,.38-.07,0C68.17,40.51,68.19,39.09,68.28,40.3Z"/><path class="cls-3" d="M68.55,43.17c-.07-.49,0,0-.06,0C68.55,43.46,68.57,43.54,68.55,43.17Z"/><path class="cls-3" d="M70.87,63.78l-.07,0C70.85,64.12,70.83,63.74,70.87,63.78Z"/><polygon class="cls-3" points="71.61 67.69 71.61 67.32 71.53 67.14 71.61 67.69"/><polygon class="cls-3" points="71.38 70.07 71.36 69.9 71.44 70.54 71.38 70.07"/><path class="cls-3" d="M70.61,91.92l0,.14C70.67,92.3,70.77,92.32,70.61,91.92Z"/><path class="cls-3" d="M64.51,78.15a3,3,0,0,0-.39-.76C64.28,77.7,64.41,78,64.51,78.15Z"/><polygon class="cls-3" points="55.04 78.36 54.94 78.07 55.1 78.61 55.04 78.36"/><path class="cls-2" d="M17.94,65.19c.6,8-2.36,16.1-1,24a23.25,23.25,0,0,0,2-4.78,63.16,63.16,0,0,0,2.88,7.09,17.1,17.1,0,0,1,1.22-5.19,27.49,27.49,0,0,0,2.82,6.52L28.21,86"/><path class="cls-1" d="M46.3,93.26c-1.54.8-2.37,2.51-3,4.13a57.51,57.51,0,0,0-4,18.61,5.69,5.69,0,0,1-.2,1.52c-.46,1.4-1.91,2.15-3.1,3s-2.34,2.31-1.77,3.66a15.84,15.84,0,0,1,3.87-4.4,13.62,13.62,0,0,0,1,3.39,8,8,0,0,1,.73-3.93,9.27,9.27,0,0,0,3.47,3.31c-1.53-2-2.37-4.18-3.7-6.13"/></g></g></svg>
