<svg xmlns="http://www.w3.org/2000/svg" viewBox="0 0 3060 2397"><defs><style>.cls-1{fill:none;}.cls-2{fill:#4d4d4d;}.cls-3{fill:#c2ecf2;}.cls-4{fill:#c1272d;}.cls-5{fill:#ff931e;}.cls-6{fill:#c2f5f9;}.cls-7{fill:#fff;}</style></defs><title>Ugle_sprite</title><g id="Ugle09"><rect class="cls-1" x="1019" y="1598.5" width="509.5" height="799"/><path class="cls-2" d="M1313.32,1791.65c8.59-4.71,13-14.29,16.33-23.37a313.84,313.84,0,0,0,19.58-103.8,31,31,0,0,1,.89-8.48c2.36-7.81,10.42-12.26,17-17.17s12.81-13.17,9.41-20.6a88.37,88.37,0,0,1-21.13,25,74.46,74.46,0,0,0-6.14-18.65,43.88,43.88,0,0,1-3.48,21.91,52,52,0,0,0-20.11-17.76c9,10.71,14.07,22.76,21.88,33.34"/><path class="cls-2" d="M1288.55,1792.8c-9.41-2.74-15.75-11.15-21-19.28a313.84,313.84,0,0,1-41.58-97.1,31,31,0,0,0-2.7-8.09c-4-7.11-12.82-9.71-20.35-13.07s-15.36-10.09-13.65-18.07a88.37,88.37,0,0,0,26,19.86,74.46,74.46,0,0,1,2-19.53,43.88,43.88,0,0,0,8.14,20.64,52,52,0,0,1,15.79-21.69c-6.45,12.4-8.81,25.27-14.14,37.28"/><path class="cls-3" d="M1485,2205.79s-292.9,82.63-408.93,12,220.45-472.7,220.45-472.7S1548.06,2140.14,1485,2205.79Z"/><path class="cls-4" d="M1263.94,1986.7s-17.54,24-7.29,34.46S1263.94,1986.7,1263.94,1986.7Z"/><path class="cls-5" d="M1274.07,2039.38c0-18.86-.12-38-5.65-56.09a198.11,198.11,0,0,1-12,42.05,47.63,47.63,0,0,0-.38-34.44q-8.69,25.12-16.55,50.51a2,2,0,0,0,0,1.79,2.15,2.15,0,0,0,1.88.55l12-.42c8-.28,16.73-.81,22.78-6"/><path class="cls-6" d="M1139.31,2227.2c-.83,9.32-9.3,12.05-18,21.73-27.24,30.32-16.47,84.43-16.92,81.3a620.64,620.64,0,0,0-14.92-72.55,112.29,112.29,0,0,0-22.1,71.59,180.85,180.85,0,0,1-12-52.33c-.83-10.88-.64-22,2.84-32.39,4.6-13.67,12-22.4,19.52-31,10.63-12.16,16-18.24,23.81-19.45C1119.19,2191.33,1140.71,2211.51,1139.31,2227.2Z"/><path class="cls-6" d="M1398.89,2203.56c.22,9.36,8.49,12.6,16.53,22.79,25.19,31.92,10.88,85.27,11.54,82.17a622.58,622.58,0,0,1,19.66-71.49,111.91,111.91,0,0,1,17.35,72.8,181.46,181.46,0,0,0,15.45-51.49c1.55-10.8,2.09-21.95-.71-32.5-3.69-13.92-10.46-23.08-17.44-32.18-9.81-12.79-14.72-19.18-22.48-20.87C1421.32,2169,1398.53,2187.81,1398.89,2203.56Z"/><ellipse class="cls-7" cx="1213.79" cy="2095.58" rx="47.33" ry="81.08" transform="translate(-61.02 36.55) rotate(-1.68)"/><polygon points="1203.51 2092.02 1211.3 2084.79 1219.56 2093.55 1221.5 2091.5 1213.24 2082.74 1221.03 2075.5 1218.97 2073.56 1211.18 2080.79 1203.98 2074 1202.04 2076.06 1209.24 2082.85 1201.45 2090.08 1203.51 2092.02"/><ellipse class="cls-7" cx="1308.57" cy="2086.79" rx="47.33" ry="81.08" transform="translate(-60.72 39.33) rotate(-1.68)"/><polygon points="1299.47 2089.2 1307.26 2081.97 1315.52 2090.73 1317.46 2088.68 1309.2 2079.91 1316.99 2072.68 1314.93 2070.74 1307.14 2077.97 1299.94 2071.18 1298 2073.24 1305.2 2080.03 1297.41 2087.26 1299.47 2089.2"/><path class="cls-6" d="M1224.22,1983c1.95-16.38-4.79-46.39-18.27-106.39-8.34-37.14-15.54-57-18.68-68.46-6.5-23.83-13.34-48.34-28.62-67.93a211.18,211.18,0,0,0,10.84,93.8c-26.14-19.45-19.88-63.46-45.18-84,.39,35.32.85,71.14,10.75,105.09a447.13,447.13,0,0,1-58.46-111.83c-3.66-10.36-8.75-22.52-19.72-24.61,45.91,127.42,47.08,225.65,38.21,294.24-5.95,46-17,83-.75,92.7C1121.29,2121.77,1215.32,2057.85,1224.22,1983Z"/><path class="cls-6" d="M1316.71,1972.26c-.61-16.48,8.54-45.94,26.84-104.86,11.33-36.47,20.1-55.72,24.17-67,8.41-23.32,17.21-47.29,34-65.74a212.53,212.53,0,0,1-18.41,92.83c27.63-17.55,25-61.91,51.83-80.56-3.25,35.22-6.61,70.93-19.24,104.1a453.34,453.34,0,0,0,67.32-107.42c4.49-10.08,10.55-21.85,21.64-23.15-56.08,123.87-65.21,221.8-61.94,290.87,2.2,46.33,10.19,84-6.77,92.54C1408,2118.06,1319.5,2047.6,1316.71,1972.26Z"/></g><g id="Ugle08"><rect class="cls-1" x="509" y="1598.5" width="509.5" height="799"/><path class="cls-2" d="M726.92,2173.52c-8.73,4.45-13.37,13.91-17,22.88a313.84,313.84,0,0,0-22.62,103.18,31,31,0,0,1-1.14,8.45c-2.59,7.74-10.77,11.95-17.54,16.66s-13.2,12.79-10,20.31a88.37,88.37,0,0,1,21.85-24.4,74.46,74.46,0,0,0,5.59,18.82,43.88,43.88,0,0,1,4.12-21.8A52,52,0,0,0,709.74,2336c-8.66-11-13.39-23.16-20.89-34"/><path class="cls-2" d="M751.71,2173.1c9.32,3,15.41,11.61,20.43,19.89a313.84,313.84,0,0,1,38.72,98.28,31,31,0,0,0,2.46,8.16c3.78,7.23,12.53,10.08,20,13.66s15.06,10.53,13.11,18.46a88.37,88.37,0,0,0-25.45-20.62,74.46,74.46,0,0,1-2.53,19.47,43.88,43.88,0,0,0-7.53-20.87,52,52,0,0,1-16.42,21.22c6.81-12.2,9.54-25,15.23-36.85"/><path class="cls-3" d="M567.49,1754.52s295.2-74,409.1,0-234.23,466-234.23,466S502.51,1818.29,567.49,1754.52Z"/><path class="cls-4" d="M782,1980s18.24-23.51,8.3-34.23S782,1980,782,1980Z"/><path class="cls-5" d="M773.42,1927c-.52,18.85-1,38,4,56.24a198.11,198.11,0,0,1,13.18-41.68A47.63,47.63,0,0,0,790,1976q9.43-24.86,18-50a2,2,0,0,0,0-1.79,2.15,2.15,0,0,0-1.86-.61l-12,.06c-8,0-16.74.32-22.95,5.31"/><path class="cls-6" d="M913.64,1743.27c1.1-9.3,9.65-11.77,18.63-21.19,28.12-29.5,18.94-83.91,19.3-80.76a620.64,620.64,0,0,0,12.78,73,112.29,112.29,0,0,0,24.2-70.91A180.85,180.85,0,0,1,999,1696c.51,10.9,0,22-3.79,32.29-5,13.53-12.61,22-20.42,30.46-11,11.84-16.48,17.77-24.37,18.74C932.69,1779.71,911.78,1758.91,913.64,1743.27Z"/><path class="cls-6" d="M653.48,1759.28c.06-9.36-8.12-12.84-15.86-23.27-24.24-32.65-8.37-85.55-9.12-82.47a622.58,622.58,0,0,1-21.75,70.88,111.91,111.91,0,0,1-15.2-73.28,181.46,181.46,0,0,0-17,51c-1.86,10.75-2.74,21.88-.25,32.51,3.28,14,9.77,23.38,16.48,32.68,9.43,13.07,14.15,19.61,21.86,21.52C630,1793.17,653.38,1775,653.48,1759.28Z"/><ellipse class="cls-7" cx="835.33" cy="1872.65" rx="47.33" ry="81.08"/><polygon points="845.5 1876.5 837.5 1883.5 829.5 1874.5 827.5 1876.5 835.5 1885.5 827.5 1892.5 829.5 1894.5 837.5 1887.5 844.5 1894.5 846.5 1892.5 839.5 1885.5 847.5 1878.5 845.5 1876.5"/><ellipse class="cls-7" cx="740.33" cy="1878.65" rx="47.33" ry="81.08"/><polygon points="749.5 1876.5 741.5 1883.5 733.5 1874.5 731.5 1876.5 739.5 1885.5 731.5 1892.5 733.5 1894.5 741.5 1887.5 748.5 1894.5 750.5 1892.5 743.5 1885.5 751.5 1878.5 749.5 1876.5"/><path class="cls-6" d="M821.6,1984.89c-2.43,16.32,3.43,46.51,15.14,106.88,7.25,37.37,13.86,57.38,16.66,69,5.8,24,11.91,48.72,26.61,68.74a211.18,211.18,0,0,0-8.08-94.08c25.56,20.21,18,64,42.7,85.25.65-35.32,1.24-71.14-7.66-105.36a447.13,447.13,0,0,1,55.15,113.5c3.35,10.46,8.09,22.77,19,25.18C939,2125.26,940.67,2027,951.55,1958.74c7.3-45.81,19.41-82.45,3.47-92.63C928.56,1849.19,832.69,1910.31,821.6,1984.89Z"/><path class="cls-6" d="M728.83,1992.88c.13,16.49-9.88,45.67-29.91,104-12.39,36.12-21.73,55.11-26.12,66.24-9.09,23.06-18.59,46.76-35.94,64.71A212.53,212.53,0,0,1,658,2135.62c-28.13,16.73-26.76,61.15-54.17,79,4.28-35.1,8.69-70.7,22.29-103.49a453.34,453.34,0,0,0-70.44,105.4c-4.78,9.94-11.18,21.53-22.32,22.51,59.69-122.17,71.7-219.78,70.45-288.92-.84-46.37-7.71-84.27,9.49-92.31C641.85,1844.47,728.26,1917.5,728.83,1992.88Z"/></g><g id="Ugle07"><rect class="cls-1" x="-1" y="1598.5" width="509.5" height="799"/><path class="cls-2" d="M216.92,2173.52c-8.73,4.45-13.37,13.91-17,22.88a313.84,313.84,0,0,0-22.62,103.18,31,31,0,0,1-1.14,8.45c-2.59,7.74-10.77,11.95-17.54,16.66s-13.2,12.79-10,20.31a88.37,88.37,0,0,1,21.85-24.4,74.46,74.46,0,0,0,5.59,18.82,43.88,43.88,0,0,1,4.12-21.8A52,52,0,0,0,199.74,2336c-8.66-11-13.39-23.16-20.89-34"/><path class="cls-6" d="M105.48,1760.28c.06-9.36-8.12-12.84-15.86-23.27-24.24-32.65-8.37-85.55-9.12-82.47a622.58,622.58,0,0,1-21.75,70.88,111.91,111.91,0,0,1-15.2-73.28,181.46,181.46,0,0,0-17,51c-1.86,10.75-2.74,21.88-.25,32.51,3.28,14,9.77,23.38,16.48,32.68,9.43,13.07,14.15,19.61,21.86,21.52C82,1794.17,105.38,1776,105.48,1760.28Z"/><path class="cls-6" d="M260.49,1957.45c-2.09,16.36-15.93,43.93-43.6,99.07-17.13,34.13-28.93,51.69-34.78,62.13-12.11,21.63-24.7,43.84-44.31,59.3a212.53,212.53,0,0,1,33.32-88.57c-30.12,12.8-34.73,57-64.29,71,9-34.21,18.1-68.9,36-99.56a453.34,453.34,0,0,0-84,95c-6.07,9.21-14,19.83-25.13,19.31,75.55-113,100.55-208.17,108.6-276.85,5.4-46.06,3.67-84.54,21.79-90.2C194.21,1798.7,270,1882.67,260.49,1957.45Z"/><path class="cls-3" d="M57.49,1754.52s295.2-74,409.1,0-234.23,466-234.23,466S-7.49,1818.29,57.49,1754.52Z"/><path class="cls-5" d="M173.42,1927c-.52,18.85-1,38,4,56.24a198.11,198.11,0,0,1,13.18-41.68A47.63,47.63,0,0,0,190,1976q9.43-24.86,18-50a2,2,0,0,0,0-1.79,2.15,2.15,0,0,0-1.86-.61l-12,.06c-8,0-16.74.32-22.95,5.31"/><ellipse class="cls-7" cx="220.33" cy="1857.65" rx="47.33" ry="81.08"/><path class="cls-7" d="M113.17,1889.23c11.51,39.73,33.62,68.37,49.39,64s19.22-40.17,7.71-79.9-33.62-68.37-49.39-64S101.66,1849.5,113.17,1889.23Z"/><path class="cls-6" d="M268.64,1752.27c1.1-9.3,9.65-11.77,18.63-21.19,28.12-29.5,18.94-83.91,19.3-80.76a620.64,620.64,0,0,0,12.78,73,112.29,112.29,0,0,0,24.2-70.91A180.85,180.85,0,0,1,354,1705c.51,10.9,0,22-3.79,32.29-5,13.53-12.61,22-20.42,30.46-11,11.84-16.48,17.77-24.37,18.74C287.69,1788.71,266.78,1767.91,268.64,1752.27Z"/><ellipse cx="198.67" cy="1853.71" rx="9.63" ry="9.45"/><ellipse cx="126.47" cy="1882.05" rx="9.63" ry="9.45"/><path class="cls-6" d="M274.6,1918.89c-2.43,16.32,3.43,46.51,15.14,106.88,7.25,37.37,13.86,57.38,16.66,69,5.8,24,11.91,48.72,26.61,68.74a211.18,211.18,0,0,0-8.08-94.08c25.56,20.21,18,64,42.7,85.25.65-35.32,1.24-71.14-7.66-105.36a447.13,447.13,0,0,1,55.15,113.5c3.35,10.46,8.09,22.77,19,25.18C392,2059.26,393.67,1961,404.55,1892.74c7.3-45.81,19.41-82.45,3.47-92.63C381.56,1783.19,285.69,1844.31,274.6,1918.89Z"/><path class="cls-2" d="M277,2163.52c-8.73,4.45-13.37,13.91-17,22.88a313.84,313.84,0,0,0-22.62,103.18,31,31,0,0,1-1.14,8.45c-2.59,7.74-10.77,11.95-17.54,16.66s-13.2,12.79-10,20.31a88.37,88.37,0,0,1,21.85-24.4,74.46,74.46,0,0,0,5.59,18.82,43.88,43.88,0,0,1,4.12-21.8A52,52,0,0,0,259.86,2326c-8.66-11-13.39-23.16-20.89-34"/></g><g id="Ugle06"><rect class="cls-1" x="2551" y="799.5" width="509.5" height="799"/><path class="cls-2" d="M2780.86,1377.57c-8.92,3.7-14.28,12.72-18.61,21.35a318.92,318.92,0,0,0-31,100.88,31.56,31.56,0,0,1-1.84,8.32c-3.2,7.49-11.56,11-18.59,15.11s-14,11.62-11.55,19.39a87.83,87.83,0,0,1,23.47-22.45,75.52,75.52,0,0,0,3.84,19.22,44.6,44.6,0,0,1,5.91-21.37A51.39,51.39,0,0,0,2750,1538c-7.52-11.66-11.09-24.21-17.49-35.61"/><path class="cls-6" d="M2670.43,969.26c1.48-9.24-5.91-13.9-11.83-25.37-18.54-35.89,4.92-85.81,3.72-82.87a631.37,631.37,0,0,1-31.9,66.8,113.66,113.66,0,0,1-3.58-74.69A183.86,183.86,0,0,0,2602.63,901c-3.45,10.35-6,21.21-5.19,32.09,1,14.35,5.92,24.57,11,34.76,7.16,14.33,10.74,21.49,17.92,24.54C2642.54,999.25,2667.94,984.81,2670.43,969.26Z"/><path class="cls-6" d="M2809.72,1163.86c-3.1,16.2-18.41,42.84-49.05,96.12-19,33-31.65,49.76-38,59.82-13.24,20.82-27,42.2-47.19,56.39a215,215,0,0,1,38.31-86.29c-30.32,10.88-37.67,54.7-67.51,66.82,11-33.58,22.15-67.61,41.62-97.09a450.76,450.76,0,0,0-88.31,89.51c-6.54,8.81-15,18.91-25.85,17.69,81.24-108.06,111.83-201.41,124.11-269.45,8.24-45.63,9-84.14,27.12-88.64C2755,1001.26,2823.87,1089.83,2809.72,1163.86Z"/><path class="cls-3" d="M2617.9,955.52s289.69-74,401.48,0-229.86,466-229.86,466S2554.13,1019.29,2617.9,955.52Z"/><path class="cls-5" d="M2732.08,1128.95c-.14,18.86-.24,38,5,56.15a200.84,200.84,0,0,1,12.13-41.93,48.47,48.47,0,0,0,.05,34.44q8.77-25,16.72-50.34a1.57,1.57,0,0,0-1.84-2.36l-11.82.29c-7.87.19-16.42.64-22.41,5.74"/><ellipse class="cls-7" cx="2777.7" cy="1058.65" rx="46.45" ry="81.08"/><ellipse class="cls-7" cx="2700.55" cy="1082.26" rx="29.13" ry="74.78" transform="translate(-193.03 779.82) rotate(-15.87)"/><path class="cls-6" d="M2822.19,960.3c-.64-9.34,7.14-13.31,14.07-24.2,21.7-34.07,2.84-85.9,3.77-82.87a631.37,631.37,0,0,0,25.74,69.4,113.66,113.66,0,0,0,10.3-74.07,183.86,183.86,0,0,1,19.8,49.87c2.5,10.62,4.05,21.67,2.28,32.43-2.34,14.2-8.11,23.94-14.1,33.63-8.42,13.62-12.63,20.44-20.06,22.82C2847.27,992.69,2823.27,976,2822.19,960.3Z"/><circle cx="2751.45" cy="1072.71" r="9.45"/><circle cx="2706.6" cy="1094.05" r="9.45"/><path class="cls-6" d="M2839.22,1126c-1.39,16.43,6.16,46.22,21.28,105.79,9.35,36.88,17,56.46,20.48,67.87,7.13,23.63,14.61,47.92,30.21,67a215,215,0,0,0-13.59-93.43c26.26,18.66,21.5,62.84,47,82.57-1.49-35.29-3.07-71.08-13.86-104.72a450.76,450.76,0,0,1,60.86,110c3.92,10.25,9.29,22.25,20.12,24-49-126-53.29-224.13-46.75-292.95,4.39-46.16,14-83.45-2.18-92.67C2935.82,984.21,2845.59,1050.89,2839.22,1126Z"/><path class="cls-2" d="M2823.68,1362.46c-8,5.38-11.49,15.28-14,24.6a318.92,318.92,0,0,0-10.56,105,31.56,31.56,0,0,1-.17,8.52c-1.66,8-9.17,13-15.25,18.47s-11.44,14.15-7.5,21.28a87.83,87.83,0,0,1,18.59-26.63,75.52,75.52,0,0,0,7.54,18.09,44.6,44.6,0,0,1,1.59-22.12,51.39,51.39,0,0,0,21.14,16.09c-9.67-10-15.64-21.55-24.16-31.47"/></g><g id="Ugle05"><rect class="cls-1" x="2040" y="799.5" width="509.5" height="799"/><path class="cls-2" d="M2263.77,1374.8c-8.63,4.33-13.32,13.72-17,22.64a318.92,318.92,0,0,0-23.62,102.86,31.56,31.56,0,0,1-1.23,8.44c-2.64,7.7-10.74,11.8-17.44,16.42s-13.13,12.61-10.11,20.17a87.83,87.83,0,0,1,21.78-24.1,75.52,75.52,0,0,0,5.22,18.89,44.6,44.6,0,0,1,4.34-21.74,51.39,51.39,0,0,0,19,18.61c-8.34-11.08-12.82-23.34-20-34.25"/><path class="cls-6" d="M2161.32,974c3.2-8.79-3.18-14.77-6.83-27.14-11.42-38.75,21-83.33,19.31-80.68a631.37,631.37,0,0,1-43.94,59.57,113.66,113.66,0,0,1,10.6-74,183.86,183.86,0,0,0-32.82,42.44c-5.34,9.51-9.89,19.7-11.16,30.53-1.68,14.29,1.17,25.24,4.24,36.21,4.32,15.42,6.48,23.13,13,27.48C2128.25,998.18,2155.93,988.8,2161.32,974Z"/><path class="cls-6" d="M2310.71,1155.53c-1.6,16.41-14.41,44.34-40,100.21-15.86,34.58-27,52.45-32.41,63.05-11.28,21.95-23,44.49-41.83,60.48a215,215,0,0,1,30.25-89.44c-29.2,13.61-32.5,57.92-61.11,72.73,7.85-34.44,15.87-69.36,32.55-100.49a450.76,450.76,0,0,0-79.74,97.22c-5.7,9.37-13.16,20.2-24.13,20,71-115,92.92-210.81,98.92-279.68,4-46.19,1.27-84.61,18.9-90.75C2241.33,998.63,2318,1080.52,2310.71,1155.53Z"/><path class="cls-3" d="M2106.9,955.52s289.69-74,401.48,0-229.86,466-229.86,466S2043.13,1019.29,2106.9,955.52Z"/><path class="cls-5" d="M2223.38,1124.76c-7.5,17.3-15.09,34.91-17.34,53.64a200.84,200.84,0,0,1,27.55-33.85,48.47,48.47,0,0,0-13.42,31.72q17.86-19.61,35.07-39.8a2.08,2.08,0,0,0,.7-1.65c-.14-.66-.85-1-1.47-1.25l-11-4.35c-7.32-2.9-15.36-5.84-22.88-3.48"/><ellipse class="cls-7" cx="2266.7" cy="1058.65" rx="46.45" ry="81.08"/><ellipse class="cls-7" cx="2189.55" cy="1082.26" rx="29.13" ry="74.78" transform="translate(-212.51 640.07) rotate(-15.87)"/><path class="cls-6" d="M2314.1,954.6c.82-9.32,9.13-12,17.67-21.71,26.74-30.28,16.18-84.41,16.63-81.27A631.37,631.37,0,0,0,2363,924.19a113.66,113.66,0,0,0,21.71-71.56A183.86,183.86,0,0,1,2396.51,905c.82,10.88.63,22-2.8,32.39-4.52,13.66-11.74,22.38-19.16,31-10.44,12.15-15.66,18.22-23.37,19.42C2333.83,990.5,2312.72,970.29,2314.1,954.6Z"/><circle cx="2240.45" cy="1072.71" r="9.45"/><circle cx="2186.6" cy="1103.05" r="9.45"/><path class="cls-6" d="M2342,1138.93c1,16.46,12.79,44.84,36.37,101.6,14.6,35.13,25,53.4,30.09,64.19,10.48,22.35,21.39,45.3,39.6,62a215,215,0,0,0-27-90.48c28.68,14.67,30.37,59.06,58.42,74.9-6.59-34.7-13.33-69.89-28.87-101.61a450.76,450.76,0,0,1,76.15,100.06c5.36,9.57,12.42,20.67,23.38,20.84-66.77-117.55-85.18-214-88.67-283.09-2.34-46.31,1.81-84.6-15.58-91.38C2417,984.66,2337.4,1063.7,2342,1138.93Z"/><path class="cls-2" d="M2323.8,1366.25c-8.63,4.32-13.34,13.7-17.05,22.61a318.92,318.92,0,0,0-23.82,102.82,31.56,31.56,0,0,1-1.25,8.43c-2.66,7.7-10.76,11.78-17.47,16.38s-13.15,12.58-10.15,20.15a87.83,87.83,0,0,1,21.83-24.05,75.52,75.52,0,0,0,5.18,18.9,44.6,44.6,0,0,1,4.39-21.73,51.39,51.39,0,0,0,18.92,18.64c-8.32-11.1-12.77-23.37-20-34.29"/></g><g id="Ugle04"><rect class="cls-1" x="1529" y="799.5" width="509.5" height="799"/><path class="cls-2" d="M1752.77,1374.8c-8.63,4.33-13.32,13.72-17,22.64a318.92,318.92,0,0,0-23.62,102.86,31.56,31.56,0,0,1-1.23,8.44c-2.64,7.7-10.74,11.8-17.44,16.42s-13.13,12.61-10.11,20.17a87.83,87.83,0,0,1,21.78-24.1,75.52,75.52,0,0,0,5.22,18.89,44.6,44.6,0,0,1,4.34-21.74,51.39,51.39,0,0,0,19,18.61c-8.34-11.08-12.82-23.34-20-34.25"/><path class="cls-6" d="M1648.16,970c2-9.15-5.2-14.19-10.53-25.94-16.69-36.79,9.28-85.44,7.93-82.58a631.37,631.37,0,0,1-35.25,65.09,113.66,113.66,0,0,1,.23-74.78,183.86,183.86,0,0,0-26.62,46.59c-4,10.16-7.06,20.88-6.82,31.79.31,14.38,4.66,24.84,9.23,35.28,6.42,14.67,9.63,22,16.65,25.42C1618.77,998.53,1644.87,985.4,1648.16,970Z"/><path class="cls-6" d="M1788.17,1163.46c-3,16.21-18.22,42.92-48.61,96.35-18.81,33.07-31.42,49.91-37.77,60-13.15,20.88-26.81,42.32-46.93,56.61a215,215,0,0,1,37.91-86.47c-30.27,11-37.41,54.87-67.2,67.14,10.81-33.63,21.84-67.72,41.17-97.28a450.76,450.76,0,0,0-87.9,89.92c-6.5,8.84-14.87,19-25.77,17.81,80.74-108.43,110.9-201.93,122.87-270,8-45.67,8.63-84.18,26.72-88.76C1732.7,1001.11,1802,1089.37,1788.17,1163.46Z"/><path class="cls-3" d="M1595.9,955.52s289.69-74,401.48,0-229.86,466-229.86,466S1532.13,1019.29,1595.9,955.52Z"/><path class="cls-5" d="M1709.72,1128.49c0,18.86.1,38,5.52,56.1a200.84,200.84,0,0,1,11.75-42,48.47,48.47,0,0,0,.36,34.44q8.54-25.11,16.27-50.49a1.57,1.57,0,0,0-1.86-2.35l-11.82.4c-7.87.27-16.42.78-22.36,5.94"/><ellipse class="cls-7" cx="1755.7" cy="1058.65" rx="46.45" ry="81.08"/><ellipse class="cls-7" cx="1678.55" cy="1082.26" rx="29.13" ry="74.78" transform="translate(-231.99 500.32) rotate(-15.87)"/><path class="cls-6" d="M1798.91,961.24c-.95-9.31,6.7-13.54,13.27-24.64,20.57-34.77,0-85.95,1-82.95a631.37,631.37,0,0,0,28,68.52,113.66,113.66,0,0,0,7.87-74.37A183.86,183.86,0,0,1,1870.52,897c2.85,10.53,4.76,21.52,3.34,32.34-1.87,14.27-7.32,24.19-13,34.07-8,13.89-12,20.84-19.3,23.47C1825,992.79,1800.51,976.91,1798.91,961.24Z"/><circle cx="1746.45" cy="1117.71" r="9.45"/><circle cx="1684.6" cy="1127.05" r="9.45"/><path class="cls-6" d="M1819.54,1130.17c-.58,16.48,8.44,45.86,26.47,104.62,11.16,36.37,19.8,55.55,23.8,66.78,8.29,23.25,17,47.14,33.48,65.47a215,215,0,0,0-18.18-92.65c27.15,17.35,24.57,61.7,51,80.15-3.23-35.18-6.57-70.85-19-103.91a450.76,450.76,0,0,1,66.22,106.89c4.42,10,10.38,21.76,21.28,23-55.2-123.41-64.28-221.22-61.14-290.29,2.11-46.32,9.91-84-6.75-92.45C1909,983.79,1822.19,1054.85,1819.54,1130.17Z"/><path class="cls-2" d="M1808.06,1363.36c-7.62,5.92-10.41,16-12.31,25.5a318.92,318.92,0,0,0-3.3,105.49,31.56,31.56,0,0,1,.42,8.51c-1.11,8.07-8.25,13.65-13.94,19.48s-10.44,14.91-6,21.75a87.83,87.83,0,0,1,16.72-27.85,75.52,75.52,0,0,0,8.77,17.53,44.6,44.6,0,0,1,.06-22.17,51.39,51.39,0,0,0,22.2,14.59c-10.33-9.26-17.09-20.43-26.27-29.73"/></g><g id="Ugle03"><rect class="cls-1" x="1019" y="799.5" width="509.5" height="799"/><path class="cls-2" d="M1242.77,1374.8c-8.63,4.33-13.32,13.72-17,22.64a318.92,318.92,0,0,0-23.62,102.86,31.56,31.56,0,0,1-1.23,8.44c-2.64,7.7-10.74,11.8-17.44,16.42s-13.13,12.61-10.11,20.17a87.83,87.83,0,0,1,21.78-24.1,75.52,75.52,0,0,0,5.22,18.89,44.6,44.6,0,0,1,4.34-21.74,51.39,51.39,0,0,0,19,18.61c-8.34-11.08-12.82-23.34-20-34.25"/><path class="cls-6" d="M1133,961.28c.06-9.36-8-12.84-15.56-23.27-23.79-32.65-8.22-85.55-9-82.47a631.37,631.37,0,0,1-21.35,70.88,113.66,113.66,0,0,1-14.92-73.28,183.86,183.86,0,0,0-16.64,51c-1.83,10.75-2.69,21.88-.24,32.51,3.22,14,9.59,23.38,16.18,32.68,9.26,13.07,13.89,19.61,21.45,21.52C1110,995.17,1132.9,977,1133,961.28Z"/><path class="cls-6" d="M1285.79,1158.28c-2,16.36-15.62,43.93-42.76,99.08-16.8,34.13-28.38,51.7-34.12,62.14-11.88,21.63-24.23,43.85-43.47,59.31a215,215,0,0,1,32.68-88.58c-29.56,12.81-34.07,57-63.07,71,8.78-34.21,17.75-68.9,35.28-99.57a450.76,450.76,0,0,0-82.37,95c-6,9.21-13.71,19.83-24.66,19.31,74.12-113.06,98.63-208.19,106.51-276.87,5.29-46.07,3.58-84.54,21.36-90.2C1220.71,999.55,1295.14,1083.5,1285.79,1158.28Z"/><path class="cls-3" d="M1085.9,955.52s289.69-74,401.48,0-229.86,466-229.86,466S1022.13,1019.29,1085.9,955.52Z"/><path class="cls-5" d="M1200,1126.22c-3.21,18.59-6.43,37.49-4.19,56.22a200.84,200.84,0,0,1,18.79-39.39,48.47,48.47,0,0,0-5.55,34q12.73-23.27,24.69-46.95a2.08,2.08,0,0,0,.3-1.77c-.29-.61-1.06-.77-1.72-.86l-11.71-1.64c-7.8-1.09-16.31-2-23.05,2"/><ellipse class="cls-7" cx="1245.7" cy="1058.65" rx="46.45" ry="81.08"/><ellipse class="cls-7" cx="1168.55" cy="1082.26" rx="29.13" ry="74.78" transform="translate(-251.43 360.84) rotate(-15.87)"/><path class="cls-6" d="M1293.11,953.27c1.08-9.3,9.47-11.77,18.28-21.19,27.59-29.5,18.59-83.91,18.94-80.76a631.37,631.37,0,0,0,12.54,73,113.66,113.66,0,0,0,23.74-70.91A183.86,183.86,0,0,1,1376.92,906c.5,10.9,0,22-3.72,32.29-4.91,13.53-12.37,22-20,30.46-10.78,11.84-16.17,17.77-23.91,18.74C1311.81,989.71,1291.29,968.91,1293.11,953.27Z"/><circle cx="1236.45" cy="1104.71" r="9.45"/><circle cx="1188.6" cy="1114.05" r="9.45"/><path class="cls-6" d="M1316.83,1136.55c.42,16.48,11.21,45.26,32.78,102.81,13.35,35.62,23.14,54.24,27.82,65.2,9.68,22.7,19.79,46,37.4,63.31a215,215,0,0,0-23.78-91.37c28.15,15.66,28.28,60.09,55.76,76.91-5.36-34.91-10.87-70.31-25.29-102.56a450.76,450.76,0,0,1,72.59,102.67c5,9.75,11.68,21.09,22.64,21.65-62.6-119.82-77.62-216.91-78.69-286-.72-46.36,4.78-84.48-12.36-91.87C1397.24,985,1314.9,1061.2,1316.83,1136.55Z"/><path class="cls-2" d="M1298.06,1363.36c-7.62,5.92-10.41,16-12.31,25.5a318.92,318.92,0,0,0-3.3,105.49,31.56,31.56,0,0,1,.42,8.51c-1.11,8.07-8.25,13.65-13.94,19.48s-10.44,14.91-6,21.75a87.83,87.83,0,0,1,16.72-27.85,75.52,75.52,0,0,0,8.77,17.53,44.6,44.6,0,0,1,.06-22.17,51.39,51.39,0,0,0,22.2,14.59c-10.33-9.26-17.09-20.43-26.27-29.73"/></g><g id="Ugle02"><rect class="cls-1" x="509" y="799.5" width="509.5" height="799"/><path class="cls-2" d="M735.23,1376.49c-9.25,2.74-15.53,11.16-20.74,19.29a318.92,318.92,0,0,0-41.41,97.08,31.56,31.56,0,0,1-2.7,8.09c-4,7.11-12.65,9.72-20.07,13.08s-15.15,10.1-13.51,18.07a87.83,87.83,0,0,1,25.69-19.87,75.52,75.52,0,0,0,1.8,19.52,44.6,44.6,0,0,1,8.11-20.63,51.39,51.39,0,0,0,15.38,21.66c-6.26-12.38-8.5-25.24-13.67-37.24"/><path class="cls-6" d="M623,961.28c.06-9.36-8-12.84-15.56-23.27-23.79-32.65-8.22-85.55-9-82.47a631.37,631.37,0,0,1-21.35,70.88,113.66,113.66,0,0,1-14.92-73.28,183.86,183.86,0,0,0-16.64,51c-1.83,10.75-2.69,21.88-.24,32.51,3.22,14,9.59,23.38,16.18,32.68,9.26,13.07,13.89,19.61,21.45,21.52C600,995.17,622.9,977,623,961.28Z"/><path class="cls-6" d="M760.75,1167.68c-3.81,16-20.3,42-53.28,93.85-20.41,32.11-33.83,48.31-40.67,58.07-14.16,20.21-28.85,41-49.65,54.24a215,215,0,0,1,42.11-84.51c-30.78,9.52-40.06,53-70.42,63.76,12.45-33.06,25.13-66.56,45.89-95.14a450.76,450.76,0,0,0-92.2,85.5c-6.92,8.51-15.78,18.23-26.61,16.52,86-104.34,120.67-196.24,136-263.66,10.26-45.22,12.74-83.65,31-87.35C713.31,1002.82,778.17,1094.36,760.75,1167.68Z"/><path class="cls-3" d="M575.9,955.52s289.69-74,401.48,0-229.86,466-229.86,466S512.13,1019.29,575.9,955.52Z"/><path class="cls-5" d="M689.82,1127.22c-1.68,18.79-3.35,37.89.41,56.37a200.84,200.84,0,0,1,15.51-40.79,48.47,48.47,0,0,0-2.76,34.33q10.78-24.23,20.78-48.81a2.08,2.08,0,0,0,.15-1.79c-.34-.58-1.12-.68-1.79-.72l-11.8-.67c-7.86-.45-16.42-.71-22.81,3.89"/><ellipse class="cls-7" cx="735.7" cy="1058.65" rx="46.45" ry="81.08"/><ellipse class="cls-7" cx="658.55" cy="1082.26" rx="29.13" ry="74.78" transform="translate(-270.88 221.37) rotate(-15.87)"/><path class="cls-6" d="M783.11,953.27c1.08-9.3,9.47-11.77,18.28-21.19,27.59-29.5,18.59-83.91,18.94-80.76a631.37,631.37,0,0,0,12.54,73,113.66,113.66,0,0,0,23.74-70.91A183.86,183.86,0,0,1,866.92,906c.5,10.9,0,22-3.72,32.29-4.91,13.53-12.37,22-20,30.46-10.78,11.84-16.17,17.77-23.91,18.74C801.81,989.71,781.29,968.91,783.11,953.27Z"/><circle cx="720.45" cy="1094.71" r="9.45"/><circle cx="658.6" cy="1114.05" r="9.45"/><path class="cls-6" d="M800.54,1131.28c-.46,16.48,8.77,45.8,27.24,104.42,11.43,36.29,20.21,55.4,24.29,66.6,8.46,23.18,17.3,47,34,65.22A215,215,0,0,0,867.18,1275c27.27,17.15,25,61.52,51.57,79.78C915.25,1319.63,911.65,1284,899,1251a450.76,450.76,0,0,1,67,106.4c4.49,10,10.54,21.68,21.45,22.83-56.1-123-65.9-220.75-63.27-289.83,1.77-46.33,9.29-84.11-7.43-92.4C888.95,984.25,802.64,1055.94,800.54,1131.28Z"/><path class="cls-2" d="M789.63,1363.81c-8,5.36-11.54,15.25-14.11,24.56a318.92,318.92,0,0,0-10.85,105,31.56,31.56,0,0,1-.19,8.52c-1.68,8-9.21,13-15.3,18.43s-11.48,14.12-7.56,21.26A87.83,87.83,0,0,1,760.29,1515a75.52,75.52,0,0,0,7.49,18.11,44.6,44.6,0,0,1,1.65-22.11,51.39,51.39,0,0,0,21.1,16.15c-9.64-10-15.58-21.6-24.07-31.54"/></g><g id="Ugle01"><rect class="cls-1" x="-1.49" y="799.5" width="509.5" height="799"/><path class="cls-2" d="M225.92,1374.52c-8.73,4.45-13.37,13.91-17,22.88a313.84,313.84,0,0,0-22.62,103.18,31,31,0,0,1-1.14,8.45c-2.59,7.74-10.77,11.95-17.54,16.66s-13.2,12.79-10,20.31a88.37,88.37,0,0,1,21.85-24.4,74.46,74.46,0,0,0,5.59,18.82,43.88,43.88,0,0,1,4.12-21.8A52,52,0,0,0,208.74,1537c-8.66-11-13.39-23.16-20.89-34"/><path class="cls-6" d="M114.48,961.28c.06-9.36-8.12-12.84-15.86-23.27-24.24-32.65-8.37-85.55-9.12-82.47a622.58,622.58,0,0,1-21.75,70.88,111.91,111.91,0,0,1-15.2-73.28,181.46,181.46,0,0,0-17,51c-1.86,10.75-2.74,21.88-.25,32.51,3.28,14,9.77,23.38,16.48,32.68,9.43,13.07,14.15,19.61,21.86,21.52C91,995.17,114.38,977,114.48,961.28Z"/><path class="cls-6" d="M269.49,1158.45c-2.09,16.36-15.93,43.93-43.6,99.07-17.13,34.13-28.93,51.69-34.78,62.13-12.11,21.63-24.7,43.84-44.31,59.3a212.53,212.53,0,0,1,33.32-88.57c-30.12,12.8-34.73,57-64.29,71,9-34.21,18.1-68.9,36-99.56a453.34,453.34,0,0,0-84,95c-6.07,9.21-14,19.83-25.13,19.31,75.55-113,100.55-208.17,108.6-276.85,5.4-46.06,3.67-84.54,21.79-90.2C203.21,999.7,279,1083.67,269.49,1158.45Z"/><path class="cls-3" d="M66.49,955.52s295.2-74,409.1,0-234.23,466-234.23,466S1.51,1019.29,66.49,955.52Z"/><path class="cls-5" d="M182.42,1128c-.52,18.85-1,38,4,56.24a198.11,198.11,0,0,1,13.18-41.68A47.63,47.63,0,0,0,199,1177q9.43-24.86,18-50a2,2,0,0,0,0-1.79,2.15,2.15,0,0,0-1.86-.61l-12,.06c-8,0-16.74.32-22.95,5.31"/><ellipse class="cls-7" cx="229.33" cy="1058.65" rx="47.33" ry="81.08"/><path class="cls-7" d="M122.17,1090.23c11.51,39.73,33.62,68.37,49.39,64s19.22-40.17,7.71-79.9-33.62-68.37-49.39-64S110.66,1050.5,122.17,1090.23Z"/><path class="cls-6" d="M277.64,953.27c1.1-9.3,9.65-11.77,18.63-21.19,28.12-29.5,18.94-83.91,19.3-80.76a620.64,620.64,0,0,0,12.78,73,112.29,112.29,0,0,0,24.2-70.91A180.85,180.85,0,0,1,363,906c.51,10.9,0,22-3.79,32.29-5,13.53-12.61,22-20.42,30.46-11,11.84-16.48,17.77-24.37,18.74C296.69,989.71,275.78,968.91,277.64,953.27Z"/><ellipse cx="207.67" cy="1054.71" rx="9.63" ry="9.45"/><ellipse cx="135.47" cy="1083.05" rx="9.63" ry="9.45"/><path class="cls-6" d="M283.6,1119.89c-2.43,16.32,3.43,46.51,15.14,106.88,7.25,37.37,13.86,57.38,16.66,69,5.8,24,11.91,48.72,26.61,68.74a211.18,211.18,0,0,0-8.08-94.08c25.56,20.21,18,64,42.7,85.25.65-35.32,1.24-71.14-7.66-105.36a447.13,447.13,0,0,1,55.15,113.5c3.35,10.46,8.09,22.77,19,25.18C401,1260.26,402.67,1162,413.55,1093.74c7.3-45.81,19.41-82.45,3.47-92.63C390.56,984.19,294.69,1045.31,283.6,1119.89Z"/><path class="cls-2" d="M286,1364.52c-8.73,4.45-13.37,13.91-17,22.88a313.84,313.84,0,0,0-22.62,103.18,31,31,0,0,1-1.14,8.45c-2.59,7.74-10.77,11.95-17.54,16.66s-13.2,12.79-10,20.31a88.37,88.37,0,0,1,21.85-24.4,74.46,74.46,0,0,0,5.59,18.82,43.88,43.88,0,0,1,4.12-21.8A52,52,0,0,0,268.86,1527c-8.66-11-13.39-23.16-20.89-34"/></g><g id="Ugle00"><rect class="cls-1" y="0.5" width="509.5" height="799"/><path class="cls-2" d="M217.92,575.52c-8.73,4.45-13.37,13.91-17,22.88a313.84,313.84,0,0,0-22.62,103.18,31,31,0,0,1-1.14,8.45c-2.59,7.74-10.77,11.95-17.54,16.66s-13.2,12.79-10,20.31a88.37,88.37,0,0,1,21.85-24.4A74.46,74.46,0,0,0,177,741.42a43.88,43.88,0,0,1,4.12-21.8A52,52,0,0,0,200.74,738c-8.66-11-13.39-23.16-20.89-34"/><path class="cls-6" d="M106.48,162.28c.06-9.36-8.12-12.84-15.86-23.27-24.24-32.65-8.37-85.55-9.12-82.47a622.58,622.58,0,0,1-21.75,70.88,111.91,111.91,0,0,1-15.2-73.28,181.46,181.46,0,0,0-17,51c-1.86,10.75-2.74,21.88-.25,32.51,3.28,14,9.77,23.38,16.48,32.68,9.43,13.07,14.15,19.61,21.86,21.52C83,196.17,106.38,178,106.48,162.28Z"/><path class="cls-6" d="M261.49,359.45c-2.09,16.36-15.93,43.93-43.6,99.07-17.13,34.13-28.93,51.69-34.78,62.13-12.11,21.63-24.7,43.84-44.31,59.3a212.53,212.53,0,0,1,33.32-88.57c-30.12,12.8-34.73,57-64.29,71,9-34.21,18.1-68.9,36-99.56a453.34,453.34,0,0,0-84,95c-6.07,9.21-14,19.83-25.13,19.31,75.55-113,100.55-208.17,108.6-276.85,5.4-46.06,3.67-84.54,21.79-90.2C195.21,200.7,271,284.67,261.49,359.45Z"/><path class="cls-3" d="M58.49,156.52s295.2-74,409.1,0-234.23,466-234.23,466S-6.49,220.29,58.49,156.52Z"/><path class="cls-5" d="M174.42,329c-.52,18.85-1,38,4,56.24A198.11,198.11,0,0,1,191.6,343.6,47.63,47.63,0,0,0,191,378q9.43-24.86,18-50a2,2,0,0,0,0-1.79,2.15,2.15,0,0,0-1.86-.61l-12,.06c-8,0-16.74.32-22.95,5.31"/><ellipse class="cls-7" cx="221.33" cy="259.65" rx="47.33" ry="81.08"/><path class="cls-7" d="M114.17,291.23c11.51,39.73,33.62,68.37,49.39,64s19.22-40.17,7.71-79.9-33.62-68.37-49.39-64S102.66,251.5,114.17,291.23Z"/><path class="cls-6" d="M269.64,154.27c1.1-9.3,9.65-11.77,18.63-21.19,28.12-29.5,18.94-83.91,19.3-80.76a620.64,620.64,0,0,0,12.78,73,112.29,112.29,0,0,0,24.2-70.91A180.85,180.85,0,0,1,355,107c.51,10.9,0,22-3.79,32.29-5,13.53-12.61,22-20.42,30.46-11,11.84-16.48,17.77-24.37,18.74C288.69,190.71,267.78,169.91,269.64,154.27Z"/><ellipse cx="199.67" cy="255.71" rx="9.63" ry="9.45"/><ellipse cx="127.47" cy="284.05" rx="9.63" ry="9.45"/><path class="cls-6" d="M275.6,320.89c-2.43,16.32,3.43,46.51,15.14,106.88,7.25,37.37,13.86,57.38,16.66,69,5.8,24,11.91,48.72,26.61,68.74a211.18,211.18,0,0,0-8.08-94.08c25.56,20.21,18,64,42.7,85.25.65-35.32,1.24-71.14-7.66-105.36a447.13,447.13,0,0,1,55.15,113.5c3.35,10.46,8.09,22.77,19,25.18C393,461.26,394.67,363,405.55,294.74c7.3-45.81,19.41-82.45,3.47-92.63C382.56,185.19,286.69,246.31,275.6,320.89Z"/><path class="cls-2" d="M278,565.52c-8.73,4.45-13.37,13.91-17,22.88a313.84,313.84,0,0,0-22.62,103.18,31,31,0,0,1-1.14,8.45c-2.59,7.74-10.77,11.95-17.54,16.66s-13.2,12.79-10,20.31a88.37,88.37,0,0,1,21.85-24.4,74.46,74.46,0,0,0,5.59,18.82,43.88,43.88,0,0,1,4.12-21.8A52,52,0,0,0,260.86,728c-8.66-11-13.39-23.16-20.89-34"/></g></svg>
