<svg id="Layer_1" data-name="Layer 1" xmlns="http://www.w3.org/2000/svg" width="827" height="827" viewBox="0 0 827 827"><defs><style>.cls-1{opacity:0.91;}.cls-2{fill:#2d3562;}.cls-3{opacity:0.74;}.cls-4,.cls-5,.cls-6,.cls-7,.cls-8{fill:none;stroke:#fff;}.cls-4,.cls-6,.cls-8{stroke-miterlimit:10;}.cls-4{stroke-width:0.5px;}.cls-5,.cls-7{stroke-linecap:round;stroke-linejoin:round;}.cls-5,.cls-6{stroke-width:3px;}.cls-7,.cls-8{stroke-width:4px;}</style></defs><title>cc_logo</title><g class="cls-1"><rect class="cls-2" width="827" height="827" rx="161" ry="161"/></g><g class="cls-3"><polygon class="cls-4" points="328.87 722.51 219.12 657.13 219.12 700.33 259.98 725.43 259.98 768.05 328.87 807.16 328.87 722.51"/><polygon class="cls-4" points="376.74 695.66 328.87 722.51 328.87 807.16 376.74 780.31 376.74 695.66"/><polyline class="cls-4" points="134.42 244.56 169.13 223.4 139.69 206.31 103.94 226.81 134.42 244.56 297.99 339.77 292.64 342.71 184.8 280.63 116.44 319.36 114.66 318.11 182.48 279.02 99.85 231.19 36.81 267.07 37.27 308.11 116.23 354.19 116.38 358.63 36.81 312.5 36.81 350.74 229.69 461.78 229.69 426.45 201.76 409.98 201.76 405.68 230.12 422.32 230.12 379.21 300.4 338.82 325.74 353.89 325.74 366.72 413.3 417.08 525.24 351.65 595.8 393.35 558.59 415.15 622.56 451.72 622.56 573.67 795.07 474.98 795.07 432.24 629 335.69"/><polygon class="cls-4" points="316.85 566.01 253.42 529.47 243.77 535.32 257.22 543.36 239.39 553.15 236.75 551.11 250.64 543.21 240.56 537.07 213.37 552.86 223.89 559.44 227.55 557.25 230.03 558.85 226.38 561.04 248.45 573.67 276.37 557.68 265.11 550.96 267.45 549.64 281.92 557.68 251.81 575.51 277.1 590.42 304.28 574.35 290.54 566.01 293.03 564.55 306.77 572.59 316.85 566.01"/><polygon class="cls-4" points="255.65 544.22 266.07 550.42 267.45 549.64 257.22 543.36 255.65 544.22"/><polygon class="cls-4" points="280.35 558.61 291.51 565.45 292.67 564.76 281.46 557.96 280.35 558.61"/><polygon class="cls-4" points="255.65 544.22 255.65 569.55 265.11 564.13 265.11 550.96 266.07 550.42 255.65 544.22"/><polygon class="cls-4" points="281.02 559.02 281.02 588.1 290.63 582.42 290.54 566.01 291.51 565.45 281.02 559.02"/><polyline class="cls-4" points="203.51 553.92 203.51 680.39 219.12 689.08 219.12 657.13 289.55 617.75 282.52 613.25 278.59 606.22 278.02 597.23 203.51 553.92 255.25 524.68 323.01 565.45 361.53 541.55 160.57 425.31 36.81 353.73 36.81 388.6 332.23 559.74 327.23 562.64 32 391.97 32 264.6 171.46 183.34 261.15 235.92 261.15 279.78 228.17 299.13 224.22 296.83 257.22 277.82 257.22 238.73 204.43 208.03 137.59 246.4"/><polygon class="cls-4" points="274.74 630.94 311.26 652.62 266.49 679.96 229.26 658.28 274.74 630.94"/><polyline class="cls-4" points="489.92 615.45 489.92 623.82 481.38 628.18 425.21 595.91 427.48 594.69 427.65 589.63 481.73 620.16 489.92 615.45 367.47 544.98 283.75 593.82 283.57 606.03 287.58 613.01 320.03 631.85 315.67 634.64 291.51 620.68 278.69 628.01 313.4 647.89 427.65 582.13 431.84 584.58 320.03 648.94 323.88 651.73 271.01 682.26 328.87 715.75 370.09 691.68 376.74 695.66"/><line class="cls-4" x1="481.73" y1="620.16" x2="481.38" y2="628.18"/><polyline class="cls-4" points="431.84 584.58 431.84 587.72 427.65 589.63 427.48 594.69"/><polyline class="cls-4" points="425.21 595.91 323.86 654.89 323.88 651.73"/><polyline class="cls-4" points="323.86 654.89 323.86 692.67 321.54 693.86"/><polyline class="cls-4" points="343.98 706.92 309.96 687.03 307.73 688.22 341.86 708.16 331.4 714.27 307.73 700.1 304.56 701.68"/><line class="cls-4" x1="307.73" y1="688.22" x2="307.73" y2="700.1"/><polyline class="cls-4" points="488.22 608.73 425.21 572.66 425.21 536.32 488.06 572.17 555.78 532.9 555.78 569.61 488.22 608.73 488.06 614.38 549.57 578.03 549.57 616.09 376.74 716.95"/><polyline class="cls-4" points="548.45 610.57 497.32 640.52 497.32 642.84 410.31 693.86 410.31 697.36"/><polygon class="cls-4" points="421.42 585.72 359.84 549.43 358.27 550.35 358.27 557.89 414.08 589.94 421.42 585.72"/><polygon class="cls-4" points="552.22 576.55 552.22 614.98 619.3 576.55 619.3 538.11 552.22 576.55"/><polygon class="cls-4" points="557.58 531.46 557.58 569.34 619.3 533.86 619.3 495.97 557.58 531.46"/><polygon class="cls-4" points="555.78 416.88 618.57 453.65 618.57 492.46 557.58 526.84 557.58 487.29 495.31 450.7 555.78 416.88"/><polygon class="cls-4" points="555.78 526.84 555.78 488.21 493.09 452.18 493.09 491.35 555.78 526.84"/><polyline class="cls-4" points="493.09 452.18 425.64 489.51 425.64 530.9 488.28 566.57 555.78 526.84"/><polyline class="cls-4" points="270.86 412.09 270.78 438.13 273.73 439.8 273.73 410.41 267.08 414.29 267.08 402.65 275.21 398.03 413.07 478.23 535.59 406.35 552.04 415.4 422.68 488.21 425.64 489.51 555.78 416.88 555.78 456.41 618.57 492.46"/><polyline class="cls-4" points="267.08 414.29 263.75 412.81 263.75 401.54 321.23 368.83 321.23 356.27 300.9 344.81 234.19 381.03 234.19 425.2 422.5 534.04 422.68 488.21"/><polyline class="cls-4" points="422.5 536.26 422.5 571.37 234.19 461.79 234.19 428.89 263.75 446.08 263.75 451.25 267.08 453.65 267.08 447 422.5 536.26 422.5 534.04"/><polyline class="cls-4" points="267.08 453.65 272.29 449.99 273.64 450.77 273.64 480.27 270.83 478.77 270.83 451.01"/><polyline class="cls-4" points="273.64 480.27 413.49 561.36 413.49 531.09"/><line class="cls-4" x1="422.04" y1="556.02" x2="413.49" y2="561.36"/><polygon class="cls-4" points="288.73 489.02 288.73 463.7 299.19 469.65 299.19 495.08 288.73 489.02"/><polyline class="cls-4" points="288.73 489.02 290.42 488.15 290.42 464.66"/><line class="cls-4" x1="290.42" y1="488.16" x2="299.19" y2="493.18"/><line class="cls-4" x1="291.48" y1="465.27" x2="291.48" y2="488.76"/><polygon class="cls-4" points="291.92 478.21 291.92 477.51 293.19 478.21 293.19 478.97 291.92 478.21"/><polygon class="cls-4" points="337.23 517.13 337.23 491.16 338.65 492.04 348.29 497.99 348.29 523.55 337.23 517.13"/><polyline class="cls-4" points="338.65 492.04 338.65 515.93 337.23 517.13"/><polyline class="cls-4" points="339.59 492.62 339.59 516.63 338.65 515.93"/><line class="cls-4" x1="348.29" y1="521.75" x2="339.59" y2="516.63"/><polygon class="cls-4" points="340.12 507.66 340.12 506.93 341.33 507.66 341.33 508.29 340.12 507.66"/><polygon class="cls-4" points="363.54 532.39 363.54 506.93 377.26 515.01 377.26 540.35 363.54 532.39"/><line class="cls-4" x1="374.47" y1="538.73" x2="374.47" y2="513.37"/><polyline class="cls-4" points="365.15 507.88 365.15 532.13 364.11 532.72"/><line class="cls-4" x1="365.15" y1="532.13" x2="374.47" y2="537.62"/><line class="cls-4" x1="366.18" y1="508.49" x2="366.15" y2="532.72"/><polygon class="cls-4" points="366.64 523.55 366.64 522.46 367.8 523.01 367.8 523.99 366.64 523.55"/><polyline class="cls-4" points="422.5 514.38 413.49 519.77 275.26 438.73 275.21 398.03"/><line class="cls-4" x1="273.73" y1="439.8" x2="275.26" y2="438.73"/><polygon class="cls-4" points="288.73 446.56 288.73 421.25 299.19 427.2 299.19 452.63 288.73 446.56"/><polyline class="cls-4" points="288.73 446.56 290.42 445.7 290.42 422.21"/><line class="cls-4" x1="290.42" y1="445.7" x2="299.19" y2="450.73"/><line class="cls-4" x1="291.48" y1="422.82" x2="291.48" y2="446.31"/><polygon class="cls-4" points="291.92 435.75 291.92 435.06 293.19 435.75 293.19 436.51 291.92 435.75"/><polygon class="cls-4" points="337.23 474.89 337.23 449.58 347.68 455.53 347.68 480.96 337.23 474.89"/><polyline class="cls-4" points="337.23 474.89 338.92 474.03 338.92 450.54"/><line class="cls-4" x1="338.92" y1="474.03" x2="347.68" y2="479.06"/><line class="cls-4" x1="339.98" y1="451.15" x2="339.98" y2="474.64"/><polygon class="cls-4" points="340.42 464.08 340.42 463.39 341.68 464.08 341.68 464.84 340.42 464.08"/><polygon class="cls-4" points="363.54 490.3 363.54 464.84 377.26 472.92 377.26 498.25 363.54 490.3"/><line class="cls-4" x1="374.47" y1="496.64" x2="374.47" y2="471.28"/><polyline class="cls-4" points="365.15 465.79 365.15 490.04 364.11 490.63"/><line class="cls-4" x1="365.15" y1="490.04" x2="374.47" y2="495.53"/><line class="cls-4" x1="366.18" y1="466.4" x2="366.15" y2="490.63"/><polygon class="cls-4" points="366.64 481.46 366.64 480.37 367.8 480.92 367.8 481.9 366.64 481.46"/><line class="cls-4" x1="413.07" y1="478.23" x2="413.49" y2="519.77"/><polygon class="cls-4" points="413.49 474.03 457.44 448.9 358.89 391.46 314.25 416.88 364.11 445.7 378.94 436.94 383.15 439.43 369 448.22 413.49 474.03"/><polygon class="cls-4" points="310.55 415.21 330.09 403.42 315.6 394.83 295.55 406.62 310.55 415.21"/><polygon class="cls-4" points="317.96 393.48 332.95 402.58 355.36 389.1 339.98 380.34 317.96 393.48"/><polygon class="cls-4" points="278.88 396.51 324.36 370.91 337.23 378.49 292.56 405.02 278.88 396.51"/><line class="cls-4" x1="324.36" y1="370.91" x2="324.36" y2="386.13"/><line class="cls-4" x1="339.98" y1="380.34" x2="339.98" y2="398.03"/><line class="cls-4" x1="315.6" y1="394.83" x2="315.6" y2="412.16"/><polyline class="cls-4" points="358.89 391.46 358.89 432.75 372.65 440.66"/><line class="cls-4" x1="383.15" y1="439.43" x2="383.15" y2="456.43"/><line class="cls-4" x1="383.15" y1="446.56" x2="422.68" y2="468.78"/><polygon class="cls-4" points="373.72 432.75 373.72 411.45 396.33 424.31 396.33 446.07 373.72 432.75"/><polyline class="cls-4" points="373.72 432.75 378.08 430.35 378.08 413.93"/><line class="cls-4" x1="378.08" y1="430.35" x2="396.33" y2="440.66"/><polyline class="cls-4" points="384.52 417.59 384.52 432.75 379.4 429.91 379.4 414.68"/><polyline class="cls-4" points="386.36 418.64 386.36 433.65 391.27 436.21 391.27 421.43"/><polyline class="cls-4" points="392.87 422.34 392.87 437.06 396.33 438.93"/><polygon class="cls-4" points="190.74 292.43 190.74 314.01 212.9 326.81 212.9 305.04 195.06 294.89 190.74 292.43"/><polyline class="cls-4" points="190.74 314.01 195.13 311.34 195.06 294.89 196.77 295.86 196.77 310.38 201.82 313.25 201.82 298.73 203.46 299.67 203.46 314.01 208.31 316.88 208.31 302.43 210.22 303.51 210.22 318.02 212.9 319.36"/><line class="cls-4" x1="195.13" y1="311.34" x2="212.9" y2="321.84"/><polygon class="cls-4" points="217.34 307.13 217.34 328.71 239.49 341.5 239.49 319.73 221.66 309.59 217.34 307.13"/><polyline class="cls-4" points="217.34 328.71 221.73 326.03 221.66 309.59 223.37 310.55 223.37 325.08 228.42 327.94 228.42 313.43 230.06 314.37 230.06 328.71 234.91 331.57 234.91 317.12 236.82 318.21 236.82 332.72 239.49 334.06"/><line class="cls-4" x1="221.73" y1="326.01" x2="239.49" y2="336.52"/><polygon class="cls-4" points="243.84 321.82 243.84 343.4 265.99 356.2 265.99 334.43 248.16 324.28 243.84 321.82"/><polyline class="cls-4" points="243.84 343.4 248.23 340.73 248.16 324.28 249.87 325.25 249.87 339.77 254.92 342.64 254.92 328.12 256.56 329.06 256.56 343.4 261.41 346.27 261.41 331.82 263.32 332.9 263.32 347.41 265.99 348.75"/><line class="cls-4" x1="248.23" y1="340.73" x2="265.99" y2="351.23"/><polyline class="cls-4" points="236.45 375.57 217.34 364.05 217.34 343.24 239.49 355.27 239.49 373.82"/><polyline class="cls-4" points="221.73 345.62 221.73 361.95 217.34 364.05"/><line class="cls-4" x1="221.73" y1="361.95" x2="239.49" y2="372.27"/><polyline class="cls-4" points="222.8 346.2 222.8 361.02 227.8 364.05 227.8 348.92 229.5 349.84 229.5 364.67 234.59 367.71 234.59 352.61 236.16 353.46 236.16 368.32 239.49 370.04"/><polyline class="cls-4" points="252.75 362.52 252.75 366.2 247.83 369.03 247.83 359.83 246.38 359.04 246.38 369.03 241.99 371.36 242.4 356.87 252.75 362.52 254.3 363.36 255.57 364.05 254.52 365.19"/><polyline class="cls-4" points="116.44 319.36 116.38 358.63 175.19 325.44 175.19 321.27 176.11 320.1 185.23 314.89 184.8 280.63"/><polyline class="cls-4" points="184.84 283.74 175.72 289.09 176.11 320.1"/><polygon class="cls-4" points="184.24 314.18 184.24 285.33 176.67 290.02 177.12 318.26 184.24 314.18"/><polygon class="cls-4" points="154.74 332.12 173.96 320.92 173.96 290.14 154.74 301.8 154.74 332.12"/><polygon class="cls-4" points="152.18 333.31 152.18 302.85 138.39 310.38 138.39 340.73 152.18 333.31"/><polygon class="cls-4" points="134.99 342.44 134.99 312.35 121.37 320.1 121.37 349.79 134.99 342.44"/><polyline class="cls-4" points="173.96 308.59 176.67 309.62 212.32 368.52 211.79 368.82 175.98 310.06"/><polyline class="cls-4" points="212.32 368.52 212.32 373.46 211.67 373.63"/><polyline class="cls-4" points="209.66 370.26 209.66 382.88 210.08 383.18 210.99 382.79 210.99 372.49"/><line class="cls-4" x1="210.15" y1="371.08" x2="210.08" y2="383.18"/><polyline class="cls-4" points="230.12 381.77 206.14 394.83 211.67 398.03 209.66 399.54 209.66 410.31 201.76 405.68 201.82 395.65 230.12 379.21 234.19 381.03"/><polyline class="cls-4" points="211.67 398.03 211.67 409.06 209.66 410.31"/><line class="cls-4" x1="201.82" y1="395.65" x2="209.66" y2="399.54"/><polyline class="cls-4" points="198.39 364.11 196.77 363.34 196.77 360.56 195.13 359.4 195.13 356.87 192.62 355.41 192.62 352.94 190.74 351.9 190.74 349.33 188.7 348.09 188.7 346.2 186.54 344.81 186.54 343.24 183.65 341.5 183.65 338.1 181.59 336.96 181.59 334.06 179.43 333.15 179.43 330.26 177.57 329.24 177.57 326.81 175.19 325.44"/><polyline class="cls-4" points="204.53 371.08 205.83 371.79 205.83 374.01 208.14 375.16 208.21 377.61 209.66 378.26 209.66 380.35 206.41 378.62 206.41 376.72 204.01 375.57 204.01 373.63 201.27 371.79"/><polyline class="cls-4" points="198.91 362.69 198.91 359.8 196.77 358.63 196.77 356.2 194.58 355.19 194.58 352.45 193.57 351.88"/><polygon class="cls-4" points="193.57 343.26 193.57 352.57 192.62 352.94 191.9 352.54 192.01 340.63 193.57 343.26"/><line class="cls-4" x1="192.74" y1="341.86" x2="192.62" y2="352.94"/><polyline class="cls-4" points="191.9 347.91 190.75 347.4 190.75 344.95 188.2 343.72 188.2 341.2 185.97 340 185.97 337.57 184.33 336.52"/><polygon class="cls-4" points="184.33 327.74 184.33 337.69 183.65 338.1 182.63 337.54 182.63 324.9 184.33 327.74"/><line class="cls-4" x1="183.48" y1="326.32" x2="183.65" y2="338.1"/><polyline class="cls-4" points="182.63 333.12 181.28 332.42 181.28 329.49 179.34 328.26 179.34 325.99 177.77 325.13 177.77 323.97 181 322.16"/><polyline class="cls-4" points="211.79 368.82 211.67 373.63 176.03 313.82 176.19 326.02 176.95 326.45 177.77 325.91 177.58 316.42"/><line class="cls-4" x1="177.08" y1="315.58" x2="176.95" y2="326.45"/><polyline class="cls-4" points="185.23 314.89 187.04 316.1 187.04 318.74 189.23 320.1 189.23 322.74 191.29 323.93 191.29 326.45 193.57 327.81 193.57 330.44 195.86 331.76 195.86 334.23 198.01 335.51 198.01 337.94 200.23 339.34 200.23 341.69 202.21 342.8 202.21 345.4 204.56 346.79 204.56 349.07 206.62 350.3 206.78 352.94 208.76 354.18 208.76 356.87 211.15 358.12 211.15 360.85 213.42 361.95 213.42 364.56 215.56 365.76 215.56 368.52 217.74 369.75 217.74 372.02 219.81 373.09 219.81 375.36 210.99 380.35"/><line class="cls-4" x1="219.8" y1="373.09" x2="210.99" y2="378.45"/><line class="cls-4" x1="217.74" y1="372.02" x2="210.99" y2="375.98"/><line class="cls-4" x1="209.66" y1="376.72" x2="208.21" y2="377.61"/><line class="cls-4" x1="217.74" y1="369.75" x2="212.32" y2="372.81"/><line class="cls-4" x1="208.14" y1="375.16" x2="209.66" y2="374.28"/><line class="cls-4" x1="215.56" y1="368.52" x2="212.32" y2="370.26"/><line class="cls-4" x1="209.66" y1="371.72" x2="205.83" y2="374.01"/><line class="cls-4" x1="215.56" y1="365.76" x2="211.9" y2="367.82"/><line class="cls-4" x1="205.83" y1="371.79" x2="209.26" y2="369.58"/><line class="cls-4" x1="213.42" y1="364.56" x2="210.83" y2="366.06"/><line class="cls-4" x1="208.05" y1="367.55" x2="204.95" y2="369.39"/><line class="cls-4" x1="213.42" y1="361.95" x2="209.66" y2="364.05"/><line class="cls-4" x1="206.89" y1="365.61" x2="204.49" y2="367.11"/><line class="cls-4" x1="211.15" y1="358.12" x2="207.37" y2="360.35"/><line class="cls-4" x1="204.63" y1="361.81" x2="202.52" y2="363"/><line class="cls-4" x1="201.99" y1="357.38" x2="201.99" y2="362.8"/><line class="cls-4" x1="201.28" y1="356.18" x2="201.28" y2="361.95"/><line class="cls-4" x1="200.47" y1="354.84" x2="200.47" y2="361.95"/><line class="cls-4" x1="208.76" y1="356.87" x2="206.19" y2="358.39"/><line class="cls-4" x1="203.57" y1="360.04" x2="201.99" y2="360.86"/><line class="cls-4" x1="208.76" y1="354.18" x2="204.96" y2="356.36"/><line class="cls-4" x1="200.47" y1="359.07" x2="198.91" y2="359.8"/><line class="cls-4" x1="206.78" y1="352.94" x2="203.92" y2="354.63"/><line class="cls-4" x1="200.47" y1="356.66" x2="196.77" y2="358.63"/><line class="cls-4" x1="206.62" y1="350.3" x2="202.71" y2="352.65"/><line class="cls-4" x1="196.77" y1="356.2" x2="200.16" y2="354.3"/><line class="cls-4" x1="204.56" y1="349.07" x2="201.59" y2="350.79"/><line class="cls-4" x1="194.58" y1="355.19" x2="199.03" y2="352.42"/><line class="cls-4" x1="194.58" y1="352.45" x2="197.92" y2="350.55"/><line class="cls-4" x1="200.55" y1="349.07" x2="204.56" y2="346.78"/><line class="cls-4" x1="202.21" y1="345.4" x2="199.39" y2="347.17"/><line class="cls-4" x1="196.77" y1="348.62" x2="193.57" y2="350.55"/><line class="cls-4" x1="202.21" y1="342.8" x2="198.21" y2="345.21"/><line class="cls-4" x1="195.61" y1="346.67" x2="193.57" y2="347.77"/><line class="cls-4" x1="200.23" y1="341.69" x2="197.17" y2="343.49"/><line class="cls-4" x1="194.58" y1="344.95" x2="193.57" y2="345.62"/><line class="cls-4" x1="191.9" y1="346.67" x2="190.75" y2="347.4"/><line class="cls-4" x1="200.23" y1="339.34" x2="196.08" y2="341.69"/><line class="cls-4" x1="190.75" y1="344.95" x2="191.98" y2="344.2"/><line class="cls-4" x1="198.01" y1="337.94" x2="194.9" y2="339.74"/><line class="cls-4" x1="191.9" y1="341.44" x2="188.2" y2="343.72"/><line class="cls-4" x1="198.01" y1="335.51" x2="193.9" y2="338.1"/><line class="cls-4" x1="188.2" y1="341.2" x2="191.33" y2="339.49"/><line class="cls-4" x1="195.86" y1="334.23" x2="192.68" y2="336.07"/><line class="cls-4" x1="185.97" y1="340" x2="190.15" y2="337.52"/><line class="cls-4" x1="195.86" y1="331.76" x2="191.57" y2="334.23"/><line class="cls-4" x1="185.97" y1="337.57" x2="189.16" y2="335.85"/><line class="cls-4" x1="193.57" y1="330.44" x2="190.42" y2="332.34"/><line class="cls-4" x1="184.33" y1="335.67" x2="187.87" y2="333.69"/><line class="cls-4" x1="193.57" y1="327.8" x2="189.16" y2="330.26"/><line class="cls-4" x1="186.72" y1="331.76" x2="184.33" y2="333.12"/><line class="cls-4" x1="191.29" y1="326.45" x2="188.06" y2="328.29"/><line class="cls-4" x1="185.52" y1="329.75" x2="184.33" y2="330.44"/><line class="cls-4" x1="181.28" y1="332.42" x2="182.63" y2="331.5"/><line class="cls-4" x1="191.29" y1="323.93" x2="186.85" y2="326.45"/><line class="cls-4" x1="181.28" y1="329.49" x2="182.63" y2="328.72"/><line class="cls-4" x1="189.23" y1="322.74" x2="185.78" y2="324.67"/><line class="cls-4" x1="179.34" y1="328.26" x2="182.63" y2="326.45"/><line class="cls-4" x1="189.23" y1="320.1" x2="184.61" y2="322.74"/><line class="cls-4" x1="179.34" y1="325.99" x2="182.21" y2="324.19"/><line class="cls-4" x1="187.05" y1="318.74" x2="183.41" y2="320.76"/><line class="cls-4" x1="187.05" y1="316.1" x2="182.21" y2="318.78"/><line class="cls-4" x1="177.68" y1="321.42" x2="179.86" y2="320.24"/><ellipse class="cls-4" cx="200.77" cy="364.05" rx="2.01" ry="1.15"/><ellipse class="cls-4" cx="200.77" cy="362.47" rx="0.78" ry="0.43"/><ellipse class="cls-4" cx="200.77" cy="364.05" rx="0.78" ry="0.43"/><line class="cls-4" x1="199.99" y1="364.05" x2="199.99" y2="362.47"/><line class="cls-4" x1="201.55" y1="364.05" x2="201.55" y2="362.47"/><ellipse class="cls-4" cx="200.76" cy="365.74" rx="2.01" ry="0.53"/><polyline class="cls-4" points="198.76 364.05 198.75 365.11 198.75 365.74"/><polyline class="cls-4" points="202.78 364.05 202.77 365.11 202.77 365.74"/><path class="cls-4" d="M277.77,481.11a5.18,5.18,0,0,1,1.93,5,.47.47,0,0,1-.18.29c-.75.55-4.21,2.81-7.51,0a.62.62,0,0,1-.22-.54c.09-1.08.47-4.17,2-4.56" transform="translate(-75 -116)"/><ellipse class="cls-4" cx="177.94" cy="376.72" rx="2.01" ry="1.15"/><ellipse class="cls-4" cx="177.94" cy="375.14" rx="0.78" ry="0.43"/><ellipse class="cls-4" cx="177.94" cy="376.72" rx="0.78" ry="0.43"/><line class="cls-4" x1="177.16" y1="376.72" x2="177.16" y2="375.14"/><line class="cls-4" x1="178.72" y1="376.72" x2="178.72" y2="375.14"/><ellipse class="cls-4" cx="177.93" cy="378.41" rx="2.01" ry="0.53"/><polyline class="cls-4" points="175.93 376.72 175.92 377.78 175.92 378.4"/><polyline class="cls-4" points="179.95 376.72 179.94 377.78 179.94 378.4"/><path class="cls-4" d="M254.94,493.78a5.18,5.18,0,0,1,1.92,5,.42.42,0,0,1-.17.29c-.75.55-4.21,2.81-7.51,0a.63.63,0,0,1-.22-.54c.08-1.08.46-4.17,2-4.56" transform="translate(-75 -116)"/><ellipse class="cls-4" cx="175.91" cy="349.4" rx="2.01" ry="1.15"/><ellipse class="cls-4" cx="175.91" cy="347.82" rx="0.78" ry="0.43"/><ellipse class="cls-4" cx="175.91" cy="349.4" rx="0.78" ry="0.43"/><line class="cls-4" x1="175.13" y1="349.4" x2="175.13" y2="347.82"/><line class="cls-4" x1="176.69" y1="349.4" x2="176.69" y2="347.82"/><ellipse class="cls-4" cx="175.9" cy="351.08" rx="2.01" ry="0.53"/><polyline class="cls-4" points="173.9 349.4 173.89 350.46 173.89 351.08"/><polyline class="cls-4" points="177.92 349.4 177.91 350.46 177.91 351.08"/><path class="cls-4" d="M252.91,466.46a5.18,5.18,0,0,1,1.93,5,.5.5,0,0,1-.18.29c-.75.55-4.21,2.81-7.51,0a.6.6,0,0,1-.22-.53c.09-1.08.47-4.17,2-4.56" transform="translate(-75 -116)"/><ellipse class="cls-4" cx="152.72" cy="362.26" rx="2.01" ry="1.15"/><ellipse class="cls-4" cx="152.72" cy="360.68" rx="0.78" ry="0.43"/><ellipse class="cls-4" cx="152.72" cy="362.26" rx="0.78" ry="0.43"/><line class="cls-4" x1="151.94" y1="362.26" x2="151.94" y2="360.68"/><line class="cls-4" x1="153.51" y1="362.26" x2="153.51" y2="360.68"/><ellipse class="cls-4" cx="152.72" cy="363.94" rx="2.01" ry="0.53"/><polyline class="cls-4" points="150.71 362.26 150.71 363.32 150.71 363.94"/><polyline class="cls-4" points="154.73 362.26 154.73 363.32 154.73 363.94"/><path class="cls-4" d="M229.73,479.32a5.18,5.18,0,0,1,1.92,5,.45.45,0,0,1-.18.29c-.74.55-4.21,2.81-7.51,0a.66.66,0,0,1-.22-.53c.09-1.08.47-4.17,2-4.56" transform="translate(-75 -116)"/><polyline class="cls-4" points="201.82 323.7 175.91 347.82 152.72 360.68 128.18 364.47"/><polyline class="cls-4" points="226.81 338.1 200.77 362.48 177.94 375.14 153.5 378.93"/><polygon class="cls-4" points="43.19 295.84 43.19 272.31 93.56 243.1 93.56 266 43.19 295.84"/><polyline class="cls-4" points="43.19 290.95 90.24 264.1 93.56 266"/><line class="cls-4" x1="90.25" y1="245.02" x2="90.24" y2="264.1"/><polyline class="cls-4" points="88.66 245.94 88.66 263.47 79.21 268.83 79.21 251.42"/><polyline class="cls-4" points="76.43 253.04 76.43 270.63 66.88 276.05 66.88 258.57"/><polyline class="cls-4" points="63.64 260.45 63.64 278.05 54.06 283.36 54.06 266.01"/><polyline class="cls-4" points="51.76 267.34 51.76 284.96 43.19 289.96"/><polyline class="cls-4" points="153.5 295.72 100.15 268.03 99.85 231.19"/><line class="cls-4" x1="37.27" y1="308.11" x2="100.15" y2="268.03"/><line class="cls-4" x1="36.81" y1="350.74" x2="70.03" y2="331.76"/><polygon class="cls-4" points="462.71 446.07 419.47 420.9 466.88 394.07 509.34 418.64 462.71 446.07"/><line class="cls-4" x1="466.88" y1="394.07" x2="466.62" y2="443.77"/><polygon class="cls-4" points="470.26 392.76 512.2 416.88 533.04 404.82 490.71 380.26 470.26 392.76"/><line class="cls-4" x1="490.71" y1="380.26" x2="490.71" y2="404.52"/><polygon class="cls-4" points="493.09 377.92 554.66 413.34 586.17 394.5 526.07 358.21 493.09 377.92"/><polyline class="cls-4" points="526.07 358.21 526.49 378.6 510.79 388.1"/><polyline class="cls-4" points="526.49 378.6 538.34 385.78 555.78 376.15"/><polyline class="cls-4" points="553.26 393.51 543.67 387.5 536.58 390.96 534.58 389.77 534.58 387.66 536.75 389.07 536.75 386.31 539.23 387.72 539.26 385.27 541.56 386.64 541.57 384 555.21 392.39 536.75 403.04"/><line class="cls-4" x1="538.34" y1="385.78" x2="534.58" y2="387.66"/><polyline class="cls-4" points="524.3 395.87 534.58 389.77 536.58 390.96 526.49 397.14"/><polyline class="cls-4" points="528.99 398.57 536.58 393.51 536.58 390.96"/><polyline class="cls-4" points="536.58 393.51 538.83 394.77 530.95 399.7"/><polyline class="cls-4" points="538.83 394.77 538.83 397.14 532.78 400.76"/><polyline class="cls-4" points="538.83 397.14 541.14 398.57 541.14 400.5"/><line class="cls-4" x1="541.14" y1="398.57" x2="535.2" y2="402.15"/><polyline class="cls-4" points="521.62 432.52 521.62 429.47 534.89 421.47 534.89 425.06"/><line class="cls-4" x1="523.73" y1="428.2" x2="523.73" y2="431.33"/><line class="cls-4" x1="532.79" y1="422.74" x2="532.79" y2="426.24"/><line class="cls-4" x1="533.6" y1="422.25" x2="533.72" y2="425.72"/><polygon class="cls-4" points="171.93 220.97 143.34 204.65 171.93 187.45 200.21 204.21 171.93 220.97"/><line class="cls-4" x1="171.93" y1="187.45" x2="171.93" y2="220.98"/><polyline class="cls-4" points="139.84 201.76 139.84 159.17 178.91 96.5 221.73 120.11 320 65.01"/><polyline class="cls-4" points="139.84 159.17 51.76 108.45 91.74 45.77 136.05 57.73 223.22 108.16 289.68 70.55 320 65.01 361.53 126.52 261.4 183.34"/><polyline class="cls-4" points="361.53 126.52 360.26 342.46 351.83 347.52 351.83 344.81 348.63 342.97 348.63 310.95 335.82 318.2 335.82 357.39 325.74 362.8 325.74 242.53 261.15 279.78"/><line class="cls-4" x1="321.23" y1="245.13" x2="321.23" y2="351.47"/><polygon class="cls-4" points="255.24 314.89 321.23 277.24 321.23 283.74 261.15 318.74 255.24 314.89"/><polygon class="cls-4" points="290.05 335.15 321.23 317.44 321.23 324.9 296.68 339.01 290.05 335.15"/><polyline class="cls-4" points="335.82 348.75 347.35 342.15 347.35 311.68"/><polyline class="cls-4" points="335.82 350.56 348.63 342.97 360.29 336.76 364.77 339.37 364.77 345.48 360.26 342.46"/><polyline class="cls-4" points="336.43 350.2 339.24 351.9 339.24 355.55 342.57 357.34 342.57 360.86 335.82 357.39"/><polyline class="cls-4" points="351.83 347.52 351.83 348.25 354.98 350.2 354.98 353.76 342.57 360.86"/><line class="cls-4" x1="342.57" y1="357.34" x2="354.98" y2="350.2"/><line class="cls-4" x1="339.24" y1="355.55" x2="351.83" y2="348.25"/><line class="cls-4" x1="339.24" y1="351.9" x2="351.49" y2="344.61"/><line class="cls-4" x1="325.74" y1="355.53" x2="335.83" y2="350.06"/><polyline class="cls-4" points="367.11 335.02 367.38 343.66 364.77 345.48 384.6 357.04 384.6 344.81 364.77 333.71 364.77 339.37"/><polyline class="cls-4" points="367.38 343.66 376.25 349.13 376.25 340.14 377.26 340.7 377.26 349.43 384.6 353.77"/><polyline class="cls-4" points="384.6 357.04 450.34 395.43 450.34 383.64 460.75 389.34"/><path class="cls-4" d="M488.44,489.88V477.73L468.88,467v11.05a.21.21,0,0,0,.33.17l1.86-1.31V468.2" transform="translate(-75 -116)"/><path class="cls-4" d="M471.07,468.2" transform="translate(-75 -116)"/><polyline class="cls-4" points="396.07 360.91 405.24 366.28 405.24 357.23 406.24 357.78 406.24 366.57 413.44 370.82"/><path class="cls-4" d="M499.68,484.61v9.14l-2.14,1.11a.21.21,0,0,1-.3-.19l.26-11.28,19.63,11v12.29" transform="translate(-75 -116)"/><polyline class="cls-4" points="424.68 377.75 433.78 382.89 433.78 373.69"/><polyline class="cls-4" points="434.7 374.2 434.7 383.34 442.13 387.81"/><line class="cls-4" x1="452.76" y1="384.97" x2="452.67" y2="394.07"/><polygon class="cls-4" points="467.35 385.49 449.28 375 449.28 376.23 466.31 386.09 467.35 385.49"/><polyline class="cls-4" points="449.28 375 450.62 373.88 467.99 383.64 467.99 385.11 467.35 385.49"/><polyline class="cls-4" points="451.92 356.42 451.92 372.81 450.62 373.88 450.62 355.66 467.99 365.8 467.99 383.64"/><polyline class="cls-4" points="451.92 372.81 457.01 375.99 457.21 359.51"/><polyline class="cls-4" points="463.85 363.38 463.85 379.97 458.63 376.93 458.63 360.34"/><polyline class="cls-4" points="465.49 364.34 465.49 380.54 467.99 382.11"/><polygon class="cls-4" points="443.27 370.15 443.27 351.48 423.04 339.88 423.04 357.86 421.89 359.06 421.89 360.16 441.54 371.6 443.27 370.15"/><line class="cls-4" x1="441.54" y1="370.4" x2="421.89" y2="359.06"/><polyline class="cls-4" points="424.35 357.04 429.57 360.05 429.59 343.63 424.34 340.62 424.35 357.04 423.04 357.86 442.95 369.25 441.54 370.4 441.54 371.6"/><polyline class="cls-4" points="431.17 344.54 431.17 360.89 436.32 364.03 436.32 347.49"/><polyline class="cls-4" points="438.05 348.49 438.05 364.73 442.95 367.75"/><polygon class="cls-4" points="413.88 352.82 413.88 335.35 393.88 323.53 393.88 341.6 413.88 352.82"/><line class="cls-4" x1="392.4" y1="342.96" x2="412.22" y2="354.28"/><polyline class="cls-4" points="395.06 324.22 395.06 340.87 393.88 341.6 392.4 342.96 392.4 344.54 412.22 355.53 413.88 354.28 413.88 352.82 412.22 354.28 412.22 355.53"/><polyline class="cls-4" points="395.06 340.87 400.22 343.92 400.48 327.43"/><polyline class="cls-4" points="401.91 328.27 401.91 344.81 407.04 347.87 407.04 331.31"/><polyline class="cls-4" points="408.8 332.34 408.8 348.62 413.88 351.58"/><polygon class="cls-4" points="365.21 325.49 365.21 307.42 385.44 319.21 385.44 336.76 365.21 325.49"/><polyline class="cls-4" points="383.7 339.13 383.76 338.07 385.44 336.76 385.44 337.7 383.7 339.13 363.95 327.7 363.95 326.69 365.21 325.49 366.53 324.53 366.42 308.12"/><line class="cls-4" x1="363.95" y1="326.69" x2="383.76" y2="338.07"/><polyline class="cls-4" points="366.53 324.53 371.68 327.82 371.68 311.18"/><polyline class="cls-4" points="373.3 312.13 373.3 328.66 378.44 331.65 378.44 315.13"/><polyline class="cls-4" points="380.19 316.15 380.19 332.38 385.44 335.43"/><polyline class="cls-4" points="360.53 297.03 469.32 360.34 480.87 352.82 480.87 324.22 360.77 255.22"/><polyline class="cls-4" points="360.74 261.07 409.61 289 409.61 321.29 360.53 293.35"/><polygon class="cls-4" points="412.22 322.79 412.22 290.51 441.54 306.65 441.54 339.88 412.22 322.79"/><polygon class="cls-4" points="444.07 340.62 444.07 308.91 476.68 327.82 476.71 355.53 472.74 358.12 444.07 340.62"/><polyline class="cls-4" points="480.87 324.22 480.87 196.36 510.1 213.29 510.1 347.52"/><polyline class="cls-4" points="469.32 360.34 467.99 361.15 488.87 372.91"/><polyline class="cls-4" points="516.42 356.8 500.04 347.04 477.8 360.78 493.58 370.15"/><line class="cls-4" x1="500.04" y1="347.04" x2="500.04" y2="366.62"/><polygon class="cls-4" points="480.87 262.34 433 235.11 433 222.75 431.17 221.91 431.17 236.99 480.87 265.9 480.87 262.34"/><polygon class="cls-4" points="435.11 244.66 435.11 239.29 431.17 236.99 431.17 242.44 435.11 244.66"/><line class="cls-4" x1="435.11" y1="244.66" x2="439.52" y2="241.85"/><polyline class="cls-4" points="483.13 191.09 431.17 221.91 433 222.75 480.87 194.68"/><polyline class="cls-4" points="480.87 196.36 480.1 196.13 509.42 148.94 538.26 165.3 510.1 213.29"/><polyline class="cls-4" points="538.26 165.3 574.43 186.75 574.43 192.26"/><polygon class="cls-4" points="582.34 255.22 609.64 211.93 546.88 176.91 520.17 218.6 582.34 255.22"/><polygon class="cls-4" points="502.14 234.41 502.14 216.07 489.75 208.76 489.75 225.99 488.49 226.96 488.49 228.12 501.07 235.28 502.14 234.41"/><polyline class="cls-4" points="488.49 226.96 501.07 234.22 501.07 235.28"/><polyline class="cls-4" points="489.75 225.99 502.14 233.23 501.07 234.22"/><polyline class="cls-4" points="491.04 209.53 491.04 224.94 496.37 227.98 496.37 212.66"/><polyline class="cls-4" points="497.85 213.54 497.85 228.78 502.14 231.33"/><polygon class="cls-4" points="502.14 276.21 502.14 257.86 489.75 250.56 489.75 267.79 488.49 268.75 488.49 269.92 501.07 277.08 502.14 276.21"/><polyline class="cls-4" points="488.49 268.75 501.07 276.02 501.07 277.08"/><polyline class="cls-4" points="489.75 267.79 502.14 275.02 501.07 276.02"/><polyline class="cls-4" points="491.04 251.32 491.04 266.73 496.37 269.78 496.37 254.46"/><polyline class="cls-4" points="497.85 255.34 497.85 270.58 502.14 273.12"/><polygon class="cls-4" points="502.14 318.01 502.14 299.66 489.75 292.36 489.75 309.59 488.49 310.56 488.49 311.72 501.07 318.88 502.14 318.01"/><polyline class="cls-4" points="488.49 310.56 501.07 317.82 501.07 318.88"/><polyline class="cls-4" points="489.75 309.59 502.14 316.82 501.07 317.82"/><polyline class="cls-4" points="491.04 293.12 491.04 308.53 496.37 311.58 496.37 296.26"/><polyline class="cls-4" points="497.85 297.14 497.85 312.38 502.14 314.93"/><polyline class="cls-4" points="502.14 342.46 502.14 341.55 489.75 334.27 489.75 347.36"/><line class="cls-4" x1="491.04" y1="335.03" x2="491.04" y2="346.57"/><polyline class="cls-4" points="496.37 338.16 496.37 343.29 497.85 342.38 497.85 339.03"/><polygon class="cls-4" points="527.04 249.11 546.99 260.55 547.43 260.16 547.43 242.78 527.04 231.12 527.04 249.11"/><polyline class="cls-4" points="547.43 260.16 547.43 261.4 545.77 262.92 525.72 251.32 525.72 250.21 527.04 249.11 528.36 248.22 528.41 231.91"/><polyline class="cls-4" points="525.72 250.21 545.7 261.8 545.77 262.92"/><line class="cls-4" x1="545.7" y1="261.8" x2="546.99" y2="260.55"/><polyline class="cls-4" points="528.36 248.22 533.63 251.32 533.63 234.89"/><polyline class="cls-4" points="535.24 235.81 535.24 252.29 540.34 255.34 540.34 238.73"/><polyline class="cls-4" points="542.27 239.83 542.27 256.13 547.43 259.16"/><polygon class="cls-4" points="554.77 265.01 574.72 276.45 575.16 276.06 575.16 258.68 554.77 247.02 554.77 265.01"/><polyline class="cls-4" points="575.16 276.06 575.16 277.3 573.51 278.81 553.45 267.22 553.45 266.11 554.77 265.01 556.09 264.11 556.14 247.8"/><polyline class="cls-4" points="553.45 266.11 573.43 277.7 573.51 278.81"/><polyline class="cls-4" points="556.09 264.11 561.36 267.22 561.36 250.79"/><polyline class="cls-4" points="562.97 251.71 562.97 268.19 568.07 271.23 568.07 254.63"/><polyline class="cls-4" points="570 255.73 570 272.02 575.16 275.06"/><polygon class="cls-4" points="527.04 291.11 546.99 302.55 547.43 302.16 547.43 284.79 527.04 273.12 527.04 291.11"/><polyline class="cls-4" points="547.43 302.16 547.43 303.4 545.77 304.92 525.72 293.32 525.72 292.22 527.04 291.11 528.36 290.22 528.41 273.91"/><polyline class="cls-4" points="525.72 292.22 545.7 303.8 545.77 304.92"/><polyline class="cls-4" points="528.36 290.22 533.63 293.32 533.63 276.89"/><polyline class="cls-4" points="535.24 277.81 535.24 294.29 540.34 297.34 540.34 280.73"/><polyline class="cls-4" points="542.27 281.84 542.27 298.13 547.43 301.17"/><polygon class="cls-4" points="554.77 307.71 574.72 319.15 575.16 318.76 575.16 301.38 554.77 289.72 554.77 307.71"/><polyline class="cls-4" points="575.16 318.76 575.16 320 573.51 321.52 553.45 309.92 553.45 308.81 554.77 307.71 556.09 306.82 556.14 290.51"/><polyline class="cls-4" points="553.45 308.81 573.43 320.4 573.51 321.52"/><polyline class="cls-4" points="556.09 306.82 561.36 309.92 561.36 293.49"/><polyline class="cls-4" points="562.97 294.41 562.97 310.89 568.07 313.94 568.07 297.33"/><polyline class="cls-4" points="570 298.43 570 314.73 575.16 317.76"/><polygon class="cls-4" points="527.05 333.65 547 345.1 547.43 344.7 547.43 327.33 527.05 315.67 527.05 333.65"/><polyline class="cls-4" points="547.43 344.7 547.43 345.94 545.78 347.46 525.73 335.87 525.73 334.76 527.05 333.65 528.37 332.76 528.42 316.45"/><polyline class="cls-4" points="525.73 334.76 545.71 346.34 545.78 347.46"/><polyline class="cls-4" points="528.37 332.76 533.64 335.87 533.64 319.44"/><polyline class="cls-4" points="535.25 320.36 535.25 336.84 540.35 339.88 540.35 323.28"/><polyline class="cls-4" points="542.28 324.38 542.28 340.67 547.43 343.71"/><polygon class="cls-4" points="554.77 349.61 574.72 361.05 575.16 360.66 575.16 343.29 554.77 331.62 554.77 349.61"/><polyline class="cls-4" points="575.16 360.66 575.16 361.9 573.51 363.42 553.45 351.82 553.45 350.72 554.77 349.61 556.09 348.72 556.14 332.41"/><polyline class="cls-4" points="553.45 350.72 573.43 362.3 573.51 363.42"/><polyline class="cls-4" points="556.09 348.72 561.36 351.82 561.36 335.39"/><polyline class="cls-4" points="562.97 336.31 562.97 352.79 568.07 355.84 568.07 339.23"/><polyline class="cls-4" points="570 340.33 570 356.63 575.16 359.66"/><polyline class="cls-4" points="562.97 373.95 582.64 362.19 582.64 343.29 594.25 349.47 594.25 366.62 571.97 379.27"/><polyline class="cls-4" points="582.64 343.29 582.34 255.22 633.42 227.82 633.42 333.12 594.25 355.84"/><line class="cls-4" x1="633.42" y1="333.12" x2="802.06" y2="429.47"/><polygon class="cls-4" points="624.18 415.89 629.33 419.17 634.77 415.89 629.48 412.86 624.18 415.89"/><polyline class="cls-4" points="634.77 415.89 634.77 453.84 629.48 456.41 624.18 453.38 624.18 415.89"/><line class="cls-4" x1="629.33" y1="419.17" x2="629.48" y2="456.41"/><polygon class="cls-4" points="661.53 394.12 666.68 397.4 672.12 394.12 666.82 391.08 661.53 394.12"/><polyline class="cls-4" points="672.12 394.12 672.12 432.06 666.82 434.63 661.53 431.61 661.53 394.12"/><line class="cls-4" x1="666.68" y1="397.4" x2="666.82" y2="434.63"/><line class="cls-4" x1="594.25" y1="361.05" x2="661.53" y2="398.82"/><line class="cls-4" x1="672.11" y1="404.52" x2="795.07" y2="474.98"/><line class="cls-4" x1="358.9" y1="432.75" x2="350.3" y2="437.72"/><polyline class="cls-4" points="335.82 339.88 340.38 337.46 340.38 317.86 335.82 320.05"/><polygon class="cls-4" points="341.58 336.76 346.11 334.33 346.11 315.19 341.58 317.44 341.58 336.76"/><polygon class="cls-4" points="335.06 302.84 335.06 286.06 347.35 278.66 347.35 295.86 335.06 302.84"/><polyline class="cls-4" points="348.7 296.84 348.7 297.99 335.82 304.95 335.06 304.26 335.06 302.84 335.82 303.87 348.7 296.84 347.35 295.86"/><line class="cls-4" x1="335.83" y1="303.87" x2="335.83" y2="304.96"/><polyline class="cls-4" points="335.06 301.22 339.55 298.87 339.55 283.35"/><polyline class="cls-4" points="341.2 282.36 341.2 297.39 346.11 294.79 346.11 279.4"/><polygon class="cls-4" points="335.06 261.18 335.06 244.4 347.35 236.99 347.35 254.19 335.06 261.18"/><polyline class="cls-4" points="348.7 255.17 348.7 256.32 335.82 263.29 335.06 262.6 335.06 261.18 335.82 262.21 348.7 255.17 347.35 254.19"/><polyline class="cls-4" points="335.06 259.55 339.55 257.2 339.55 241.69"/><polyline class="cls-4" points="341.2 240.69 341.2 255.72 346.11 253.13 346.11 237.74"/><polygon class="cls-4" points="335.06 219.33 335.06 202.54 347.35 195.14 347.35 212.34 335.06 219.33"/><polyline class="cls-4" points="348.7 213.32 348.7 214.47 335.82 221.44 335.06 220.75 335.06 219.33 335.82 220.36 348.7 213.32 347.35 212.34"/><polyline class="cls-4" points="335.06 217.7 339.55 215.35 339.55 199.84"/><polyline class="cls-4" points="341.2 198.84 341.2 213.87 346.11 211.28 346.11 195.89"/><polygon class="cls-4" points="335.06 177.64 335.06 160.86 347.35 153.46 347.35 170.66 335.06 177.64"/><polyline class="cls-4" points="348.7 171.64 348.7 172.79 335.82 179.75 335.06 179.06 335.06 177.64 335.82 178.67 348.7 171.64 347.35 170.66"/><polyline class="cls-4" points="335.06 176.01 339.55 173.67 339.55 158.15"/><polyline class="cls-4" points="341.2 157.16 341.2 172.19 346.11 169.59 346.11 154.2"/><polygon class="cls-4" points="285.93 206.31 285.93 188.91 305.82 177.05 305.82 195.14 285.93 206.31"/><line class="cls-4" x1="287.49" y1="207.76" x2="307.47" y2="196.19"/><polyline class="cls-4" points="285.93 204.88 291.04 201.98 291.04 185.86"/><polyline class="cls-4" points="292.87 184.77 292.87 201.21 298.13 198.21 298.13 181.63"/><polyline class="cls-4" points="299.48 180.83 299.48 197.34 304.74 194.34 304.74 177.69"/><polyline class="cls-4" points="304.74 194.34 305.82 195.14 307.47 196.19 307.47 197.45 287.55 209.07 285.93 207.54 285.93 206.31 287.49 207.76 287.55 209.07"/><polygon class="cls-4" points="286.35 247.33 286.35 229.93 306.24 218.07 306.24 236.16 286.35 247.33"/><line class="cls-4" x1="287.91" y1="248.78" x2="307.89" y2="237.21"/><polyline class="cls-4" points="286.35 245.9 291.46 243 291.46 226.88"/><polyline class="cls-4" points="293.29 225.79 293.29 242.23 298.56 239.23 298.56 222.65"/><polyline class="cls-4" points="299.9 221.85 299.9 238.36 305.16 235.36 305.16 218.72"/><polyline class="cls-4" points="305.16 235.36 306.24 236.16 307.89 237.21 307.89 238.47 287.97 250.09 286.35 248.56 286.35 247.33 287.91 248.78 287.97 250.09"/><polygon class="cls-4" points="497.32 642.84 450.71 615.91 450.71 613.82 497.32 640.52 497.32 642.84"/><polyline class="cls-4" points="394.43 667.69 396.99 668.82 388.37 676.69 381.71 672.8 390.26 665.85"/><polyline class="cls-4" points="396.99 668.82 396.99 676.69 393.62 679.77"/><polygon class="cls-4" points="407.52 657.37 403.5 655.36 403.5 645.09 407.52 647.02 407.52 657.37"/><polyline class="cls-4" points="403.5 645.09 420.15 631.96 423.69 634.02 407.52 647.02"/><polygon class="cls-4" points="422.67 629.68 439.78 616.33 443.2 618.27 426.43 631.96 422.67 629.68"/><polyline class="cls-4" points="450.71 612.38 446.94 610.57 442.45 614.23 445.82 616.33 450.71 612.38 450.71 619.18"/><path class="cls-4" d="M485.1,741.93" transform="translate(-75 -116)"/><line class="cls-4" x1="410.1" y1="625.93" x2="438.41" y2="642.3"/><ellipse class="cls-4" cx="514.28" cy="757.3" rx="1.32" ry="1.02" transform="translate(-469.74 533.28) rotate(-49.04)"/><path class="cls-4" d="M486,739v-4.62l-5.94,3.26.41,6.65,4.59-2.4L484,741.3A2.35,2.35,0,0,1,483,740c-.2-.64-.21-1.43.71-1.72a1.71,1.71,0,0,1,1.36.18L515,756.2" transform="translate(-75 -116)"/><polyline class="cls-4" points="411.04 618.42 404.31 614.41 397.82 618.2 405.1 621.68"/><line class="cls-4" x1="397.82" y1="618.2" x2="397.82" y2="623.47"/><path class="cls-4" d="M472.82,738.89l.54.27,2.87-1.48a1.53,1.53,0,0,1,1.27,2.15L452,754.61v-1.17l-1.6-1,23-13.25" transform="translate(-75 -116)"/><path class="cls-4" d="M452,754.61v3.24l-1.6-.79s-2.76-.23-1.22,2.9l1.66.86-4.6,2.7v-6.67l5.76-3.41" transform="translate(-75 -116)"/><polyline class="cls-4" points="371.25 640.85 363.61 637.18 363.61 642.98 371.25 647.52"/><polyline class="cls-4" points="363.61 637.18 370.1 633.39 375.4 636.41"/><line class="cls-4" x1="377" y1="641.85" x2="405.99" y2="659.29"/><ellipse class="cls-4" cx="480.51" cy="776.48" rx="1.32" ry="1.02" transform="translate(-495.86 514.38) rotate(-49.04)"/><path class="cls-4" d="M538.31,742.88l-30.38-18c-2.83,0-1.16,2.72-1.16,2.72l30.13,17.58" transform="translate(-75 -116)"/><polyline class="cls-4" points="434.24 605.17 427.47 601.26 421.09 604.92 428.66 608.54 434.24 605.17 434.24 609.61"/><path class="cls-4" d="M496.09,720.92v5.83l2.63-1.36s2.13-.34,1.28,2.17l-1.11.77,4.64,2.76.13-6.55" transform="translate(-75 -116)"/><line class="cls-4" x1="433.26" y1="612.43" x2="428.53" y2="615.09"/><line class="cls-4" x1="423.89" y1="612.33" x2="411.04" y2="619.56"/><line class="cls-4" x1="421.09" y1="610.75" x2="409.36" y2="617.42"/><ellipse class="cls-4" cx="537.8" cy="744.12" rx="1.4" ry="1.02" transform="translate(-451.69 546.5) rotate(-49.04)"/><polyline class="cls-4" points="375.84 624.93 376.04 636.04 380.21 633.39 380.21 622.1 382.68 620.66 382.68 632.21"/><polyline class="cls-4" points="379.97 636.88 379.97 643.64 382.68 645.27 382.68 635.31"/><polyline class="cls-4" points="382.68 648.78 382.68 652.37 379.97 654.21 375.84 651.5 375.84 644.82 404.67 661.53"/><line class="cls-4" x1="379.97" y1="654.21" x2="379.97" y2="647.21"/><polygon class="cls-4" points="356.73 621.68 351.25 618.42 351.25 581.26 356.73 578.03 362 581.16 362 618.42 356.73 621.68"/><polyline class="cls-4" points="351.25 581.26 356.62 584.58 362 581.16"/><line class="cls-4" x1="356.62" y1="584.58" x2="356.73" y2="621.68"/><polyline class="cls-4" points="326.13 578.23 326.2 604.08 328.86 605.79 328.86 576.66 315.1 584.58 315.1 611.76"/><line class="cls-4" x1="326.2" y1="604.08" x2="315.1" y2="610.57"/><polyline class="cls-4" points="239.12 568.34 239.39 553.15 236.75 551.11 236.75 567.27"/><polyline class="cls-4" points="346.7 550.75 152.34 438.71 152.34 420.56"/><path class="cls-4" d="M235.57,541.31l0,17.94a.12.12,0,0,0,.19.11l1.27-.74L237,542.11" transform="translate(-75 -116)"/><line class="cls-4" x1="162.98" y1="426.71" x2="163.11" y2="443.14"/><polyline class="cls-4" points="162.06 442.62 170.84 447.63 170.84 449.37"/><line class="cls-4" x1="170.83" y1="447.63" x2="170.95" y2="431.32"/><polygon class="cls-4" points="163.44 431.69 163.44 430.92 164.64 431.69 164.64 432.29 163.44 431.69"/><path class="cls-4" d="M259.6,555.58l0,17.94a.13.13,0,0,0,.2.11l1.34-.74-.11-16.51" transform="translate(-75 -116)"/><line class="cls-4" x1="187.14" y1="440.98" x2="187.28" y2="457.41"/><polyline class="cls-4" points="186.17 456.89 195.42 461.9 195.42 463.64"/><line class="cls-4" x1="195.42" y1="461.9" x2="195.55" y2="445.59"/><polygon class="cls-4" points="187.63 445.96 187.63 445.19 188.89 445.96 188.89 446.56 187.63 445.96"/><path class="cls-4" d="M286.33,570.75l0,17.94a.14.14,0,0,0,.21.11l1.37-.74-.11-16.51" transform="translate(-75 -116)"/><line class="cls-4" x1="213.95" y1="456.15" x2="214.08" y2="472.58"/><polyline class="cls-4" points="212.94 472.06 222.34 477.07 222.34 478.81"/><line class="cls-4" x1="222.34" y1="477.07" x2="222.46" y2="460.76"/><polygon class="cls-4" points="214.44 461.13 214.44 460.36 215.74 461.13 215.74 461.73 214.44 461.13"/><path class="cls-4" d="M320.42,590.33l0,17.94a.12.12,0,0,0,.19.11l1.27-.74-.11-16.51" transform="translate(-75 -116)"/><line class="cls-4" x1="247.83" y1="475.73" x2="247.96" y2="492.16"/><polyline class="cls-4" points="246.91 491.64 255.69 496.65 255.69 498.39"/><line class="cls-4" x1="255.68" y1="496.65" x2="255.8" y2="480.34"/><polygon class="cls-4" points="248.29 480.71 248.29 479.94 249.49 480.71 249.49 481.31 248.29 480.71"/><line class="cls-4" x1="36.81" y1="388.6" x2="66.88" y2="371.12"/><polyline class="cls-4" points="48.47 360.47 48.47 374.78 60.84 367.63"/><line class="cls-4" x1="48.47" y1="369.54" x2="56.4" y2="365.06"/><polyline class="cls-4" points="55.17 364.35 49.81 367.63 49.81 361.25"/><polyline class="cls-4" points="43.32 316.27 43.32 334.75 59.52 325.67"/><line class="cls-4" x1="43.32" y1="330.1" x2="55.38" y2="323.27"/><polyline class="cls-4" points="44.42 316.91 44.42 328.29 54.23 322.6"/><line class="cls-4" x1="51.76" y1="108.45" x2="52.43" y2="253.04"/><polyline class="cls-4" points="339.55 92.28 348.7 86.79 494.78 172.5"/><polyline class="cls-4" points="336.14 88.91 350.28 81.1 497.85 167.56"/><line class="cls-4" x1="609.64" y1="211.93" x2="633.42" y2="227.82"/><polyline class="cls-4" points="802.06 481.01 825 493.84 400.6 740.49 376.74 726.59 802.06 481.01 802.06 429.47 795.07 432.24"/><polyline class="cls-4" points="376.74 730.8 400.79 745.18 825 498.02 825 493.84"/><polygon class="cls-4" points="341.31 746.52 341.31 725.81 364.02 712.64 364.02 733.62 341.31 746.52"/><polyline class="cls-4" points="365.57 734.98 342.68 747.7 342.59 748.97"/><polyline class="cls-4" points="342.68 747.7 341.31 746.52 341.31 747.43 342.59 748.97 365.57 735.98 365.57 734.98 364.02 733.62"/><polygon class="cls-4" points="342.59 726.17 342.59 744.07 348.49 740.49 348.49 722.99 342.59 726.17"/><polygon class="cls-4" points="349.94 721.99 349.94 739.98 355.58 736.71 355.58 719.09 349.94 721.99"/><polygon class="cls-4" points="357.03 718.09 357.03 735.89 362.75 732.62 362.75 714.91 357.03 718.09"/><polyline class="cls-4" points="338.7 801.65 338.7 761.05 370.29 742.98 370.29 783.93"/><line class="cls-4" x1="355.04" y1="792.48" x2="355.04" y2="751.41"/><polygon class="cls-4" points="341.31 797.66 354.08 790.12 354.08 755.24 341.31 762.32 341.31 797.66"/><polygon class="cls-4" points="356.12 789.3 356.12 754.33 368.93 746.52 368.93 782.31 356.12 789.3"/><polygon class="cls-4" points="356.94 770.86 356.94 774.04 359.66 772.45 359.66 769.5 356.94 770.86"/><polyline class="cls-4" points="376.74 780.31 811.64 531.07 811.64 505.81"/><polyline class="cls-4" points="804.9 509.74 804.9 529.71 774.15 546.65 774.15 527.65 775.05 527.12 775.16 544.69 804.05 528.7 803.98 510.27"/><polyline class="cls-4" points="796.27 514.76 796.27 524.31 804.05 528.7"/><line class="cls-4" x1="796.27" y1="524.31" x2="775.11" y2="536.39"/><polyline class="cls-4" points="770.5 529.78 770.5 549.99 739.75 566.93 739.75 547.93 740.66 547.4 740.76 564.97 769.65 548.98 769.58 530.31"/><polyline class="cls-4" points="761.87 534.8 761.87 544.59 769.65 548.98"/><line class="cls-4" x1="761.87" y1="544.59" x2="740.71" y2="556.67"/><polyline class="cls-4" points="709.64 565.14 709.64 585.12 678.9 602.06 678.9 583.06 679.8 582.53 679.91 600.1 708.79 584.11 708.73 565.68"/><polyline class="cls-4" points="701.01 570.17 701.01 579.72 708.79 584.11"/><line class="cls-4" x1="701.01" y1="579.72" x2="679.86" y2="591.8"/><polyline class="cls-4" points="629.67 611.83 629.67 632.03 598.92 648.97 598.92 629.98 599.82 629.45 599.93 647.02 628.82 631.02 628.75 612.37"/><polyline class="cls-4" points="621.04 616.76 621.04 626.63 628.82 631.02"/><line class="cls-4" x1="621.04" y1="626.63" x2="599.88" y2="638.71"/><polyline class="cls-4" points="593.14 633.15 593.14 653.13 562.39 670.07 562.39 651.07 563.3 650.54 563.41 668.11 592.29 652.11 592.22 633.69"/><polyline class="cls-4" points="584.51 638.18 584.51 647.73 592.29 652.11"/><line class="cls-4" x1="584.51" y1="647.73" x2="563.36" y2="659.81"/><polyline class="cls-4" points="554.87 655.42 554.87 675.39 524.12 692.33 524.12 673.34 525.02 672.81 525.13 690.37 554.01 674.38 553.95 655.96"/><polyline class="cls-4" points="546.24 660.45 546.24 669.99 554.01 674.38"/><line class="cls-4" x1="546.23" y1="669.99" x2="525.08" y2="682.07"/><polyline class="cls-4" points="494.75 690.43 494.75 710.73 464 727.67 464 708.67 464.91 708.14 465.02 725.71 493.9 709.71 493.83 690.97"/><polyline class="cls-4" points="486.12 695.46 486.12 705.33 493.9 709.71"/><line class="cls-4" x1="486.12" y1="705.33" x2="464.96" y2="717.41"/><polyline class="cls-4" points="456.98 712.49 456.98 732.46 426.23 749.4 426.23 730.4 427.13 729.87 427.24 747.44 456.13 731.45 456.06 713.02"/><polyline class="cls-4" points="448.35 717.51 448.35 727.06 456.13 731.45"/><line class="cls-4" x1="448.35" y1="727.06" x2="427.19" y2="739.14"/><polygon class="cls-4" points="499.93 687.42 499.93 709.71 501.08 709.05 501.07 686.75 499.93 687.42"/><line class="cls-4" x1="509.8" y1="681.66" x2="509.8" y2="704.05"/><line class="cls-4" x1="519.86" y1="675.81" x2="519.86" y2="698.23"/><line class="cls-4" x1="518.43" y1="699.11" x2="518.43" y2="676.64"/><polyline class="cls-4" points="510.59 681.21 510.59 693.98 518.43 698.23"/><polyline class="cls-4" points="652.61 598.46 657.26 601.06 657.26 616.76 644.57 624.33 644.35 603.27"/><line class="cls-4" x1="657.26" y1="601.06" x2="657.26" y2="595.75"/><polyline class="cls-4" points="658.96 594.77 659.29 616.19 672.07 609.19 672.07 587.13"/><line class="cls-4" x1="659.07" y1="602.06" x2="672.07" y2="609.19"/><line class="cls-4" x1="673.47" y1="586.31" x2="673.47" y2="610.25"/><line class="cls-4" x1="642.3" y1="604.47" x2="642.3" y2="628.12"/><polygon class="cls-4" points="346.34 773.26 346.34 771.38 344.29 770.33 344.29 767.91 341.97 766.63 341.97 764.25 341.31 763.92 341.31 768.59 342.47 769.23 342.47 771.22 346.34 773.26"/><line class="cls-4" x1="346.34" y1="773.26" x2="354.08" y2="768.84"/><line class="cls-4" x1="346.34" y1="771.38" x2="354.08" y2="766.74"/><path class="cls-4" d="M428.85,878.19l-2.26-1.25L417,882.63l2.32,1.28,9.56-5.46A.15.15,0,0,0,428.85,878.19Z" transform="translate(-75 -116)"/><line class="cls-4" x1="353.92" y1="764.86" x2="344.29" y2="770.33"/><path class="cls-4" d="M417,880.25l9.5-5.56a.15.15,0,0,1,.22.13l-.1,2.12" transform="translate(-75 -116)"/><line class="cls-4" x1="351.69" y1="758.82" x2="350.21" y2="757.39"/><polygon class="cls-4" points="294.42 662.91 271.72 649.39 271.72 645.15 297.8 660.85 294.42 662.91"/><polygon class="cls-4" points="271.72 645.15 261.89 638.66 259.29 640.23 269.72 646.35 271.72 645.15"/><polyline class="cls-4" points="259.97 640.63 259.97 643.15 257.73 644.27 257.73 646.91 255.74 648.11 255.74 650.83 253.34 652.11 253.34 654.89 251.18 656.1 251.18 658.5 248.94 659.7 248.94 662.42 246.7 663.86 246.7 666.01 244.76 667.31 254.26 672.84 256.13 671.69 256.21 669.21 258.45 668.09 258.61 665.53 260.85 664.25 260.85 661.78 263.17 660.58 263.17 658.02 265.5 656.73 265.5 653.71 267.57 652.59 267.57 650.27 269.64 648.99 269.72 646.35"/><line class="cls-4" x1="259.97" y1="643.15" x2="269.64" y2="648.99"/><line class="cls-4" x1="257.73" y1="644.27" x2="267.57" y2="650.27"/><line class="cls-4" x1="257.73" y1="646.91" x2="267.57" y2="652.59"/><line class="cls-4" x1="255.74" y1="648.11" x2="265.5" y2="653.7"/><line class="cls-4" x1="255.74" y1="650.83" x2="265.5" y2="656.73"/><line class="cls-4" x1="253.34" y1="652.11" x2="263.17" y2="658.02"/><line class="cls-4" x1="253.34" y1="654.89" x2="263.17" y2="660.58"/><line class="cls-4" x1="251.18" y1="656.1" x2="260.85" y2="661.78"/><line class="cls-4" x1="251.18" y1="658.5" x2="260.85" y2="664.26"/><line class="cls-4" x1="248.94" y1="659.7" x2="258.61" y2="665.53"/><line class="cls-4" x1="248.94" y1="662.42" x2="258.45" y2="668.09"/><line class="cls-4" x1="246.7" y1="663.86" x2="256.22" y2="669.21"/><line class="cls-4" x1="246.7" y1="666.01" x2="256.14" y2="671.69"/><polyline class="cls-4" points="255.74 673.7 258.25 672.41 258.25 670.57 260.37 669.21 260.37 667.53 263.17 666.01 263.17 662.42 265.5 660.98 265.5 658.5 267.57 657.13 267.57 654.5 269.32 653.71 269.32 650.83 271.72 649.39 275.01 651.35 275.01 674.76"/><polyline class="cls-4" points="194.33 227.86 194.33 256.25 197.92 258.74 204.43 252.88 204.43 208.03"/><line class="cls-4" x1="181.24" y1="235.36" x2="194.33" y2="243.3"/><line class="cls-4" x1="139.69" y1="206.31" x2="139.69" y2="241.35"/><polyline class="cls-4" points="141.5 240.24 141.5 232.41 147.92 236.33"/><line class="cls-4" x1="143.34" y1="233.54" x2="143.34" y2="239.33"/><polygon class="cls-4" points="78.47 161.78 78.47 144.84 66.13 137.47 66.13 154.64 78.47 161.78"/><polyline class="cls-4" points="67.38 138.21 67.38 153.55 72.91 156.7 72.91 141.52"/><polyline class="cls-4" points="74.46 142.45 74.46 157.54 78.47 159.84"/><polyline class="cls-4" points="77.59 164.18 77.59 162.83 78.47 161.78 78.47 163.31 77.59 164.18 64.82 157.06 64.82 155.72 66.13 154.64"/><line class="cls-4" x1="77.59" y1="162.83" x2="64.82" y2="155.72"/><polygon class="cls-4" points="107.5 177.16 107.5 160.23 95.16 152.86 95.16 170.03 107.5 177.16"/><polyline class="cls-4" points="96.41 153.6 96.41 168.94 101.93 172.09 101.93 156.91"/><polyline class="cls-4" points="103.49 157.84 103.49 172.93 107.5 175.23"/><polyline class="cls-4" points="106.62 179.57 106.62 178.22 107.5 177.16 107.5 178.7 106.62 179.57 93.85 172.45 93.85 171.1 95.16 170.03"/><line class="cls-4" x1="106.62" y1="178.22" x2="93.85" y2="171.1"/><polygon class="cls-4" points="78.67 203.87 78.67 186.94 66.33 179.57 66.33 196.74 78.67 203.87"/><polyline class="cls-4" points="67.58 180.31 67.58 195.65 73.1 198.79 73.1 183.62"/><polyline class="cls-4" points="74.66 184.55 74.66 199.64 78.67 201.94"/><polyline class="cls-4" points="77.79 206.28 77.79 204.93 78.67 203.87 78.67 205.41 77.79 206.28 65.02 199.16 65.02 197.81 66.33 196.74"/><line class="cls-4" x1="77.79" y1="204.93" x2="65.02" y2="197.81"/><polygon class="cls-4" points="107.16 218.77 107.16 201.84 94.83 194.47 94.83 211.64 107.16 218.77"/><polyline class="cls-4" points="96.07 195.21 96.07 210.55 101.6 213.69 101.6 198.51"/><polyline class="cls-4" points="103.16 199.45 103.16 214.54 107.16 216.84"/><polyline class="cls-4" points="106.29 221.18 106.29 219.83 107.16 218.77 107.16 220.31 106.29 221.18 93.51 214.06 93.51 212.71 94.83 211.64"/><line class="cls-4" x1="106.29" y1="219.83" x2="93.51" y2="212.71"/><polyline class="cls-4" points="78.67 237.41 78.67 228.59 66.33 221.18 66.33 238.15 71.66 241.5"/><polyline class="cls-4" points="66.33 238.15 65.02 239.33 65.02 240.69 68.9 243.1"/><line class="cls-4" x1="65.02" y1="239.33" x2="70.34" y2="242.26"/><line class="cls-4" x1="74.23" y1="225.93" x2="74.23" y2="240.24"/><polyline class="cls-4" points="67.58 221.92 67.58 237.15 72.5 240.24 72.5 224.88"/><line class="cls-4" x1="204.43" y1="252.88" x2="257.22" y2="277.82"/><polyline class="cls-4" points="197.92 258.74 197.92 226.02 177.01 238.36 177.08 269.39"/><polyline class="cls-4" points="257.22 238.73 261.15 235.92 261.4 183.34 221.73 120.11 171.93 148.39 171.46 183.34"/><polyline class="cls-4" points="398.96 164.66 398.96 131.19 407.88 126.52 417.7 132.08 417.7 164.66 407.66 157.97 407.88 126.52 407.98 123.77 406.33 122.68 361.4 148.05"/><polygon class="cls-4" points="415.47 161.54 415.94 133.09 409 128.85 409 157.41 415.47 161.54"/><polyline class="cls-4" points="399.51 163.26 398.01 164.14 400.26 165.44 400.24 152.35"/><polygon class="cls-4" points="400.26 151.3 399.51 151.91 399.51 164.96 400.26 165.44 400.97 164.96 400.97 151.84 400.26 151.3"/><polyline class="cls-4" points="399.51 151.91 400.24 152.35 400.97 151.84"/><polygon class="cls-4" points="406.81 163.06 406.06 163.68 406.06 176.72 406.81 177.2 407.53 176.72 407.53 163.61 406.81 163.06"/><polyline class="cls-4" points="406.06 163.68 406.79 164.12 407.53 163.61"/><polygon class="cls-4" points="415.94 178.1 415.19 178.72 415.19 191.77 415.94 192.24 416.66 191.77 416.66 178.65 415.94 178.1"/><polyline class="cls-4" points="415.19 178.72 415.92 179.16 416.66 178.65"/><polyline class="cls-4" points="415.92 179.16 415.94 192.24 415.92 194.82 417.62 195.88 417.62 198.41 420.1 199.78 420.1 202.1 422.07 203.11 422.07 206.14 423.79 207.02"/><polygon class="cls-4" points="424.54 193.36 423.79 193.97 423.79 207.02 424.54 207.5 425.26 207.02 425.26 193.91 424.54 193.36"/><polyline class="cls-4" points="423.79 193.97 424.52 194.42 425.26 193.91"/><line class="cls-4" x1="424.54" y1="207.5" x2="424.52" y2="194.42"/><polyline class="cls-4" points="432.86 220.9 432.66 208.88 433.41 208.19 434.19 208.71 434.19 220.12"/><line class="cls-4" x1="433.42" y1="209.35" x2="433.63" y2="220.45"/><polyline class="cls-4" points="406.79 164.12 406.81 177.2 404.43 175.77 404.43 172.89 402.36 171.68 402.36 169.35 400.24 168.14 400.26 165.44"/><polyline class="cls-4" points="406.81 177.2 406.81 179.81 409 180.98 409 183.5 411.41 184.66 411.41 187.09 413.78 188.35 413.78 190.83 415.19 191.77"/><polyline class="cls-4" points="424.27 207.33 424.27 209.9 426.7 211.36 426.7 213.73 428.92 214.9 428.92 217.58 431.44 218.81 431.5 221.71"/><polyline class="cls-4" points="431.17 222.75 429.52 221.91 429.52 220.01 427.11 218.67 427.11 216.83 424.54 215.31 424.54 214.52"/><polyline class="cls-4" points="399.13 148.34 399.51 148.05 435.77 207.5 434.97 208.01 398.96 148.68"/><line class="cls-4" x1="400.97" y1="155.93" x2="406.06" y2="164.12"/><line class="cls-4" x1="407.53" y1="166.8" x2="415.19" y2="179.5"/><line class="cls-4" x1="416.66" y1="182.17" x2="423.91" y2="194.42"/><polyline class="cls-4" points="425.26 196.72 432.66 208.88 433.42 209.35 434.19 208.71"/><polyline class="cls-4" points="434.97 208.01 434.97 213.16 434.19 211.76"/><polyline class="cls-4" points="435.77 207.5 436.01 212.22 434.97 213.16"/><line class="cls-4" x1="400.97" y1="162.33" x2="403.9" y2="160.65"/><line class="cls-4" x1="406.33" y1="159.23" x2="408.26" y2="158.37"/><line class="cls-4" x1="400.97" y1="164.96" x2="405.11" y2="162.58"/><line class="cls-4" x1="407.53" y1="161.19" x2="410.15" y2="159.63"/><polyline class="cls-4" points="409.48 160.03 409.88 162.33 412.47 163.38 412.47 166.11 414.44 167.22 414.44 169.78 416.66 171.16 416.66 173.78 419 175.11 419 177.56 421.11 178.91 421.11 181.34 423.28 182.84 423.28 185 425.26 186.12 425.26 188.67 427.56 190 427.56 192.56 430 193.91 430 196.4 431.89 197.4 431.89 200.12 434.19 201.56 434.19 204.07 436.45 205.52 436.45 208.01 438.78 209.12 438.78 211.79 440.9 213.16 440.9 215.46 441.53 215.76"/><line class="cls-4" x1="400.24" y1="168.14" x2="406.06" y2="164.66"/><line class="cls-4" x1="409.89" y1="162.33" x2="408.67" y2="163.06"/><line class="cls-4" x1="412.47" y1="163.39" x2="409.89" y2="165.06"/><line class="cls-4" x1="412.47" y1="166.11" x2="411" y2="166.89"/><line class="cls-4" x1="414.44" y1="167.22" x2="412.08" y2="168.65"/><line class="cls-4" x1="414.44" y1="169.78" x2="413.26" y2="170.59"/><line class="cls-4" x1="416.66" y1="171.17" x2="414.44" y2="172.53"/><line class="cls-4" x1="416.66" y1="173.78" x2="415.55" y2="174.34"/><line class="cls-4" x1="419" y1="175.11" x2="416.86" y2="176.49"/><line class="cls-4" x1="419" y1="177.56" x2="417.93" y2="178.1"/><line class="cls-4" x1="421.11" y1="178.91" x2="419" y2="180"/><line class="cls-4" x1="421.11" y1="181.34" x2="420.12" y2="181.84"/><line class="cls-4" x1="423.28" y1="182.84" x2="421.46" y2="184.03"/><line class="cls-4" x1="423.28" y1="185" x2="422.5" y2="185.74"/><line class="cls-4" x1="425.26" y1="186.12" x2="423.45" y2="187.29"/><line class="cls-4" x1="425.26" y1="188.67" x2="424.54" y2="189.09"/><line class="cls-4" x1="427.56" y1="190.01" x2="425.76" y2="191.09"/><line class="cls-4" x1="427.56" y1="192.56" x2="426.99" y2="193.09"/><line class="cls-4" x1="430" y1="193.91" x2="428.16" y2="195.01"/><line class="cls-4" x1="430" y1="196.4" x2="429.2" y2="196.72"/><line class="cls-4" x1="431.89" y1="197.4" x2="430.2" y2="198.36"/><line class="cls-4" x1="431.89" y1="200.12" x2="431.46" y2="200.43"/><line class="cls-4" x1="434.19" y1="201.56" x2="432.66" y2="202.39"/><line class="cls-4" x1="436.45" y1="205.52" x2="435.05" y2="206.31"/><line class="cls-4" x1="436.45" y1="208.01" x2="435.81" y2="208.2"/><line class="cls-4" x1="438.78" y1="209.12" x2="435.95" y2="210.96"/><line class="cls-4" x1="440.9" y1="213.16" x2="434.19" y2="216.96"/><line class="cls-4" x1="438.78" y1="211.79" x2="434.19" y2="214.55"/><line class="cls-4" x1="406.06" y1="167.22" x2="402.36" y2="169.35"/><line class="cls-4" x1="402.36" y1="171.68" x2="406.06" y2="169.35"/><line class="cls-4" x1="407.53" y1="168.65" x2="408.42" y2="168.29"/><line class="cls-4" x1="404.43" y1="172.89" x2="406.06" y2="171.85"/><line class="cls-4" x1="407.53" y1="171.17" x2="409.48" y2="170.04"/><line class="cls-4" x1="404.43" y1="175.77" x2="406.06" y2="174.74"/><line class="cls-4" x1="407.53" y1="174.06" x2="410.71" y2="172.07"/><line class="cls-4" x1="407.53" y1="176.72" x2="411.91" y2="174.06"/><line class="cls-4" x1="406.81" y1="179.81" x2="413.14" y2="176.1"/><line class="cls-4" x1="409" y1="180.98" x2="414.26" y2="177.96"/><line class="cls-4" x1="409" y1="183.5" x2="415.19" y2="180"/><line class="cls-4" x1="411.41" y1="184.67" x2="415.19" y2="182.46"/><line class="cls-4" x1="416.66" y1="184.03" x2="417.44" y2="183.5"/><line class="cls-4" x1="411.41" y1="187.09" x2="415.19" y2="184.83"/><line class="cls-4" x1="413.78" y1="188.35" x2="415.19" y2="187.64"/><line class="cls-4" x1="416.66" y1="187.09" x2="419" y2="185.74"/><line class="cls-4" x1="413.78" y1="190.83" x2="415.19" y2="190.01"/><line class="cls-4" x1="416.66" y1="189.09" x2="419.69" y2="187.29"/><line class="cls-4" x1="416.66" y1="191.37" x2="420.63" y2="188.88"/><line class="cls-4" x1="415.92" y1="194.82" x2="421.93" y2="191.09"/><line class="cls-4" x1="417.62" y1="195.88" x2="422.97" y2="192.83"/><line class="cls-4" x1="417.62" y1="198.41" x2="423.79" y2="194.82"/><line class="cls-4" x1="420.1" y1="199.78" x2="423.79" y2="197.64"/><line class="cls-4" x1="420.1" y1="202.1" x2="423.79" y2="199.96"/><line class="cls-4" x1="425.26" y1="199.16" x2="426.29" y2="198.41"/><line class="cls-4" x1="422.07" y1="203.11" x2="423.79" y2="202.25"/><line class="cls-4" x1="425.26" y1="201.56" x2="427.42" y2="200.28"/><line class="cls-4" x1="422.07" y1="206.14" x2="423.79" y2="205.22"/><line class="cls-4" x1="425.26" y1="204.31" x2="428.63" y2="202.25"/><line class="cls-4" x1="425.26" y1="206.74" x2="429.72" y2="204.2"/><line class="cls-4" x1="424.27" y1="209.9" x2="430.92" y2="206.02"/><line class="cls-4" x1="426.7" y1="211.36" x2="432.24" y2="208.2"/><line class="cls-4" x1="426.7" y1="213.73" x2="432.66" y2="210.33"/><line class="cls-4" x1="428.92" y1="214.9" x2="432.73" y2="212.87"/><line class="cls-4" x1="428.92" y1="217.58" x2="432.73" y2="215.35"/><line class="cls-4" x1="431.44" y1="218.81" x2="432.81" y2="217.94"/><ellipse class="cls-4" cx="420.22" cy="207.67" rx="2.01" ry="1.15"/><ellipse class="cls-4" cx="420.22" cy="206.09" rx="0.78" ry="0.43"/><ellipse class="cls-4" cx="420.22" cy="207.67" rx="0.78" ry="0.43"/><line class="cls-4" x1="419.44" y1="207.67" x2="419.44" y2="206.09"/><line class="cls-4" x1="421" y1="207.67" x2="421" y2="206.09"/><ellipse class="cls-4" cx="420.22" cy="209.35" rx="2.01" ry="0.53"/><polyline class="cls-4" points="422.23 207.67 422.23 208.73 422.23 209.35"/><path class="cls-4" d="M497.23,324.73a5.18,5.18,0,0,1,1.92,5,.45.45,0,0,1-.18.29c-.74.55-4.21,2.81-7.51,0a.67.67,0,0,1-.22-.54c.09-1.07.47-4.16,2-4.55" transform="translate(-75 -116)"/><ellipse class="cls-4" cx="397.39" cy="220.34" rx="2.01" ry="1.15"/><ellipse class="cls-4" cx="397.39" cy="218.76" rx="0.78" ry="0.43"/><ellipse class="cls-4" cx="397.39" cy="220.34" rx="0.78" ry="0.43"/><line class="cls-4" x1="396.61" y1="220.34" x2="396.61" y2="218.76"/><line class="cls-4" x1="398.17" y1="220.34" x2="398.17" y2="218.76"/><ellipse class="cls-4" cx="397.38" cy="222.02" rx="2.01" ry="0.53"/><polyline class="cls-4" points="395.38 220.34 395.37 221.4 395.37 222.02"/><polyline class="cls-4" points="399.4 220.34 399.39 221.4 399.39 222.02"/><path class="cls-4" d="M474.39,337.4a5.18,5.18,0,0,1,1.93,5,.45.45,0,0,1-.18.29c-.74.55-4.21,2.81-7.51,0a.61.61,0,0,1-.22-.54c.09-1.07.47-4.16,2-4.55" transform="translate(-75 -116)"/><polyline class="cls-4" points="446.27 181.71 420.22 206.09 397.39 218.76 372.96 222.55"/><ellipse class="cls-4" cx="447.05" cy="249.81" rx="2.01" ry="1.15"/><ellipse class="cls-4" cx="447.05" cy="248.23" rx="0.78" ry="0.43"/><ellipse class="cls-4" cx="447.05" cy="249.8" rx="0.78" ry="0.43"/><line class="cls-4" x1="446.27" y1="249.8" x2="446.27" y2="248.23"/><line class="cls-4" x1="447.83" y1="249.8" x2="447.83" y2="248.23"/><ellipse class="cls-4" cx="447.05" cy="251.49" rx="2.01" ry="0.53"/><polyline class="cls-4" points="445.04 249.81 445.04 250.87 445.04 251.49"/><polyline class="cls-4" points="449.06 249.81 449.06 250.87 449.06 251.49"/><path class="cls-4" d="M524.06,366.86a5.18,5.18,0,0,1,1.92,5,.43.43,0,0,1-.18.29c-.74.55-4.21,2.81-7.51,0a.67.67,0,0,1-.22-.54c.09-1.07.47-4.16,2-4.56" transform="translate(-75 -116)"/><ellipse class="cls-4" cx="422.22" cy="234.89" rx="2.01" ry="1.15"/><ellipse class="cls-4" cx="422.22" cy="233.31" rx="0.78" ry="0.43"/><ellipse class="cls-4" cx="422.22" cy="234.88" rx="0.78" ry="0.43"/><line class="cls-4" x1="421.44" y1="234.88" x2="421.44" y2="233.31"/><line class="cls-4" x1="423.01" y1="234.88" x2="423.01" y2="233.31"/><ellipse class="cls-4" cx="422.22" cy="236.57" rx="2.01" ry="0.53"/><polyline class="cls-4" points="420.21 234.89 420.21 235.94 420.21 236.57"/><path class="cls-4" d="M499.23,351.94a5.18,5.18,0,0,1,1.92,5,.43.43,0,0,1-.18.29c-.74.55-4.21,2.81-7.51,0a.68.68,0,0,1-.22-.54c.09-1.07.47-4.17,2-4.56" transform="translate(-75 -116)"/><polyline class="cls-4" points="449.06 247.4 447.05 248.23 423.43 251.49"/><polyline class="cls-4" points="431.17 229.02 422.22 233.31 398.76 237.51"/><line class="cls-4" x1="447.05" y1="247.8" x2="437.95" y2="242.85"/><polyline class="cls-4" points="430.82 238.67 424.24 234.89 424.23 235.94 424.23 236.57"/><line class="cls-4" x1="421.44" y1="233.31" x2="397.39" y2="218.76"/><line class="cls-4" x1="361.4" y1="149.86" x2="407.98" y2="123.77"/><polygon class="cls-4" points="361.76 184.66 361.76 151.84 375.8 143.67 375.8 176.72 361.76 184.66"/><polyline class="cls-4" points="398.01 164.14 377.9 175.39 377.9 142.93 397.54 131.83 398.01 164.14 398.26 168.41 400.68 169.81 400.68 172.5 402.52 173.56 402.52 176.48 404.68 177.63 404.68 180.29 406.81 181.44 406.81 184.81 409.51 186.46 409.51 188.3 411.86 189.63 411.86 191.48 413.89 192.56 413.89 195.54 415.92 196.36 415.92 198.91 418.15 199.99 418.15 202.85 420.12 203.93 420.12 205.52"/><line class="cls-4" x1="450.37" y1="622.41" x2="433.26" y2="636.22"/><polyline class="cls-4" points="430.9 637.95 407.52 657.37 405.59 659.05"/><polyline class="cls-4" points="403.38 660.78 394.43 667.69 390.26 665.85 390.26 657.87 386.15 655.58 369.49 669.05 400.07 687.42 403.38 685.48 375.88 669.39 390.26 657.87"/><polyline class="cls-4" points="421.09 609.61 412.94 614.41 405.51 610.01 405.51 607.38 413.22 602.89 422.54 597.47 422.67 604.01"/><line class="cls-4" x1="412.94" y1="614.41" x2="412.75" y2="603.06"/><line class="cls-4" x1="405.1" y1="584.78" x2="405.1" y2="595.11"/><polyline class="cls-4" points="370.04 564.65 370.04 579.72 402.63 597.47"/><line class="cls-4" x1="370.04" y1="566.57" x2="405.1" y2="586.67"/><line class="cls-4" x1="328.86" y1="605.79" x2="370.04" y2="579.72"/><polyline class="cls-4" points="297.8 618.94 305.61 614.41 320.22 619.51 323.86 615.11 304.69 608.1 292.21 615.69"/><polyline class="cls-4" points="320.22 619.51 320.65 630.94 323.86 628.35 323.86 615.11"/><line class="cls-4" x1="305.61" y1="614.41" x2="305.6" y2="623.47"/><line class="cls-4" x1="318.46" y1="630.94" x2="320.65" y2="630.94"/><polyline class="cls-4" points="325.17 641.12 334.64 626.93 328.87 624.42 334.64 620.02 346.96 624.13 343.86 630.36"/><line class="cls-4" x1="328.87" y1="624.43" x2="328.86" y2="635.6"/><polyline class="cls-4" points="315.67 634.64 315.67 646.59 320.65 643.72 320.03 631.85"/><polyline class="cls-4" points="347.2 641.3 347.2 660.08 343.98 661.86 340.2 659.69 340.2 645.27"/><line class="cls-4" x1="343.98" y1="643.18" x2="343.98" y2="661.86"/><polyline class="cls-4" points="323.86 676.69 336.94 669.36 330.4 665.41 323.86 669.36"/><polyline class="cls-4" points="323.86 690 336.94 682.5 336.94 669.36"/><polyline class="cls-4" points="329.54 651.58 339.12 659.05 340.2 658.5"/><line class="cls-4" x1="338.64" y1="646.29" x2="340.2" y2="647.52"/><polyline class="cls-4" points="347.2 644.38 362.22 655.31 346.96 664.62 338.65 659.43 339.12 659.05"/><polyline class="cls-4" points="362.22 655.31 362.22 667.83 346.96 676.69 338.65 671.88 338.65 659.43"/><line class="cls-4" x1="346.96" y1="664.62" x2="346.96" y2="676.69"/><polyline class="cls-4" points="403.38 685.48 404.63 693.1 410.31 689.88 410.31 693.86"/><line class="cls-4" x1="403.47" y1="686.05" x2="410.31" y2="689.88"/><polyline class="cls-4" points="369.49 669.05 369.49 686.05 400.26 703.23 400.07 687.42"/><polygon class="cls-4" points="212.5 588.1 233.63 600.22 233.63 580.8 212.5 568.81 212.5 588.1"/><polyline class="cls-4" points="232.69 602.99 232.69 601.65 233.63 600.22 233.63 601.88 232.69 602.99 211.27 590.68 211.27 589.7 212.5 588.1"/><line class="cls-4" x1="211.27" y1="589.7" x2="232.69" y2="601.65"/><polygon class="cls-4" points="213.79 570.92 219.17 574.03 219.17 590.42 213.79 587.54 213.79 570.92"/><polygon class="cls-4" points="220.58 591.27 220.58 574.71 225.59 577.64 225.59 594.15 220.58 591.27"/><polygon class="cls-4" points="227.3 594.88 227.3 578.5 232.44 581.31 232.44 598.12 227.3 594.88"/><polygon class="cls-4" points="243.38 605.66 264.52 617.78 264.52 598.36 243.38 586.37 243.38 605.66"/><polyline class="cls-4" points="263.58 620.54 263.58 619.21 264.52 617.78 264.52 619.43 263.58 620.54 242.16 608.23 242.16 607.26 243.38 605.66"/><line class="cls-4" x1="242.16" y1="607.26" x2="263.58" y2="619.21"/><polygon class="cls-4" points="244.68 588.47 250.06 591.59 250.06 607.98 244.68 605.1 244.68 588.47"/><polygon class="cls-4" points="251.47 608.83 251.47 592.26 256.48 595.2 256.48 611.7 251.47 608.83"/><polygon class="cls-4" points="258.19 612.44 258.19 596.05 263.33 598.87 263.33 615.68 258.19 612.44"/><polygon class="cls-4" points="212.5 622.05 233.63 634.17 233.63 614.75 212.5 602.75 212.5 622.05"/><polyline class="cls-4" points="232.69 636.93 232.69 635.6 233.63 634.17 233.63 635.82 232.69 636.93 211.27 624.62 211.27 623.64 212.5 622.05"/><line class="cls-4" x1="211.27" y1="623.64" x2="232.69" y2="635.6"/><polygon class="cls-4" points="213.79 604.86 219.17 607.98 219.17 624.37 213.79 621.49 213.79 604.86"/><polygon class="cls-4" points="220.58 625.22 220.58 608.65 225.59 611.59 225.59 628.09 220.58 625.22"/><polygon class="cls-4" points="227.3 628.82 227.3 612.44 232.44 615.25 232.44 632.06 227.3 628.82"/><polyline class="cls-4" points="263.58 632.27 243.38 621.06 243.38 640.63 246.18 642"/><polyline class="cls-4" points="243.38 640.63 242.16 641.46 242.16 642.74 243.63 643.42"/><line class="cls-4" x1="242.16" y1="641.46" x2="244.76" y2="642.79"/><polyline class="cls-4" points="262.46 632.9 258.25 630.54 258.05 635.36"/><polyline class="cls-4" points="256.79 636.07 256.79 629.62 251.4 626.72 251.4 639.08"/><polyline class="cls-4" points="250.05 639.83 250.05 625.88 244.76 622.94 244.76 639.46 247.62 641.19"/><polyline class="cls-4" points="232.44 649.68 212.74 638.38 212.74 658.02 219.12 661.78"/><polyline class="cls-4" points="212.74 658.02 211.27 658.94 211.27 660.24 219.12 664.55"/><line class="cls-4" x1="211.27" y1="658.94" x2="219.12" y2="663.57"/><polyline class="cls-4" points="219.12 657.13 219.12 643.42 213.86 640.34 213.86 656.73 219.12 659.94"/><polyline class="cls-4" points="225.83 653.37 225.83 647.27 220.58 644.27 220.58 656.31"/><polyline class="cls-4" points="227.3 652.35 227.3 647.93 231.39 650.27"/><polygon class="cls-4" points="476.14 501.21 476.14 472.89 462.26 480.94 462.26 509.37 476.14 501.21"/><polyline class="cls-4" points="425.64 530.9 462.26 509.37 476.14 501.21 489.92 505.81 489.92 476.92 476.14 472.89"/><polygon class="cls-4" points="485.16 493.84 485.16 492.93 487.8 493.39 487.8 494.64 485.16 493.84"/><line class="cls-4" x1="493.09" y1="491.35" x2="489.92" y2="492.93"/><polyline class="cls-4" points="473.64 474.34 473.64 500.13 476.14 501.21"/><line class="cls-4" x1="462.26" y1="492.46" x2="473.64" y2="486.09"/><polyline class="cls-4" points="524.81 468.03 524.81 442.79 540.53 433.71 540.53 464.57 555.78 456.41"/><polyline class="cls-4" points="525.81 468.62 525.81 443.9 539.57 435.87 539.57 464.95 528.99 470.49"/><polygon class="cls-4" points="527.07 461.97 527.07 461.08 528.25 460.63 528.25 461.3 527.07 461.97"/><line class="cls-4" x1="595.8" y1="393.34" x2="595.8" y2="436.42"/><line class="cls-4" x1="594.25" y1="366.62" x2="594.25" y2="392.43"/><polyline class="cls-4" points="734.88 575.06 734.88 550.53 714.98 562.13 714.98 586.47 716.14 585.8 716.14 562.02 733.47 551.84 733.46 575.88"/><line class="cls-4" x1="724.93" y1="556.86" x2="724.93" y2="580.77"/><line class="cls-4" x1="400.6" y1="740.49" x2="400.79" y2="745.18"/><line class="cls-4" x1="618.57" y1="453.66" x2="622.56" y2="451.72"/><line class="cls-4" x1="263.75" y1="401.54" x2="267.08" y2="402.65"/><line class="cls-4" x1="32" y1="264.6" x2="36.81" y2="267.07"/><polyline class="cls-4" points="67.68 275.59 67.58 263.46 76.43 268.83"/><polyline class="cls-4" points="72.81 272.68 72.81 266.63 73.97 267.34 73.97 271.9"/><line class="cls-4" x1="488.28" y1="566.57" x2="488.06" y2="572.17"/><line class="cls-4" x1="605.33" y1="209.52" x2="577.63" y2="252.45"/><polyline class="cls-4" points="601.74 207.52 574.43 250.56 570.49 248.24 597.8 205.32 593.88 203.14 566.4 245.83 562.97 243.81 590 200.97 586.64 199.1 559.43 241.73 556.09 239.83 583.23 197.2 579.48 195.1 552.51 237.65 548.49 235.28 575.72 193.01 571.62 190.72 544.85 233.14 541.19 230.99 568.61 189.04 564.3 186.64 537.79 228.98 533.63 226.53 560.75 184.65 557.11 182.62 530.16 224.48 526.67 222.43 553.45 180.58 550.22 178.78 523.36 220.48"/><line class="cls-4" x1="512.1" y1="150.45" x2="482.83" y2="197.5"/><line class="cls-4" x1="515.35" y1="152.3" x2="486.13" y2="199.41"/><line class="cls-4" x1="518.52" y1="154.1" x2="489.16" y2="201.16"/><line class="cls-4" x1="522.21" y1="156.19" x2="492.7" y2="203.21"/><line class="cls-4" x1="525.72" y1="158.18" x2="495.94" y2="205.09"/><line class="cls-4" x1="530.15" y1="160.7" x2="500.74" y2="207.87"/><line class="cls-4" x1="533.63" y1="162.67" x2="503.84" y2="210.04"/><line class="cls-4" x1="536.57" y1="164.34" x2="507.75" y2="211.93"/><line class="cls-4" x1="315.06" y1="67.78" x2="354.92" y2="130.28"/><polyline class="cls-4" points="348.17 134.11 308.48 71.47 279.52 76.07 276.76 77.86 304.23 73.86 344.23 136.34"/><polyline class="cls-4" points="340.31 138.56 300.28 76.07 273.57 79.67 270.44 81.44 297.08 77.86 336.76 140.58"/><polyline class="cls-4" points="333 142.71 293.16 80.06 266.79 83.51 263.72 85.24 289.12 82.33 329.15 144.9"/><polyline class="cls-4" points="325.54 146.95 285.54 84.33 260.32 87.16 256.54 89.31 281.74 86.46 321.98 148.97"/><polyline class="cls-4" points="318.21 151.1 278.44 88.31 252.53 91.57 248.71 93.74 274.53 90.51 314.07 153.46"/><polyline class="cls-4" points="310.39 155.55 270.44 92.8 245.3 95.67 240.54 98.36 266.79 94.85 306.71 157.63"/><polyline class="cls-4" points="288.5 71.22 318.21 66.02 358 128.53"/><polyline class="cls-4" points="314.07 67.78 285.54 72.9 283.1 74.28 311.87 69.57 351.73 132.09"/><polyline class="cls-4" points="230.73 103.91 255.28 101.3 251.8 103.25 227.46 105.76 224.21 107.6 247.76 105.1 243.97 107.64 223.22 109.46 222.82 111.34 240.2 109.75 236.44 111.86 222.82 113.01 222.35 115.13 232.39 114.14 228.81 116.14 222.47 116.65 221.98 118.12 224.77 118.41 264.97 181.32 269 179.03 228.81 116.14 232.39 114.14 272.5 177.05 276.38 174.84 236.44 111.86 240.2 109.75 280.17 172.7 284.18 170.42 243.97 107.64 247.76 105.1 288.29 168.09 291.87 166.06 251.8 103.25 255.28 101.3 295.19 164.17 299.24 161.87 258.93 99.25 235.02 101.48 237.75 99.94 263.1 96.92 303.09 159.69"/><polyline class="cls-4" points="137.17 58.37 95.16 47.76 54.92 110.27 57.92 112 97.95 49.39 101.93 51.7 61.63 114.14 65.42 116.32 105.49 53.78 109.46 56.09 69.56 118.7 72.91 120.63 113.18 58.25 116.33 60.08 76.47 122.68 80.48 124.99 120.47 62.49 124.8 65.01 84.73 127.43 87.83 129.22 127.94 66.84 130.96 68.59 91.74 131.47 95.16 133.39 135.32 71.14 139.11 73.34 99.17 135.75 103.44 138.21 143.16 75.7 146.43 77.6 106.65 139.81 110.8 142.45 150.12 79.75 154.17 82.1 114.51 144.59 117.77 146.46 157.73 84.18 161.22 86.21 121.75 148.75 125.9 151.15 165.55 88.73 168.61 90.51 128.87 152.86 132.84 155.14 172.56 92.8 176.67 95.2 137.17 157.63"/><polyline class="cls-4" points="139.04 59.46 97.95 49.39 101.93 51.7 142.54 61.48 143.79 62.2 105.49 53.78 109.46 56.09 146.23 63.62 148.65 65.01 113.18 58.25 116.33 60.08 152.35 67.16 155.09 68.74 120.47 62.49 124.8 65.01 159.23 71.14 162.21 72.86 127.94 66.84 130.96 68.59 166.71 75.46 168.93 76.75 135.32 71.14 139.11 73.34 173.06 79.14 176.67 81.23 143.16 75.7 146.43 77.6 180.22 83.28 183.09 84.94 150.12 79.75 154.17 82.1 188.46 88.05 191.01 89.52 157.73 84.18 161.22 86.21 195.87 92.34 198.99 94.14 165.55 88.73 168.61 90.51 202.63 96.25 205.91 98.15 172.56 92.8 176.67 95.2 211.11 101.16 213.78 102.7 178.91 96.5 91.74 45.77"/><polyline class="cls-4" points="185.79 100.3 217.51 104.86 220.16 106.39 189.92 102.57 194.25 104.96 223.22 108.16 223.06 109.44 221.73 120.11"/><polyline class="cls-4" points="197.34 106.66 223.06 109.44 222.82 111.34 202.01 109.24 205.43 111.13 222.82 113.01 222.35 115.13 210.2 113.75 214.23 115.97 222.47 116.65 221.98 118.12 218.12 118.12"/><line class="cls-4" x1="398.26" y1="168.41" x2="361.16" y2="190.12"/><line class="cls-4" x1="373.61" y1="182.84" x2="418.21" y2="207.67"/><line class="cls-4" x1="300.9" y1="344.81" x2="300.9" y2="380.26"/><polyline class="cls-4" points="482.36 454.62 482.36 451.72 496.06 443.77 496.06 446.91"/><line class="cls-4" x1="484.82" y1="450.29" x2="484.82" y2="453.18"/><polyline class="cls-4" points="493.51 445.25 493.51 448.35 494.63 447.71 494.63 444.59"/><polyline class="cls-4" points="449.27 438.25 458.41 432.75 458.41 411.45 436.15 423.98 436.15 430.35"/><polyline class="cls-4" points="458.41 432.75 454.26 430.35 445.19 435.87"/><line class="cls-4" x1="454.09" y1="413.88" x2="454.26" y2="430.35"/><polyline class="cls-4" points="452.95 414.52 452.95 429.47 447.94 432.75 447.94 417.35 446.13 418.36 446.13 433.11 443.32 434.78"/><polyline class="cls-4" points="439.47 422.12 439.47 432.52 440.96 433.4 440.96 421.28"/><polyline class="cls-4" points="322.52 407.98 317.06 404.26 317.06 411.28"/><line class="cls-4" x1="318.67" y1="405.36" x2="318.67" y2="410.31"/><polyline class="cls-4" points="314.25 412.97 314.25 402.65 301.49 410.02"/><line class="cls-4" x1="312.02" y1="403.94" x2="312.02" y2="414.32"/><line class="cls-4" x1="153.51" y1="338.07" x2="196.77" y2="363.34"/><line class="cls-4" x1="348.7" y1="86.79" x2="348.7" y2="107.51"/><line class="cls-4" x1="480.87" y1="205.22" x2="433" y2="235.11"/><line class="cls-4" x1="211.79" y1="400.85" x2="230.12" y2="389.99"/><polyline class="cls-4" points="519.86 218.72 521.3 353.95 499.91 341.12 480.87 352.82"/></g><path class="cls-5" d="M405.09,619.82l-.27.27.48.46" transform="translate(-75 -116)"/><path class="cls-5" d="M405.45,394.79l-.63-.62c61.9-62.24,164.05-62.53,226.29-.64A160,160,0,0,1,518,667v-.08a158.82,158.82,0,0,1-112.14-45.81" transform="translate(-75 -116)"/><path class="cls-6" d="M427.92,417.26" transform="translate(-75 -116)"/><path class="cls-6" d="M451.23,440.57" transform="translate(-75 -116)"/><path class="cls-5" d="M450.52,574.39l1.14-1.13a93.66,93.66,0,0,0,133.39-.75c35.23-36.12,35.32-94.34.2-130.56a93.65,93.65,0,0,0-133.39-1.15l-.2.2-.43-.43" transform="translate(-75 -116)"/><path class="cls-5" d="M426,598.93" transform="translate(-75 -116)"/><path class="cls-5" d="M450.52,574.39" transform="translate(-75 -116)"/><path class="cls-5" d="M405.09,619.82" transform="translate(-75 -116)"/><path class="cls-5" d="M426,598.93" transform="translate(-75 -116)"/><path class="cls-6" d="M405.86,621.11l-.56-.56" transform="translate(-75 -116)"/><path class="cls-5" d="M405.45,394.79" transform="translate(-75 -116)"/><path class="cls-6" d="M426,598.93c-18.15-17.85-35.72-38.51-38.44-41.39" transform="translate(-75 -116)"/><path class="cls-5" d="M439.53,611.52l0,0c-4.39-3.79-9-8.09-13.52-12.57" transform="translate(-75 -116)"/><path class="cls-6" d="M387.5,557.5l0,0" transform="translate(-75 -116)"/><path class="cls-5" d="M442.18,406l-.68.47c-4.65,3.3-9.2,7-13.58,10.76" transform="translate(-75 -116)"/><path class="cls-6" d="M427.92,417.26c-19.8,17.18-36,37.25-40.42,40.24" transform="translate(-75 -116)"/><path class="cls-6" d="M442.18,406c22.36-15.65,46.56-21,65.32-23.53,47.42-6.44,96.22,26.93,108,41,11.22,13.4,48.17,64.84,28.5,127.5-19.56,62.31-69.93,74.46-72.5,75.5-33.3,13.44-96.26,15.84-132-15" transform="translate(-75 -116)"/><polyline class="cls-6" points="330.45 278.79 329.5 278.5 312.5 341.5"/><line class="cls-6" x1="312.5" y1="341.5" x2="376.23" y2="324.57"/><line class="cls-5" x1="330.45" y1="278.79" x2="367.18" y2="290.03"/><polyline class="cls-5" points="367.18 290.03 367.25 290.05 376.5 324.5 376.23 324.57"/><line class="cls-6" x1="312.54" y1="441.54" x2="330.09" y2="503.82"/><polyline class="cls-5" points="375.52 458.39 364.79 495.45 364.53 495.52"/><polyline class="cls-6" points="330.3 504.55 330.48 505.21 330.86 505.11"/><polyline class="cls-6" points="375.52 458.39 375.77 457.53 312.52 441.48 312.54 441.54"/><line class="cls-5" x1="364.53" y1="495.52" x2="330.86" y2="505.11"/><line class="cls-5" x1="330.3" y1="504.55" x2="330.09" y2="503.82"/><path class="cls-7" d="M729,734.16l.52.54-1,.9" transform="translate(-75 -116)"/><path class="cls-7" d="M737,288.21l1.26-1.21C618,161.26,415.63,156.73,289.88,277c-126.59,121-131.08,321.8-10,448.39a317.14,317.14,0,0,0,223.56,97.91v-.16a314.63,314.63,0,0,0,224-86.43" transform="translate(-75 -116)"/><path class="cls-8" d="M691.61,331.87" transform="translate(-75 -116)"/><path class="cls-8" d="M644.51,377.16" transform="translate(-75 -116)"/><path class="cls-7" d="M640.73,642.38l-2.21-2.3c-74.43,71.79-193.34,69-264.32-6.66-68.41-72.93-66.32-188.32,4.68-258.73,73.67-73.05,192.6-71.53,264.39,2.9l.38.4.86-.83" transform="translate(-75 -116)"/><path class="cls-7" d="M688.41,692" transform="translate(-75 -116)"/><path class="cls-7" d="M640.73,642.38" transform="translate(-75 -116)"/><path class="cls-7" d="M729,734.16" transform="translate(-75 -116)"/><path class="cls-7" d="M688.41,692" transform="translate(-75 -116)"/><path class="cls-8" d="M727.41,736.68l1.14-1.08" transform="translate(-75 -116)"/><path class="cls-7" d="M737,288.21" transform="translate(-75 -116)"/><path class="cls-8" d="M688.41,692c36.65-34.67,72.27-74.94,77.78-80.53" transform="translate(-75 -116)"/><path class="cls-7" d="M661.07,716.39l.06,0C670,709,679.23,700.65,688.41,692" transform="translate(-75 -116)"/><path class="cls-8" d="M766.27,611.35l-.08.08" transform="translate(-75 -116)"/><path class="cls-7" d="M663.79,309.06l1.33,1c9.08,6.72,18,14.15,26.49,21.85" transform="translate(-75 -116)"/><path class="cls-8" d="M691.61,331.87c38.57,34.82,69.85,75.21,78.54,81.31" transform="translate(-75 -116)"/><path class="cls-8" d="M663.79,309.06c-43.71-31.88-91.46-43.38-128.53-49.16C441.53,245.3,343.53,309.53,319.65,337c-22.75,26.13-98,126.62-61.43,251.55C294.58,712.75,393.92,738.79,399,740.94c65.46,27.92,190.13,35.12,262.1-24.55" transform="translate(-75 -116)"/><polyline class="cls-8" points="662.01 172.22 663.9 171.68 695.15 297.18"/><line class="cls-8" x1="695.15" y1="297.18" x2="569.51" y2="261.16"/><line class="cls-7" x1="662.01" y1="172.21" x2="588.79" y2="193.06"/><polyline class="cls-7" points="588.79 193.06 588.64 193.1 568.98 261.01 569.51 261.16"/><line class="cls-8" x1="691.19" y1="495.43" x2="653.99" y2="618.16"/><polyline class="cls-7" points="565.73 526.38 585.55 600.23 586.07 600.39"/><polyline class="cls-8" points="653.55 619.6 653.16 620.91 652.41 620.68"/><polyline class="cls-8" points="565.73 526.38 565.27 524.65 691.23 495.3 691.19 495.43"/><line class="cls-7" x1="586.07" y1="600.39" x2="652.41" y2="620.68"/><line class="cls-7" x1="653.55" y1="619.6" x2="653.99" y2="618.16"/></svg>
