<svg id="Layer_1" data-name="Layer 1" xmlns="http://www.w3.org/2000/svg" width="249" height="130" viewBox="0 0 249 130">
  <defs>
    <style>
      .cls-1 {
        fill: #805f7d;
      }
    </style>
  </defs>
  <title>home_pil</title>
  <path class="cls-1" d="M245.82,39H113.44a1.18,1.18,0,0,1-1.18-1.17L112,3a1.18,1.18,0,0,0-1.77-1L57.28,33.15,4.37,64.31a1.18,1.18,0,0,0,0,2L57.83,96.59l53.44,30.24a1.18,1.18,0,0,0,1.76-1l-.28-32.62A1.18,1.18,0,0,1,113.92,92h131.9A1.18,1.18,0,0,0,247,90.82V40.18A1.18,1.18,0,0,0,245.82,39Z"/>
</svg>
